<?xml version="1.0" encoding="UTF-8" standalone="no"?>
<!-- Created with Inkscape (http://www.inkscape.org/) -->

<svg
   width="1000.0002"
   height="1000"
   id="svg2"
   version="1.1"
   inkscape:version="1.2.2 (b0a8486541, 2022-12-01)"
   enable-background="new"
   inkscape:export-filename="NdC-2023-Scratch-Python.png"
   inkscape:export-xdpi="129.01587"
   inkscape:export-ydpi="129.01587"
   sodipodi:docname="2023-Python.svg"
   xml:space="preserve"
   xmlns:inkscape="http://www.inkscape.org/namespaces/inkscape"
   xmlns:sodipodi="http://sodipodi.sourceforge.net/DTD/sodipodi-0.dtd"
   xmlns="http://www.w3.org/2000/svg"
   xmlns:svg="http://www.w3.org/2000/svg"
   xmlns:rdf="http://www.w3.org/1999/02/22-rdf-syntax-ns#"
   xmlns:cc="http://creativecommons.org/ns#"
   xmlns:dc="http://purl.org/dc/elements/1.1/"><defs
     id="defs4"><rect
       x="355.5"
       y="444.6875"
       width="2.0625"
       height="1.625"
       id="rect101811" /><rect
       x="39875"
       y="18437.5"
       width="3987.5"
       height="2614.1243"
       id="rect12427" /><filter
       inkscape:collect="always"
       id="filter4059"><feBlend
         inkscape:collect="always"
         mode="multiply"
         in2="BackgroundImage"
         id="feBlend4061" /></filter><filter
       inkscape:collect="always"
       id="filter4075"><feBlend
         inkscape:collect="always"
         mode="multiply"
         in2="BackgroundImage"
         id="feBlend4077" /></filter><style
       id="style188"><![CDATA[ .sb3-label {
      font: 500 12pt Helevetica Neue, Helvetica, sans-serif;
      fill: #fff;
      word-spacing: +1pt;
    }

    .sb3-motion { fill: #4c97ff; stroke: #3373cc; }
    .sb3-motion-alt { fill: #4280d7; }
    .sb3-motion-dark { fill: #4c97ff; }
    .sb3-looks { fill: #9966ff; stroke: #774dcb; }
    .sb3-looks-alt { fill: #855cd6; }
    .sb3-looks-dark { fill: #bd42bd; }
    .sb3-sound { fill: #cf63cf; stroke: #bd42bd; }
    .sb3-sound-alt { fill: #c94fc9; }
    .sb3-sound-dark { fill: #bd42bd; }
    .sb3-control { fill: #ffab19; stroke: #cf8b17; }
    .sb3-control-alt { fill: #ec9c13; }
    .sb3-control-dark { fill: #cf8b17; }
    .sb3-events { fill: #ffbf00; stroke: #cc9900; }
    .sb3-events-alt { fill: #e6ac00; }
    .sb3-events-dark { fill: #cc9900; }
    .sb3-sensing { fill: #5cb1d6; stroke: #2e8eb8; }
    .sb3-sensing-alt { fill: #47a8d1; }
    .sb3-sensing-dark { fill: #2e8eb8; }
    .sb3-operators { fill: #59c059; stroke: #389438; }
    .sb3-operators-alt { fill: #46b946; }
    .sb3-operators-dark { fill: #389438; }
    .sb3-variables { fill: #ff8c1a; stroke: #db6e00; }
    .sb3-variables-alt { fill: #ff8000; }
    .sb3-variables-dark { fill: #db6e00; }
    .sb3-list { fill: #ff661a; stroke: #e64d00; }
    .sb3-list-alt { fill: #ff5500; }
    .sb3-list-dark { fill: #e64d00; }
    .sb3-custom { fill: #ff6680; stroke: #ff3355; }
    .sb3-custom-alt { fill: #ff4d6a; }
    .sb3-custom-dark { fill: #ff3355; }
    .sb3-custom-arg { fill: #ff6680; stroke: #ff3355; }

    /* extension blocks, e.g. pen */
    .sb3-extension { fill: #0fbd8c; stroke: #0b8e69; }
    .sb3-extension-alt { fill: #0da57a; }
    .sb3-extension-line { stroke: #0da57a; }
    .sb3-extension-dark { fill: #0b8e69; }

    /* obsolete colors: chosen by hand, indicates invalid blocks */
    .sb3-obsolete { fill: #ed4242; stroke: #ca2b2b; }
    .sb3-obsolete-alt { fill: #db3333; }
    .sb3-obsolete-dark { fill: #ca2b2b; }

    /* grey: special color from the Scratch 3.0 design mockups */
    .sb3-grey { fill: #bfbfbf; stroke: #909090; }
    .sb3-grey-alt { fill: #b2b2b2; }
    .sb3-grey-dark { fill: #909090; }

    .sb3-input-color {
      stroke: #fff;
    }

    .sb3-input-number,
    .sb3-input-string {
      fill: #fff;
    }
    .sb3-literal-number,
    .sb3-literal-string,
    .sb3-literal-number-dropdown,
    .sb3-literal-dropdown {
      word-spacing: 0;
    }
    .sb3-literal-number,
    .sb3-literal-string {
      fill: #575e75;
    }

    .sb3-comment {
      fill: #ffffa5;
      stroke: #d0d1d2;
      stroke-width: 1;
    }
    .sb3-comment-line {
      fill: #ffff80;
    }
    .sb3-comment-label {
      font: 400 12pt Helevetica Neue, Helvetica, sans-serif;
      fill: #000;
      word-spacing: 0;
    }

    .sb3-diff {
      fill: none;
      stroke: #000;
    }
    .sb3-diff-ins {
      stroke-width: 2px;
    }
    .sb3-diff-del {
      stroke-width: 3px;
    }
  ]]></style><style
       id="style2">.cls-1,.cls-2{fill:#4cbf56;stroke:#45993d;stroke-linecap:round;stroke-linejoin:round;}.cls-2{stroke-width:1.5px;}</style></defs><sodipodi:namedview
     id="base"
     pagecolor="#ffffff"
     bordercolor="#666666"
     borderopacity="1.0"
     inkscape:pageopacity="0.0"
     inkscape:pageshadow="2"
     inkscape:zoom="0.50000001"
     inkscape:cx="701.99998"
     inkscape:cy="403.99999"
     inkscape:document-units="px"
     inkscape:current-layer="layer1"
     showgrid="false"
     inkscape:window-width="1920"
     inkscape:window-height="1017"
     inkscape:window-x="1912"
     inkscape:window-y="-8"
     inkscape:window-maximized="1"
     showguides="false"
     inkscape:guide-bbox="true"
     inkscape:pagecheckerboard="0"
     inkscape:showpageshadow="false"
     inkscape:deskcolor="#d1d1d1" /><metadata
     id="metadata7"><rdf:RDF><cc:Work
         rdf:about=""><dc:format>image/svg+xml</dc:format><dc:type
           rdf:resource="http://purl.org/dc/dcmitype/StillImage" /><cc:license
           rdf:resource="http://creativecommons.org/licenses/by-nc-sa/4.0/" /></cc:Work><cc:License
         rdf:about="http://creativecommons.org/licenses/by-nc-sa/4.0/"><cc:permits
           rdf:resource="http://creativecommons.org/ns#Reproduction" /><cc:permits
           rdf:resource="http://creativecommons.org/ns#Distribution" /><cc:requires
           rdf:resource="http://creativecommons.org/ns#Notice" /><cc:requires
           rdf:resource="http://creativecommons.org/ns#Attribution" /><cc:prohibits
           rdf:resource="http://creativecommons.org/ns#CommercialUse" /><cc:permits
           rdf:resource="http://creativecommons.org/ns#DerivativeWorks" /><cc:requires
           rdf:resource="http://creativecommons.org/ns#ShareAlike" /></cc:License></rdf:RDF></metadata><g
     inkscape:label="Layer 1"
     inkscape:groupmode="layer"
     id="layer1"
     style="display:inline;opacity:1"
     transform="translate(-382.93713,-385.24051)"><flowRoot
       xml:space="preserve"
       id="flowRoot2492"
       style="font-style:normal;font-weight:normal;font-size:40px;line-height:1.25;font-family:sans-serif;letter-spacing:0px;word-spacing:0px;fill:#000000;fill-opacity:1;stroke:none"><flowRegion
         id="flowRegion2494"><rect
           id="rect2496"
           width="65.760933"
           height="73.185555"
           x="-1029.5475"
           y="1912.5576"
           style="" /></flowRegion><flowPara
         id="flowPara2498" /></flowRoot><flowRoot
       style="font-style:normal;font-weight:normal;font-size:40px;line-height:1.25;font-family:sans-serif;letter-spacing:0px;word-spacing:0px;fill:#000000;fill-opacity:1;stroke:none"
       id="flowRoot1311"
       xml:space="preserve"><flowRegion
         id="flowRegion1313"><rect
           y="5171.2588"
           x="7430.2778"
           height="166.17009"
           width="461.0336"
           id="rect1320"
           style="" /></flowRegion><flowPara
         id="flowPara1322" /></flowRoot><g
       aria-label="d"
       id="text10118"
       style="font-size:135.122px;line-height:1.25;letter-spacing:0px;word-spacing:0px;fill:#1a1a1a;stroke-width:3.37806" /><text
       xml:space="preserve"
       style="font-size:40px;line-height:1.25;font-family:sans-serif;letter-spacing:0px;word-spacing:0px"
       x="3617"
       y="2319.25"
       id="text56748"><tspan
         sodipodi:role="line"
         id="tspan56746"
         x="3617"
         y="2319.25" /></text><use
       href="#sb3-greenFlag"
       transform="translate(6529,3951.25)"
       id="use196"
       x="0"
       y="0"
       width="100%"
       height="100%"
       style="font-size:40px;line-height:1.25;letter-spacing:0px;word-spacing:0px" /><use
       href="#sb3-loopArrow"
       transform="translate(6597,4232.25)"
       id="use216"
       x="0"
       y="0"
       width="100%"
       height="100%"
       style="font-size:40px;line-height:1.25;letter-spacing:0px;word-spacing:0px" /><use
       href="#sb3-dropdownArrow"
       transform="translate(6727,4105.25)"
       id="use252"
       x="0"
       y="0"
       width="100%"
       height="100%"
       style="font-size:40px;line-height:1.25;letter-spacing:0px;word-spacing:0px" /><use
       href="#sb3-dropdownArrow"
       transform="translate(6647,4153.25)"
       id="use270"
       x="0"
       y="0"
       width="100%"
       height="100%"
       style="font-size:40px;line-height:1.25;letter-spacing:0px;word-spacing:0px" /><text
       xml:space="preserve"
       id="text12424"
       style="font-size:40px;line-height:1.25;font-family:sans-serif;letter-spacing:0px;word-spacing:0px;white-space:pre;shape-inside:url(#rect12427);display:inline" /><text
       xml:space="preserve"
       id="text101809"
       style="font-style:normal;font-variant:normal;font-weight:bold;font-stretch:normal;font-size:1.33333px;font-family:Consolas;-inkscape-font-specification:'Consolas Bold';white-space:pre;shape-inside:url(#rect101811);display:inline;fill:#261b0c;fill-opacity:1;stroke:#c00000;stroke-width:0.5;stroke-dasharray:none;stroke-opacity:1" /><g
       id="g111847"
       transform="matrix(24.999996,0,0,24.999996,-9190.4944,-9230.15)"
       inkscape:export-filename="2023-Python.png"
       inkscape:export-xdpi="1228.7991"
       inkscape:export-ydpi="1228.7991"><path
         id="path104078"
         style="font-size:40px;line-height:1.25;letter-spacing:0px;word-spacing:0px;fill:#261b0c;fill-opacity:1;stroke-width:0.946018;stroke-linecap:round;stroke-dasharray:2.83805, 2.83805;paint-order:fill markers stroke"
         inkscape:transform-center-x="0.080416756"
         inkscape:transform-center-y="-0.024991111"
         d="m 382.96236,405.61612 a 20.000003,20.000003 0 0 1 18.97453,-20.9754 20.000003,20.000003 0 0 1 20.97541,18.97453 20.000003,20.000003 0 0 1 -18.97453,20.9754 20.000003,20.000003 0 0 1 -20.97541,-18.97453 z" /><path
         id="path104080"
         style="font-size:40px;line-height:1.25;letter-spacing:0px;word-spacing:0px;fill:#ffffff;stroke-width:0.343576;stroke-linecap:round;stroke-dasharray:1.03073, 1.03073;paint-order:fill markers stroke"
         d="m 386.1268,408.45937 a 0.23570229,0.2357023 0 0 1 -0.23571,0.23571 0.23570229,0.2357023 0 0 1 -0.23569,-0.23571 0.23570229,0.2357023 0 0 1 0.23569,-0.2357 0.23570229,0.2357023 0 0 1 0.23571,0.2357 z" /><path
         id="path104082"
         style="font-size:40px;line-height:1.25;letter-spacing:0px;word-spacing:0px;fill:#ffffff;stroke-width:0.503912;stroke-linecap:round;stroke-dasharray:1.51174, 1.51174;paint-order:fill markers stroke"
         d="m 393.23871,395.94368 a 0.3456967,0.3456967 0 0 1 -0.3457,0.3457 0.3456967,0.3456967 0 0 1 -0.34568,-0.3457 0.3456967,0.3456967 0 0 1 0.34568,-0.3457 0.3456967,0.3456967 0 0 1 0.3457,0.3457 z" /><path
         id="path104084"
         style="font-size:40px;line-height:1.25;letter-spacing:0px;word-spacing:0px;fill:#ffffff;stroke-width:0.503912;stroke-linecap:round;stroke-dasharray:1.51174, 1.51174;paint-order:fill markers stroke"
         d="m 410.68296,417.02138 a 0.3456967,0.3456967 0 0 1 -0.3457,0.3457 0.3456967,0.3456967 0 0 1 -0.34569,-0.3457 0.3456967,0.3456967 0 0 1 0.34569,-0.34569 0.3456967,0.3456967 0 0 1 0.3457,0.34569 z" /><path
         id="path104086"
         style="font-size:40px;line-height:1.25;letter-spacing:0px;word-spacing:0px;fill:#ffffff;stroke-width:0.503912;stroke-linecap:round;stroke-dasharray:1.51174, 1.51174;paint-order:fill markers stroke"
         d="m 402.62117,390.2795 a 0.3456967,0.3456967 0 0 1 -0.3457,0.34568 0.3456967,0.3456967 0 0 1 -0.3457,-0.34568 0.3456967,0.3456967 0 0 1 0.3457,-0.3457 0.3456967,0.3456967 0 0 1 0.3457,0.3457 z" /><path
         id="path104088"
         style="font-size:40px;line-height:1.25;letter-spacing:0px;word-spacing:0px;fill:#ffffff;stroke-width:0.343576;stroke-linecap:round;stroke-dasharray:1.03073, 1.03073;paint-order:fill markers stroke"
         d="m 398.50003,393.72566 a 0.23570229,0.2357023 0 0 1 -0.23571,0.23569 0.23570229,0.2357023 0 0 1 -0.2357,-0.23569 0.23570229,0.2357023 0 0 1 0.2357,-0.23571 0.23570229,0.2357023 0 0 1 0.23571,0.23571 z" /><path
         id="path104090"
         style="font-size:40px;line-height:1.25;letter-spacing:0px;word-spacing:0px;fill:#ffffff;stroke-width:0.343576;stroke-linecap:round;stroke-dasharray:1.03073, 1.03073;paint-order:fill markers stroke"
         d="m 386.82242,400.1662 a 0.23570229,0.2357023 0 0 1 -0.23571,0.23571 0.23570229,0.2357023 0 0 1 -0.23569,-0.23571 0.23570229,0.2357023 0 0 1 0.23569,-0.23571 0.23570229,0.2357023 0 0 1 0.23571,0.23571 z" /><path
         id="path104092"
         style="font-size:40px;line-height:1.25;letter-spacing:0px;word-spacing:0px;fill:#ffffff;stroke-width:0.343576;stroke-linecap:round;stroke-dasharray:1.03073, 1.03073;paint-order:fill markers stroke"
         d="m 390.77114,416.40581 a 0.23570229,0.2357023 0 0 1 -0.2357,0.2357 0.23570229,0.2357023 0 0 1 -0.23571,-0.2357 0.23570229,0.2357023 0 0 1 0.23571,-0.2357 0.23570229,0.2357023 0 0 1 0.2357,0.2357 z" /><path
         id="path104096"
         style="font-size:40px;line-height:1.25;letter-spacing:0px;word-spacing:0px;fill:#ffffff;stroke-width:0.343576;stroke-linecap:round;stroke-dasharray:1.03073, 1.03073;paint-order:fill markers stroke"
         d="m 419.54458,405.50377 a 0.23570229,0.2357023 0 0 1 -0.23569,0.2357 0.23570229,0.2357023 0 0 1 -0.23571,-0.2357 0.23570229,0.2357023 0 0 1 0.23571,-0.23571 0.23570229,0.2357023 0 0 1 0.23569,0.23571 z" /><path
         id="path104098"
         style="font-size:40px;line-height:1.25;letter-spacing:0px;word-spacing:0px;fill:#ffffff;fill-opacity:1;stroke-width:0.757785;stroke-linecap:round;stroke-dasharray:2.27336, 2.27336;paint-order:fill markers stroke"
         d="m 407.24714,389.51433 a 3.355467,3.3554673 0 0 0 -1.91772,3.02829 3.355467,3.3554673 0 0 0 3.35542,3.35556 3.355467,3.3554673 0 0 0 3.22848,-2.45104 3.1111114,3.1111114 0 0 1 -1.96426,0.7052 3.1111114,3.1111114 0 0 1 -3.11115,-3.11111 3.1111114,3.1111114 0 0 1 0.40923,-1.5269 z" /><path
         id="path104100"
         style="font-size:40px;line-height:1.25;letter-spacing:0px;word-spacing:0px;fill:#ffffff;stroke-width:0.503912;stroke-linecap:round;stroke-dasharray:1.51174, 1.51174;paint-order:fill markers stroke"
         d="m 416.05789,393.47511 a 0.3456967,0.3456967 0 0 1 -0.3457,0.3457 0.3456967,0.3456967 0 0 1 -0.3457,-0.3457 0.3456967,0.3456967 0 0 1 0.3457,-0.3457 0.3456967,0.3456967 0 0 1 0.3457,0.3457 z" /><path
         id="path104102"
         style="font-size:40px;line-height:1.25;letter-spacing:0px;word-spacing:0px;fill:#ffffff;stroke-width:0.343576;stroke-linecap:round;stroke-dasharray:1.03073, 1.03073;paint-order:fill markers stroke"
         d="m 405.75897,418.04887 a 0.23570229,0.2357023 0 0 1 -0.23571,0.23569 0.23570229,0.2357023 0 0 1 -0.23571,-0.23569 0.23570229,0.2357023 0 0 1 0.23571,-0.23571 0.23570229,0.2357023 0 0 1 0.23571,0.23571 z" /><path
         id="path104104"
         style="font-size:40px;line-height:1.25;letter-spacing:0px;word-spacing:0px;fill:#ffffff;stroke-width:0.503912;stroke-linecap:round;stroke-dasharray:1.51174, 1.51174;paint-order:fill markers stroke"
         d="m 397.76761,416.18076 a 0.3456967,0.3456967 0 0 1 -0.3457,0.34568 0.3456967,0.3456967 0 0 1 -0.3457,-0.34568 0.3456967,0.3456967 0 0 1 0.3457,-0.3457 0.3456967,0.3456967 0 0 1 0.3457,0.3457 z" /><path
         id="path104106"
         style="font-size:40px;line-height:1.25;letter-spacing:0px;word-spacing:0px;fill:#ffffff;stroke-width:0.343576;stroke-linecap:round;stroke-dasharray:1.03073, 1.03073;paint-order:fill markers stroke"
         d="m 403.7344,396.48697 a 0.23570229,0.2357023 0 0 1 -0.2357,0.2357 0.23570229,0.2357023 0 0 1 -0.2357,-0.2357 0.23570229,0.2357023 0 0 1 0.2357,-0.2357 0.23570229,0.2357023 0 0 1 0.2357,0.2357 z" /><path
         id="path104108"
         style="font-size:40px;line-height:1.25;letter-spacing:0px;word-spacing:0px;fill:#ffffff;stroke-width:0.503912;stroke-linecap:round;stroke-dasharray:1.51174, 1.51174;paint-order:fill markers stroke"
         d="m 391.42903,411.9618 a 0.3456967,0.3456967 0 0 1 -0.34568,0.34569 0.3456967,0.3456967 0 0 1 -0.3457,-0.34569 0.3456967,0.3456967 0 0 1 0.3457,-0.3457 0.3456967,0.3456967 0 0 1 0.34568,0.3457 z" /><g
         aria-label="www.nuitducode.net"
         id="text104112"
         style="font-size:1.30378px;font-family:'Source Code Pro';-inkscape-font-specification:'Source Code Pro';fill:#ffffff;stroke-width:0.244458"><path
           d="m 396.07554,420.53128 -0.1382,-0.63364 h 0.10691 l 0.0756,0.36767 q 0.009,0.0456 0.0156,0.0874 0.007,0.0417 0.013,0.0874 h 0.005 q 0.007,-0.0456 0.0156,-0.0874 0.0104,-0.043 0.0209,-0.0874 l 0.0782,-0.32855 h 0.10691 l 0.0756,0.32855 q 0.0104,0.0456 0.0209,0.0874 0.0117,0.0417 0.0183,0.0874 h 0.005 q 0.008,-0.0456 0.013,-0.0874 0.007,-0.0417 0.0156,-0.0874 l 0.0756,-0.36767 h 0.0991 l -0.13559,0.63364 h -0.13821 l -0.073,-0.30248 q -0.0156,-0.0665 -0.0313,-0.18774 h -0.005 q -0.0157,0.12125 -0.0313,0.18774 l -0.0704,0.30248 z"
           id="path7192" /><path
           d="m 396.85781,420.53128 -0.1382,-0.63364 h 0.10691 l 0.0756,0.36767 q 0.009,0.0456 0.0156,0.0874 0.007,0.0417 0.013,0.0874 h 0.005 q 0.007,-0.0456 0.0156,-0.0874 0.0104,-0.043 0.0209,-0.0874 l 0.0782,-0.32855 h 0.10691 l 0.0756,0.32855 q 0.0104,0.0456 0.0209,0.0874 0.0117,0.0417 0.0182,0.0874 h 0.005 q 0.008,-0.0456 0.013,-0.0874 0.007,-0.0417 0.0156,-0.0874 l 0.0756,-0.36767 h 0.0991 l -0.1356,0.63364 h -0.1382 l -0.073,-0.30248 q -0.0156,-0.0665 -0.0313,-0.18774 h -0.005 q -0.0156,0.12125 -0.0313,0.18774 l -0.0704,0.30248 z"
           id="path7194" /><path
           d="m 397.64008,420.53128 -0.1382,-0.63364 h 0.10691 l 0.0756,0.36767 q 0.009,0.0456 0.0156,0.0874 0.007,0.0417 0.013,0.0874 h 0.005 q 0.007,-0.0456 0.0156,-0.0874 0.0104,-0.043 0.0209,-0.0874 l 0.0782,-0.32855 h 0.10691 l 0.0756,0.32855 q 0.0104,0.0456 0.0209,0.0874 0.0117,0.0417 0.0183,0.0874 h 0.005 q 0.008,-0.0456 0.013,-0.0874 0.007,-0.0417 0.0156,-0.0874 l 0.0756,-0.36767 h 0.0991 l -0.1356,0.63364 h -0.1382 l -0.073,-0.30248 q -0.0156,-0.0665 -0.0313,-0.18774 h -0.005 q -0.0156,0.12125 -0.0313,0.18774 l -0.0704,0.30248 z"
           id="path7196" /><path
           d="m 398.66485,420.54693 q -0.0443,0 -0.0756,-0.03 -0.03,-0.03 -0.03,-0.0795 0,-0.0496 0.03,-0.0795 0.0313,-0.0313 0.0756,-0.0313 0.0443,0 0.0743,0.0313 0.0313,0.03 0.0313,0.0795 0,0.0495 -0.0313,0.0795 -0.03,0.03 -0.0743,0.03 z"
           id="path7198" /><path
           d="m 399.17724,420.53128 v -0.63364 h 0.0887 l 0.009,0.10822 h 0.005 q 0.0496,-0.0535 0.10691,-0.0887 0.0574,-0.0352 0.13169,-0.0352 0.11343,0 0.16558,0.0652 0.0534,0.0639 0.0534,0.19035 v 0.39374 h -0.10691 v -0.3794 q 0,-0.09 -0.0339,-0.13299 -0.0339,-0.0443 -0.11212,-0.0443 -0.0287,0 -0.0535,0.008 -0.0235,0.007 -0.0469,0.0209 -0.0235,0.0143 -0.0482,0.0365 -0.0248,0.0209 -0.0521,0.0495 v 0.44198 z"
           id="path7200" /><path
           d="m 400.15898,420.54693 q -0.11473,0 -0.16818,-0.0639 -0.0522,-0.0652 -0.0522,-0.19165 v -0.39375 h 0.10822 v 0.3794 q 0,0.09 0.0326,0.13429 0.0339,0.043 0.11343,0.043 0.0548,0 0.0991,-0.0274 0.0443,-0.0287 0.0978,-0.09 v -0.43938 h 0.10691 v 0.63364 h -0.0874 l -0.009,-0.11082 h -0.005 q -0.0482,0.0561 -0.10561,0.0913 -0.0561,0.0352 -0.13038,0.0352 z"
           id="path7202" /><path
           d="M 401.03252,420.53128 V 419.985 h -0.29466 v -0.0874 h 0.40157 v 0.63364 z m 0.0417,-0.76662 q -0.0365,0 -0.0613,-0.0222 -0.0248,-0.0235 -0.0248,-0.0613 0,-0.0378 0.0248,-0.06 0.0248,-0.0235 0.0613,-0.0235 0.0365,0 0.0613,0.0235 0.0248,0.0222 0.0248,0.06 0,0.0378 -0.0248,0.0613 -0.0248,0.0222 -0.0613,0.0222 z"
           id="path7204" /><path
           d="m 401.91648,420.54693 q -0.0691,0 -0.11604,-0.0183 -0.0469,-0.0195 -0.0756,-0.0534 -0.0287,-0.0352 -0.0417,-0.0834 -0.0117,-0.0482 -0.0117,-0.10691 V 419.985 h -0.17862 v -0.0808 l 0.18253,-0.007 0.0143,-0.20339 h 0.0887 v 0.20339 h 0.3116 v 0.0874 h -0.3116 v 0.30117 q 0,0.043 0.008,0.0756 0.008,0.0313 0.0261,0.0534 0.0182,0.0222 0.0495,0.0339 0.0313,0.0104 0.0769,0.0104 0.0456,0 0.0821,-0.008 0.0365,-0.008 0.0704,-0.0209 l 0.0235,0.0782 q -0.043,0.0156 -0.0913,0.0261 -0.0469,0.0117 -0.10691,0.0117 z"
           id="path7206" /><path
           d="m 402.53838,420.54693 q -0.0626,0 -0.11343,-0.0222 -0.0495,-0.0222 -0.0861,-0.0639 -0.0365,-0.043 -0.0561,-0.10431 -0.0196,-0.0613 -0.0196,-0.1408 0,-0.0769 0.0235,-0.1382 0.0248,-0.0626 0.0639,-0.10561 0.0404,-0.043 0.0926,-0.0665 0.0521,-0.0235 0.10821,-0.0235 0.0574,0 0.1017,0.0222 0.0456,0.0209 0.0874,0.06 h 0.004 l -0.005,-0.11734 v -0.24381 h 0.10691 v 0.92829 h -0.0886 l -0.009,-0.0834 h -0.004 q -0.0391,0.0404 -0.0939,0.0704 -0.0535,0.0287 -0.11213,0.0287 z m 0.0222,-0.09 q 0.0939,0 0.17861,-0.0952 v -0.31552 q -0.043,-0.0404 -0.0847,-0.0574 -0.0404,-0.0169 -0.0821,-0.0169 -0.0417,0 -0.0782,0.0182 -0.0352,0.017 -0.0626,0.0496 -0.0261,0.0313 -0.0417,0.0756 -0.0156,0.0443 -0.0156,0.0991 0,0.11473 0.0482,0.17862 0.0495,0.0639 0.1382,0.0639 z"
           id="path7208" /><path
           d="m 403.28806,420.54693 q -0.11474,0 -0.16819,-0.0639 -0.0521,-0.0652 -0.0521,-0.19165 v -0.39375 h 0.10821 v 0.3794 q 0,0.09 0.0326,0.13429 0.0339,0.043 0.11342,0.043 0.0548,0 0.0991,-0.0274 0.0443,-0.0287 0.0978,-0.09 v -0.43938 h 0.10691 v 0.63364 h -0.0874 l -0.009,-0.11082 h -0.005 q -0.0482,0.0561 -0.10561,0.0913 -0.0561,0.0352 -0.13037,0.0352 z"
           id="path7210" /><path
           d="m 404.2007,420.54693 q -0.0743,0 -0.1382,-0.0222 -0.0626,-0.0222 -0.10952,-0.0639 -0.0469,-0.043 -0.073,-0.10431 -0.0261,-0.0626 -0.0261,-0.1408 0,-0.0795 0.0274,-0.14081 0.0287,-0.0626 0.0769,-0.10561 0.0482,-0.043 0.11213,-0.0652 0.0652,-0.0222 0.13689,-0.0222 0.0782,0 0.13429,0.0274 0.0574,0.0274 0.0965,0.0652 l -0.0534,0.0691 q -0.0391,-0.0339 -0.0821,-0.0535 -0.0417,-0.0195 -0.0913,-0.0195 -0.0548,0 -0.10039,0.0182 -0.0456,0.017 -0.0782,0.0495 -0.0313,0.0326 -0.0495,0.0782 -0.0183,0.0443 -0.0183,0.0991 0,0.0547 0.017,0.0991 0.0182,0.0443 0.0495,0.0769 0.0326,0.0313 0.0769,0.0495 0.0456,0.017 0.1004,0.017 0.0587,0 0.10691,-0.0222 0.0495,-0.0235 0.0886,-0.0574 l 0.0482,0.0691 q -0.0534,0.0469 -0.11734,0.073 -0.0639,0.0261 -0.13429,0.0261 z"
           id="path7212" /><path
           d="m 404.923,420.54693 q -0.0626,0 -0.11995,-0.0222 -0.0561,-0.0222 -0.0991,-0.0639 -0.043,-0.043 -0.0691,-0.10431 -0.0248,-0.0626 -0.0248,-0.1408 0,-0.0795 0.0248,-0.14081 0.0261,-0.0626 0.0691,-0.10561 0.043,-0.043 0.0991,-0.0652 0.0574,-0.0222 0.11995,-0.0222 0.0626,0 0.11864,0.0222 0.0574,0.0222 0.10039,0.0652 0.043,0.043 0.0678,0.10561 0.0261,0.0613 0.0261,0.14081 0,0.0782 -0.0261,0.1408 -0.0248,0.0613 -0.0678,0.10431 -0.043,0.0417 -0.10039,0.0639 -0.0561,0.0222 -0.11864,0.0222 z m 0,-0.0887 q 0.0456,0 0.0821,-0.017 0.0378,-0.0183 0.0639,-0.0495 0.0274,-0.0326 0.0417,-0.0769 0.0143,-0.0443 0.0143,-0.0991 0,-0.0548 -0.0143,-0.0991 -0.0143,-0.0456 -0.0417,-0.0782 -0.0261,-0.0326 -0.0639,-0.0495 -0.0365,-0.0182 -0.0821,-0.0182 -0.0456,0 -0.0834,0.0182 -0.0365,0.017 -0.0639,0.0495 -0.0261,0.0326 -0.0404,0.0782 -0.0143,0.0443 -0.0143,0.0991 0,0.0547 0.0143,0.0991 0.0143,0.0443 0.0404,0.0769 0.0274,0.0313 0.0639,0.0495 0.0378,0.017 0.0834,0.017 z"
           id="path7214" /><path
           d="m 405.66746,420.54693 q -0.0626,0 -0.11343,-0.0222 -0.0496,-0.0222 -0.0861,-0.0639 -0.0365,-0.043 -0.0561,-0.10431 -0.0196,-0.0613 -0.0196,-0.1408 0,-0.0769 0.0235,-0.1382 0.0248,-0.0626 0.0639,-0.10561 0.0404,-0.043 0.0926,-0.0665 0.0522,-0.0235 0.10821,-0.0235 0.0574,0 0.1017,0.0222 0.0456,0.0209 0.0873,0.06 h 0.004 l -0.005,-0.11734 v -0.24381 h 0.10691 v 0.92829 h -0.0887 l -0.009,-0.0834 h -0.004 q -0.0391,0.0404 -0.0939,0.0704 -0.0534,0.0287 -0.11212,0.0287 z m 0.0222,-0.09 q 0.0939,0 0.17862,-0.0952 v -0.31552 q -0.043,-0.0404 -0.0848,-0.0574 -0.0404,-0.0169 -0.0821,-0.0169 -0.0417,0 -0.0782,0.0182 -0.0352,0.017 -0.0626,0.0496 -0.0261,0.0313 -0.0417,0.0756 -0.0156,0.0443 -0.0156,0.0991 0,0.11473 0.0482,0.17862 0.0495,0.0639 0.1382,0.0639 z"
           id="path7216" /><path
           d="m 406.52665,420.54693 q -0.0717,0 -0.13429,-0.0222 -0.0613,-0.0222 -0.10822,-0.0652 -0.0456,-0.043 -0.073,-0.1043 -0.0261,-0.0626 -0.0261,-0.14211 0,-0.0769 0.0261,-0.1382 0.0274,-0.0613 0.0717,-0.1043 0.0456,-0.043 0.103,-0.0652 0.0587,-0.0235 0.12255,-0.0235 0.0678,0 0.12126,0.0222 0.0548,0.0209 0.0913,0.06 0.0378,0.0391 0.0574,0.0939 0.0195,0.0548 0.0195,0.12125 0,0.0183 -10e-4,0.0352 -0.001,0.017 -0.004,0.03 h -0.49935 q 0.0104,0.10821 0.0782,0.16297 0.0691,0.0535 0.16819,0.0535 0.0574,0 0.10299,-0.0156 0.0469,-0.017 0.09,-0.0443 l 0.0391,0.0704 q -0.0469,0.0313 -0.10822,0.0534 -0.06,0.0222 -0.13689,0.0222 z m -0.0156,-0.58019 q -0.0391,0 -0.0756,0.013 -0.0352,0.013 -0.0639,0.0378 -0.0287,0.0235 -0.0482,0.06 -0.0196,0.0365 -0.0274,0.0834 h 0.40417 q -0.007,-0.0978 -0.0574,-0.14603 -0.0495,-0.0482 -0.13168,-0.0482 z"
           id="path7218" /><path
           d="m 407.2698,420.54693 q -0.0443,0 -0.0756,-0.03 -0.03,-0.03 -0.03,-0.0795 0,-0.0496 0.03,-0.0795 0.0313,-0.0313 0.0756,-0.0313 0.0443,0 0.0743,0.0313 0.0313,0.03 0.0313,0.0795 0,0.0495 -0.0313,0.0795 -0.03,0.03 -0.0743,0.03 z"
           id="path7220" /><path
           d="m 407.78219,420.53128 v -0.63364 h 0.0887 l 0.009,0.10822 h 0.005 q 0.0495,-0.0535 0.10691,-0.0887 0.0574,-0.0352 0.13168,-0.0352 0.11343,0 0.16558,0.0652 0.0534,0.0639 0.0534,0.19035 v 0.39374 h -0.10691 v -0.3794 q 0,-0.09 -0.0339,-0.13299 -0.0339,-0.0443 -0.11213,-0.0443 -0.0287,0 -0.0534,0.008 -0.0235,0.007 -0.0469,0.0209 -0.0235,0.0143 -0.0482,0.0365 -0.0248,0.0209 -0.0522,0.0495 v 0.44198 z"
           id="path7222" /><path
           d="m 408.87345,420.54693 q -0.0717,0 -0.13429,-0.0222 -0.0613,-0.0222 -0.10821,-0.0652 -0.0456,-0.043 -0.073,-0.1043 -0.0261,-0.0626 -0.0261,-0.14211 0,-0.0769 0.0261,-0.1382 0.0274,-0.0613 0.0717,-0.1043 0.0456,-0.043 0.10299,-0.0652 0.0587,-0.0235 0.12256,-0.0235 0.0678,0 0.12125,0.0222 0.0548,0.0209 0.0913,0.06 0.0378,0.0391 0.0574,0.0939 0.0196,0.0548 0.0196,0.12125 0,0.0183 -10e-4,0.0352 -0.001,0.017 -0.004,0.03 h -0.49934 q 0.0104,0.10821 0.0782,0.16297 0.0691,0.0535 0.16819,0.0535 0.0574,0 0.103,-0.0156 0.0469,-0.017 0.09,-0.0443 l 0.0391,0.0704 q -0.0469,0.0313 -0.10821,0.0534 -0.06,0.0222 -0.1369,0.0222 z m -0.0156,-0.58019 q -0.0391,0 -0.0756,0.013 -0.0352,0.013 -0.0639,0.0378 -0.0287,0.0235 -0.0482,0.06 -0.0195,0.0365 -0.0274,0.0834 h 0.40418 q -0.007,-0.0978 -0.0574,-0.14603 -0.0495,-0.0482 -0.13168,-0.0482 z"
           id="path7224" /><path
           d="m 409.73916,420.54693 q -0.0691,0 -0.11603,-0.0183 -0.0469,-0.0195 -0.0756,-0.0534 -0.0287,-0.0352 -0.0417,-0.0834 -0.0117,-0.0482 -0.0117,-0.10691 V 419.985 h -0.17861 v -0.0808 l 0.18252,-0.007 0.0144,-0.20339 h 0.0886 v 0.20339 h 0.31161 v 0.0874 h -0.31161 v 0.30117 q 0,0.043 0.008,0.0756 0.008,0.0313 0.0261,0.0534 0.0183,0.0222 0.0495,0.0339 0.0313,0.0104 0.0769,0.0104 0.0456,0 0.0821,-0.008 0.0365,-0.008 0.0704,-0.0209 l 0.0235,0.0782 q -0.043,0.0156 -0.0913,0.0261 -0.0469,0.0117 -0.10691,0.0117 z"
           id="path7226" /></g><path
         id="path104114"
         style="font-size:40px;line-height:1.25;letter-spacing:0px;word-spacing:0px;fill:none;fill-opacity:1;stroke:none;stroke-width:0.114365;stroke-linecap:round;stroke-dasharray:none;stroke-opacity:1;paint-order:fill markers stroke"
         inkscape:transform-center-x="0.049183981"
         inkscape:transform-center-y="-0.051662531"
         d="m 387.74503,397.11638 a 16.942423,16.942423 0 0 1 22.69159,-7.69305 16.942423,16.942423 0 0 1 7.69306,22.69161 16.942423,16.942423 0 0 1 -22.69161,7.69304 16.942423,16.942423 0 0 1 -7.69304,-22.6916 z" /><g
         aria-label="nuit du c0de 2023"
         transform="translate(96,-0.625)"
         id="text104122"
         style="font-size:2.13333px;font-family:'Source Code Pro';-inkscape-font-specification:'Source Code Pro';fill:#e3342f;stroke-width:1.49626"><path
           d="m 292.10328,397.05273 -0.6076,-0.3261 q -0.15328,-0.0823 -0.21436,0.0315 -0.0305,0.0569 -0.0127,0.13386 0.0183,0.076 0.0662,0.17621 l 0.59016,0.31674 -0.12019,0.22395 -0.93252,-0.50048 0.10394,-0.19366 0.14063,0.0684 q -0.0205,-0.0477 -0.0336,-0.0937 -0.0126,-0.047 -0.0136,-0.0936 -0.002,-0.0471 0.009,-0.0943 0.0112,-0.0472 0.0387,-0.0986 0.0384,-0.0716 0.0909,-0.11201 0.0515,-0.0409 0.11387,-0.0536 0.0614,-0.0131 0.13136,0.002 0.0695,0.0137 0.14386,0.0536 l 0.62596,0.33596 z"
           style="fill:#ffffff"
           id="path7229" /><path
           d="m 291.60624,395.80348 0.58381,0.367 q 0.0732,0.046 0.1283,0.0425 0.0542,-0.004 0.0892,-0.0596 0.0338,-0.0538 0.0208,-0.1309 -0.0134,-0.0785 -0.0543,-0.18178 l -0.56706,-0.35647 0.13527,-0.21518 0.896,0.56325 -0.11698,0.18608 -0.1356,-0.0779 q 0.0167,0.0498 0.0266,0.0967 0.01,0.0468 0.009,0.094 -0.002,0.0457 -0.0166,0.0929 -0.0135,0.0469 -0.044,0.0954 -0.0433,0.0688 -0.098,0.10696 -0.0551,0.0367 -0.11815,0.0451 -0.0631,0.008 -0.13148,-0.0101 -0.0687,-0.0198 -0.14018,-0.0647 l -0.60144,-0.37809 z"
           style="fill:#ffffff"
           id="path7231" /><path
           d="m 292.27926,394.29447 q 0.0278,0.0203 0.0448,0.0482 0.017,0.0279 0.022,0.0599 0.005,0.0306 -0.002,0.0629 -0.008,0.0318 -0.0286,0.0604 -0.0209,0.0286 -0.0494,0.0465 -0.0287,0.0164 -0.0599,0.022 -0.0314,0.004 -0.0632,-0.004 -0.0318,-0.008 -0.0595,-0.028 -0.0278,-0.0203 -0.0448,-0.0482 -0.017,-0.0279 -0.0226,-0.0591 -0.005,-0.032 0.003,-0.0638 0.007,-0.0332 0.0284,-0.0618 0.0209,-0.0286 0.0496,-0.045 0.0279,-0.017 0.0593,-0.0212 0.032,-0.005 0.0638,0.003 0.0318,0.008 0.0595,0.028 z m 0.22799,0.51457 -0.17624,0.24148 -0.15987,-0.11667 0.32976,-0.45184 0.69501,0.50722 0.17992,-0.24654 0.15987,0.11667 -0.53116,0.72783 -0.15987,-0.11667 0.19772,-0.27094 z"
           style="fill:#ffffff"
           id="path7233" /><path
           d="m 294.25493,393.97623 q -0.0323,0.0626 -0.0701,0.12206 -0.0378,0.0594 -0.0781,0.10722 -0.0671,0.0797 -0.13283,0.12373 -0.065,0.0433 -0.13152,0.0526 -0.0658,0.009 -0.13382,-0.0174 -0.0681,-0.0274 -0.14143,-0.0892 l -0.39515,-0.33286 -0.18321,0.21749 -0.15137,-0.12751 0.18321,-0.21749 -0.20714,-0.17448 0.11599,-0.24279 0.25892,0.2181 0.26508,-0.31469 0.15137,0.12751 -0.26508,0.31469 0.38081,0.32078 q 0.0693,0.0584 0.13201,0.0567 0.0619,-0.002 0.12498,-0.0772 0.0403,-0.0478 0.0706,-0.0999 0.0303,-0.0521 0.0515,-0.0983 z"
           style="fill:#ffffff"
           id="path7235" /><path
           d="m 295.7831,392.4802 -0.10899,-0.11213 q 0.002,0.0525 -0.002,0.10096 -0.004,0.0485 -0.0183,0.0934 -0.0149,0.0442 -0.0415,0.0848 -0.0251,0.0407 -0.0669,0.0783 -0.0698,0.0626 -0.1491,0.0834 -0.0793,0.0208 -0.16245,0.003 -0.0831,-0.0192 -0.16851,-0.0755 -0.0855,-0.0563 -0.16686,-0.14699 -0.0974,-0.10855 -0.1381,-0.21476 -0.0406,-0.10769 -0.033,-0.20833 0.007,-0.10142 0.0591,-0.19301 0.0515,-0.0924 0.1391,-0.17097 0.0295,-0.0264 0.0624,-0.049 0.0337,-0.0233 0.0625,-0.0379 l -0.27616,-0.30782 0.18918,-0.16973 0.98291,1.09559 z m -0.69362,-0.0774 q 0.0584,0.0651 0.1087,0.104 0.0504,0.0374 0.0938,0.0516 0.0443,0.0135 0.0824,0.004 0.0374,-0.01 0.07,-0.039 0.0481,-0.0431 0.0567,-0.12085 0.009,-0.0777 -0.003,-0.189 l -0.30886,-0.34426 q -0.0301,0.0116 -0.0683,0.0361 -0.0374,0.0238 -0.0708,0.0537 -0.0457,0.041 -0.0655,0.0923 -0.0197,0.0513 -0.0155,0.10907 0.005,0.0571 0.0356,0.11922 0.0299,0.0614 0.0848,0.12262 z"
           style="fill:#ffffff"
           id="path7237" /><path
           d="m 295.71618,391.159 0.42368,0.54407 q 0.0531,0.0682 0.10612,0.0837 0.0524,0.0147 0.10413,-0.0256 0.0501,-0.039 0.0642,-0.11598 0.0142,-0.0784 0.0109,-0.18939 l -0.41151,-0.52846 0.20053,-0.15616 0.65024,0.83502 -0.17341,0.13504 -0.10094,-0.11944 q -0.001,0.0525 -0.008,0.0999 -0.007,0.0474 -0.024,0.0913 -0.0172,0.0424 -0.0473,0.0817 -0.0287,0.0395 -0.0739,0.0747 -0.0641,0.0499 -0.12859,0.0671 -0.0643,0.0157 -0.12644,0.002 -0.0621,-0.0137 -0.12017,-0.0543 -0.0579,-0.0421 -0.1097,-0.10865 l -0.43648,-0.56052 z"
           style="fill:#ffffff"
           id="path7239" /><path
           d="m 298.7997,390.32681 q -0.0499,0.0636 -0.11209,0.11633 -0.0622,0.0527 -0.13801,0.0964 -0.10919,0.063 -0.21299,0.0831 -0.1038,0.0202 -0.19809,-0.004 -0.0943,-0.0238 -0.17671,-0.0917 -0.0815,-0.0684 -0.14709,-0.18213 -0.0635,-0.1101 -0.0807,-0.21921 -0.0163,-0.10963 0.0104,-0.20922 0.0268,-0.0996 0.0954,-0.18487 0.0696,-0.0858 0.17876,-0.14875 0.0893,-0.0515 0.15552,-0.0764 0.0666,-0.0264 0.12363,-0.04 l 0.1233,0.21387 q -0.0721,0.004 -0.1468,0.0269 -0.0738,0.0221 -0.13247,0.0559 -0.0614,0.0354 -0.0981,0.0842 -0.0368,0.0488 -0.0488,0.1051 -0.012,0.0562 5.9e-4,0.1199 0.013,0.0622 0.0495,0.1254 0.038,0.0659 0.0871,0.10729 0.0491,0.0414 0.10475,0.0586 0.056,0.0158 0.11619,0.008 0.0596,-0.009 0.11921,-0.0435 0.0289,-0.0167 0.0584,-0.0385 0.0299,-0.0232 0.0573,-0.0487 0.0278,-0.0268 0.0528,-0.0545 0.0259,-0.0281 0.0462,-0.0555 z"
           style="fill:#ffffff"
           id="path7241" /><path
           d="m 299.67282,389.16886 q 0.0736,0.15072 0.0988,0.2856 0.0253,0.13488 0.002,0.24832 -0.023,0.11206 -0.0928,0.19943 -0.0698,0.0874 -0.18681,0.14447 -0.10111,0.0493 -0.20366,0.0553 -0.10255,0.006 -0.20133,-0.0397 -0.0992,-0.0466 -0.1919,-0.14861 -0.0926,-0.10199 -0.17351,-0.26769 -0.0735,-0.15072 -0.0988,-0.2856 -0.0243,-0.13533 -0.001,-0.24739 0.0225,-0.11298 0.0933,-0.20081 0.0707,-0.0878 0.18681,-0.14448 0.10111,-0.0493 0.20366,-0.0553 0.10254,-0.006 0.2004,0.0401 0.0988,0.0457 0.19144,0.14767 0.0927,0.10199 0.17396,0.26863 z m -0.72276,0.35731 q 0.009,0.0187 0.0174,0.0356 0.008,0.0159 0.0179,0.0319 l 0.29701,-0.55524 q -0.078,-0.0767 -0.15376,-0.0942 -0.0753,-0.0189 -0.14831,0.0167 -0.0524,0.0256 -0.0841,0.0747 -0.0321,0.0481 -0.0389,0.11982 -0.006,0.0712 0.0152,0.16414 0.0219,0.0925 0.0777,0.20666 z m 0.49612,-0.23745 q -0.008,-0.0159 -0.0165,-0.0314 -0.009,-0.0164 -0.0165,-0.0314 l -0.29512,0.55199 q 0.0743,0.0762 0.15004,0.0937 0.0758,0.0175 0.14785,-0.0177 0.0524,-0.0256 0.0841,-0.0747 0.0326,-0.0495 0.0389,-0.11982 0.007,-0.0717 -0.0152,-0.16413 -0.0224,-0.0934 -0.0777,-0.20667 z"
           style="fill:#ffffff"
           id="path7243" /><path
           d="m 300.77496,389.45699 -0.0645,-0.14246 q -0.0156,0.0502 -0.0359,0.0944 -0.0203,0.0442 -0.0489,0.0817 -0.029,0.0365 -0.0678,0.0657 -0.0374,0.0298 -0.0895,0.0509 -0.0869,0.0352 -0.16855,0.0279 -0.0817,-0.007 -0.15382,-0.0523 -0.0716,-0.0463 -0.1329,-0.12822 -0.0613,-0.0819 -0.10709,-0.19487 -0.0548,-0.13516 -0.057,-0.24889 -0.002,-0.11508 0.0397,-0.20715 0.041,-0.093 0.12112,-0.1615 0.0798,-0.0694 0.18885,-0.11363 0.0367,-0.0149 0.0753,-0.0249 0.0396,-0.0104 0.0717,-0.0144 l -0.15535,-0.38325 0.23555,-0.0955 0.5529,1.36408 z m -0.62621,-0.30818 q 0.0329,0.0811 0.067,0.13471 0.0347,0.0523 0.0708,0.0803 0.0371,0.0277 0.076,0.0322 0.0385,0.004 0.0791,-0.0129 0.0598,-0.0243 0.0944,-0.0944 0.0345,-0.0702 0.0613,-0.17882 l -0.17374,-0.42862 q -0.0323,7.2e-4 -0.0765,0.0108 -0.0433,0.01 -0.0848,0.0265 -0.057,0.0231 -0.0929,0.0647 -0.036,0.0416 -0.0516,0.0973 -0.0146,0.0554 -0.007,0.12422 0.007,0.0679 0.0382,0.14412 z"
           style="fill:#ffffff"
           id="path7245" /><path
           d="m 301.93526,388.40874 q 0.008,0.0247 0.0191,0.065 0.012,0.0399 0.0203,0.0755 l -0.66131,0.21643 q 0.0217,0.0663 0.058,0.11034 0.0373,0.0437 0.0853,0.0663 0.0486,0.0213 0.10595,0.0223 0.0583,6.5e-4 0.12166,-0.0201 0.0733,-0.024 0.15286,-0.0621 0.0803,-0.0394 0.16192,-0.0946 l 0.0629,0.19206 q -0.0351,0.0235 -0.0777,0.0473 -0.0426,0.0238 -0.0879,0.0463 -0.0453,0.0225 -0.0928,0.0413 -0.0472,0.0198 -0.0928,0.0347 -0.11484,0.0376 -0.21661,0.0347 -0.10177,-0.003 -0.18587,-0.0455 -0.0844,-0.0436 -0.14886,-0.12664 -0.0644,-0.083 -0.10494,-0.20679 -0.0402,-0.12276 -0.0392,-0.23376 6.2e-4,-0.112 0.0387,-0.20337 0.0377,-0.0924 0.11221,-0.15947 0.0752,-0.0684 0.18306,-0.10376 0.10692,-0.035 0.20011,-0.0282 0.0929,0.006 0.16774,0.047 0.0749,0.0413 0.13048,0.11403 0.0556,0.0728 0.0877,0.17078 z m -0.25686,0.0457 q -0.0185,-0.0597 -0.0486,-0.0981 -0.0304,-0.0394 -0.0675,-0.059 -0.0361,-0.02 -0.0773,-0.0218 -0.0402,-0.002 -0.0817,0.0114 -0.0911,0.0298 -0.1294,0.11031 -0.0386,0.0795 -0.0132,0.19395 z"
           style="fill:#ffffff"
           id="path7247" /><path
           d="m 303.49647,388.64441 -0.0333,-0.18452 0.25959,-0.37392 q 0.0731,-0.10528 0.11474,-0.17948 0.0427,-0.0744 0.0623,-0.1298 0.0205,-0.0566 0.0219,-0.10134 0.001,-0.0447 -0.007,-0.0908 -0.007,-0.0379 -0.0252,-0.0695 -0.0186,-0.0326 -0.0466,-0.053 -0.0282,-0.0214 -0.0667,-0.0292 -0.0386,-0.009 -0.0848,-5.7e-4 -0.0789,0.0142 -0.1403,0.0613 -0.0616,0.046 -0.11168,0.11435 l -0.16294,-0.1463 q 0.0725,-0.0967 0.17248,-0.1645 0.10081,-0.069 0.22792,-0.0919 0.0984,-0.0178 0.18299,-0.007 0.0844,0.0102 0.14966,0.0492 0.0663,0.0388 0.11036,0.1071 0.0451,0.0681 0.0625,0.16443 0.0144,0.08 0.005,0.15355 -0.009,0.0726 -0.0383,0.14558 -0.0292,0.073 -0.0778,0.14952 -0.0476,0.0763 -0.11137,0.163 l -0.16128,0.22069 0.56483,-0.10193 0.0416,0.23065 z"
           style="fill:#2ca05a"
           id="path7249" /><path
           d="m 305.555,387.65541 q 0.0183,0.1667 -0.003,0.30219 -0.0218,0.13548 -0.0822,0.23434 -0.0595,0.0977 -0.15468,0.15637 -0.0952,0.0587 -0.22463,0.0729 -0.11183,0.0123 -0.21037,-0.0167 -0.0985,-0.029 -0.17611,-0.10535 -0.0777,-0.0774 -0.13043,-0.20469 -0.0528,-0.12728 -0.0729,-0.31056 -0.0183,-0.1667 0.003,-0.30218 0.0228,-0.1356 0.0823,-0.23331 0.0594,-0.0987 0.1556,-0.15752 0.0962,-0.0588 0.22463,-0.0729 0.11182,-0.0123 0.21037,0.0167 0.0986,0.029 0.17507,0.10547 0.0776,0.0764 0.13032,0.20364 0.0528,0.12729 0.073,0.3116 z m -0.80097,0.0922 q 0.002,0.0207 0.004,0.0393 0.002,0.0176 0.006,0.036 l 0.46708,-0.4223 q -0.0475,-0.0985 -0.11291,-0.14059 -0.0645,-0.0432 -0.14525,-0.0343 -0.058,0.006 -0.10438,0.0419 -0.0465,0.0344 -0.0771,0.0996 -0.0295,0.0651 -0.0411,0.15961 -0.0106,0.0944 0.003,0.22076 z m 0.54717,-0.0559 q -0.002,-0.0176 -0.005,-0.0351 -0.003,-0.0185 -0.005,-0.0351 l -0.4642,0.41989 q 0.0442,0.0968 0.10958,0.13886 0.0654,0.0421 0.14513,0.0333 0.058,-0.006 0.10438,-0.0419 0.0474,-0.0356 0.0771,-0.0996 0.0306,-0.0652 0.0411,-0.15962 0.0105,-0.0955 -0.003,-0.22075 z"
           style="fill:#2ca05a"
           id="path7251" /><path
           d="m 305.81963,388.32627 -0.008,-0.18735 0.30868,-0.33455 q 0.0869,-0.0942 0.13839,-0.16194 0.0525,-0.0678 0.0796,-0.11997 0.0281,-0.0533 0.0357,-0.0973 0.008,-0.0441 0.006,-0.0909 -0.002,-0.0385 -0.0154,-0.0724 -0.0139,-0.0349 -0.0389,-0.0589 -0.025,-0.0251 -0.062,-0.0382 -0.0371,-0.0141 -0.0839,-0.0123 -0.0802,0.003 -0.14742,0.0414 -0.0673,0.0371 -0.12638,0.0979 l -0.14121,-0.16737 q 0.0852,-0.0858 0.19352,-0.13914 0.10936,-0.0544 0.23842,-0.0596 0.0999,-0.004 0.18215,0.0187 0.0822,0.0217 0.14145,0.0694 0.0603,0.0476 0.0945,0.1213 0.0353,0.0736 0.0392,0.17148 0.003,0.0812 -0.0157,0.15283 -0.019,0.0706 -0.058,0.13891 -0.0389,0.0683 -0.0977,0.13737 -0.0577,0.069 -0.13278,0.14607 l -0.19018,0.19635 0.57349,-0.0231 0.009,0.23419 z"
           style="fill:#2ca05a"
           id="path7253" /><path
           d="m 307.932,387.90019 q -0.003,0.101 -0.0428,0.18111 -0.0398,0.0791 -0.1196,0.13406 -0.0787,0.054 -0.19724,0.0807 -0.11854,0.0267 -0.27785,0.0221 -0.0354,-10e-4 -0.0749,-0.004 -0.0385,-0.002 -0.0769,-0.006 -0.0385,-0.003 -0.0748,-0.008 -0.0364,-0.004 -0.0654,-0.0102 l 0.006,-0.22074 q 0.0652,0.0144 0.1462,0.0251 0.082,0.01 0.17054,0.0123 0.0864,0.003 0.14932,-0.0102 0.0629,-0.0127 0.10431,-0.0386 0.0414,-0.0269 0.0614,-0.067 0.021,-0.04 0.0225,-0.0911 10e-4,-0.0448 -0.0174,-0.0818 -0.0187,-0.037 -0.0586,-0.0632 -0.0398,-0.0272 -0.10296,-0.0426 -0.062,-0.0164 -0.14847,-0.0189 l -0.15097,-0.004 0.006,-0.19367 0.13848,0.004 q 0.0812,0.002 0.13478,-0.0117 0.0546,-0.0151 0.0867,-0.0412 0.0331,-0.0261 0.0477,-0.0622 0.0146,-0.0371 0.0158,-0.0777 0.002,-0.0833 -0.0505,-0.12757 -0.0529,-0.0453 -0.16636,-0.0487 -0.0812,-0.002 -0.1608,0.0109 -0.0796,0.0133 -0.1647,0.0369 l 0.006,-0.21345 q 0.0473,-0.0142 0.0903,-0.0234 0.043,-0.009 0.0859,-0.0152 0.0429,-0.006 0.0867,-0.008 0.0438,-0.002 0.0907,-4.7e-4 0.11245,0.003 0.19609,0.0297 0.0847,0.0264 0.14063,0.0729 0.057,0.0454 0.0843,0.10981 0.0273,0.0644 0.025,0.14246 -0.004,0.1239 -0.0632,0.19928 -0.0584,0.0744 -0.16168,0.11198 0.0653,0.0123 0.11763,0.0399 0.0524,0.0265 0.0887,0.0683 0.0374,0.0407 0.0556,0.0933 0.0193,0.0527 0.0174,0.11619 z"
           style="fill:#2ca05a"
           id="path7255" /></g><g
         id="g104680"
         transform="translate(-0.875,-45.6875)"><path
           d="m 389.79929,444.14582 h 0.56033 v 0.86459 h 0.3516 v 0.21735 h -0.98735 v -0.21735 h 0.35268 v -0.64724 h -0.27726 z m 0.27726,-0.52649 h 0.28307 v 0.33043 h -0.28307 z"
           style="font-weight:bold;font-size:157.584px;line-height:1.55;font-family:monospace;-inkscape-font-specification:'monospace Bold';letter-spacing:0px;word-spacing:0px;fill:#ffab19;stroke-width:0.0103044"
           id="path104502" /><path
           d="m 391.44353,444.25399 q 0.0314,-0.0685 0.081,-0.10141 0.0496,-0.0329 0.12087,-0.0329 0.14008,0 0.19314,0.0966 0.0544,0.0966 0.0544,0.40195 v 0.60947 h -0.23182 v -0.6946 q 0,-0.12074 -0.0181,-0.1613 -0.0181,-0.0405 -0.0665,-0.0405 -0.0483,0 -0.0677,0.0416 -0.0193,0.0416 -0.0193,0.16031 v 0.69458 h -0.22891 v -0.69458 q 0,-0.11881 -0.0193,-0.16031 -0.0193,-0.0416 -0.0677,-0.0416 -0.0483,0 -0.0665,0.0405 -0.0181,0.0405 -0.0181,0.1613 v 0.6946 h -0.23182 v -1.08194 h 0.20571 v 0.11204 q 0.0242,-0.0637 0.0773,-0.10044 0.0532,-0.0377 0.11845,-0.0377 0.0653,0 0.11966,0.0396 0.0544,0.0386 0.0653,0.0945 z"
           style="font-weight:bold;font-size:157.584px;line-height:1.55;font-family:monospace;-inkscape-font-specification:'monospace Bold';letter-spacing:0px;word-spacing:0px;fill:#ffab19;stroke-width:0.0103044"
           id="path104504" /><path
           d="m 392.39498,445.07513 v 0.56414 h -0.2821 v -1.49345 h 0.2821 v 0.16232 q 0.0447,-0.0937 0.11724,-0.14104 0.0725,-0.0474 0.17006,-0.0474 0.18553,0 0.2879,0.14871 0.10273,0.14885 0.10273,0.41933 0,0.27439 -0.10394,0.42122 -0.10274,0.14682 -0.29564,0.14682 -0.087,0 -0.15652,-0.0445 -0.0689,-0.0454 -0.12086,-0.13625 z m 0.39414,-0.38922 q 0,-0.15653 -0.052,-0.24543 -0.052,-0.0889 -0.14395,-0.0889 -0.0919,0 -0.14492,0.0889 -0.0532,0.089 -0.0532,0.24543 0,0.15639 0.0532,0.2453 0.0532,0.089 0.14492,0.089 0.0919,0 0.14395,-0.089 0.052,-0.089 0.052,-0.2453 z"
           style="font-weight:bold;font-size:157.584px;line-height:1.55;font-family:monospace;-inkscape-font-specification:'monospace Bold';letter-spacing:0px;word-spacing:0px;fill:#ffab19;stroke-width:0.0103044"
           id="path104506" /><path
           d="m 393.75423,444.34969 q -0.10153,0 -0.15942,0.0898 -0.058,0.089 -0.058,0.24832 0,0.15942 0.058,0.24921 0.058,0.089 0.15942,0.089 0.10273,0 0.16039,-0.089 0.058,-0.0898 0.058,-0.24921 0,-0.15942 -0.058,-0.24832 -0.058,-0.0898 -0.16039,-0.0898 z m -0.50038,0.33811 q 0,-0.26179 0.13525,-0.41442 0.13621,-0.15362 0.36513,-0.15362 0.22988,0 0.36513,0.15362 0.13621,0.15263 0.13621,0.41442 0,0.26179 -0.13621,0.41542 -0.13525,0.15262 -0.36513,0.15262 -0.22892,0 -0.36513,-0.15262 -0.13525,-0.15363 -0.13525,-0.41542 z"
           style="font-weight:bold;font-size:157.584px;line-height:1.55;font-family:monospace;-inkscape-font-specification:'monospace Bold';letter-spacing:0px;word-spacing:0px;fill:#ffab19;stroke-width:0.0103044"
           id="path104508" /><path
           d="m 395.46217,444.44439 q -0.0459,-0.0426 -0.10878,-0.0638 -0.0616,-0.0213 -0.13621,-0.0213 -0.0894,0 -0.15749,0.032 -0.0665,0.0308 -0.10395,0.0908 -0.023,0.0366 -0.0326,0.089 -0.0121,0.0521 -0.0121,0.15841 v 0.49841 h -0.28306 v -1.08193 h 0.28306 v 0.1681 q 0.0411,-0.0928 0.12752,-0.14293 0.0858,-0.0512 0.20087,-0.0512 0.058,0 0.11241,0.0145 0.0556,0.0134 0.10636,0.0405 z"
           style="font-weight:bold;font-size:157.584px;line-height:1.55;font-family:monospace;-inkscape-font-specification:'monospace Bold';letter-spacing:0px;word-spacing:0px;fill:#ffab19;stroke-width:0.0103044"
           id="path104510" /><path
           d="m 396.20802,443.83869 v 0.30713 h 0.36997 v 0.21735 h -0.36997 v 0.512 q 0,0.0725 0.0351,0.10443 0.035,0.0308 0.11723,0.0308 h 0.21732 v 0.21734 h -0.23762 q -0.24342,0 -0.32948,-0.0772 -0.0858,-0.0783 -0.0858,-0.28887 v -0.49853 h -0.2763 v -0.21735 h 0.2763 v -0.30712 z"
           style="font-weight:bold;font-size:157.584px;line-height:1.55;font-family:monospace;-inkscape-font-specification:'monospace Bold';letter-spacing:0px;word-spacing:0px;fill:#ffab19;stroke-width:0.0103044"
           id="path104512" /><path
           d="m 398.35072,445.07513 v 0.56414 h -0.2821 v -1.49345 h 0.2821 v 0.16232 q 0.0447,-0.0937 0.11723,-0.14104 0.0725,-0.0474 0.17006,-0.0474 0.18541,0 0.2879,0.14871 0.10274,0.14885 0.10274,0.41933 0,0.27439 -0.10395,0.42122 -0.10273,0.14682 -0.29551,0.14682 -0.087,0 -0.15652,-0.0445 -0.0689,-0.0454 -0.12087,-0.13625 z m 0.39414,-0.38922 q 0,-0.15653 -0.052,-0.24543 -0.052,-0.0889 -0.14395,-0.0889 -0.0918,0 -0.14491,0.0889 -0.0532,0.089 -0.0532,0.24543 0,0.15639 0.0532,0.2453 0.0532,0.089 0.14491,0.089 0.0919,0 0.14395,-0.089 0.052,-0.089 0.052,-0.2453 z"
           style="font-weight:bold;font-size:157.584px;line-height:1.55;font-family:monospace;-inkscape-font-specification:'monospace Bold';letter-spacing:0px;word-spacing:0px;fill:#cf63cf;stroke-width:0.0103044"
           id="path104514" /><path
           d="m 399.8017,445.34473 q -0.0568,0.15263 -0.13718,0.22214 -0.0786,0.0705 -0.19327,0.0705 h -0.23375 v -0.21546 h 0.11482 q 0.087,0 0.12751,-0.0298 0.0411,-0.0291 0.0822,-0.13625 l 0.0218,-0.0579 -0.41155,-1.05209 h 0.29745 l 0.24729,0.70227 0.23677,-0.70227 h 0.29757 z"
           style="font-weight:bold;font-size:157.584px;line-height:1.55;font-family:monospace;-inkscape-font-specification:'monospace Bold';letter-spacing:0px;word-spacing:0px;fill:#cf63cf;stroke-width:0.0103044"
           id="path104516" /><path
           d="m 401.4121,444.14582 -0.36417,0.51779 0.39608,0.56415 h -0.33045 l -0.21248,-0.36418 -0.21163,0.36418 h -0.33032 l 0.39994,-0.56415 -0.36804,-0.51779 h 0.33033 l 0.17972,0.32262 0.18058,-0.32262 z"
           style="font-weight:bold;font-size:157.584px;line-height:1.55;font-family:monospace;-inkscape-font-specification:'monospace Bold';letter-spacing:0px;word-spacing:0px;fill:#cf63cf;stroke-width:0.0103044"
           id="path104518" /><path
           d="m 402.56164,445.17462 q -0.0991,0.0407 -0.20087,0.0609 -0.10274,0.0203 -0.21647,0.0203 -0.27146,0 -0.41541,-0.14494 -0.14287,-0.14583 -0.14287,-0.4192 0,-0.26469 0.13815,-0.41832 0.13803,-0.15362 0.37674,-0.15362 0.24052,0 0.37287,0.14292 0.13331,0.14204 0.13331,0.40093 v 0.11495 h -0.73329 q 0,0.12756 0.0749,0.19027 0.0749,0.0628 0.22215,0.0628 0.0979,0 0.19229,-0.0279 0.0943,-0.028 0.19798,-0.0888 z m -0.23955,-0.60859 q 0,-0.11204 -0.058,-0.169 -0.0544,-0.058 -0.16317,-0.058 -0.0979,0 -0.15556,0.06 -0.058,0.059 -0.0689,0.16811 z"
           style="font-weight:bold;font-size:157.584px;line-height:1.55;font-family:monospace;-inkscape-font-specification:'monospace Bold';letter-spacing:0px;word-spacing:0px;fill:#cf63cf;stroke-width:0.0103044"
           id="path104520" /><path
           d="m 403.06202,444.77669 v -0.83474 h -0.28681 v -0.21735 h 0.56988 v 1.05209 q 0,0.12744 0.0399,0.18059 0.0399,0.0532 0.13428,0.0532 h 0.22601 v 0.21734 h -0.30518 q -0.20197,0 -0.28983,-0.10431 -0.0882,-0.10443 -0.0882,-0.3468 z"
           style="font-weight:bold;font-size:157.584px;line-height:1.55;font-family:monospace;-inkscape-font-specification:'monospace Bold';letter-spacing:0px;word-spacing:0px;fill:#cf63cf;stroke-width:0.0103044"
           id="path104522" /><path
           d="m 390.61078,448.28896 q -0.0713,0.0416 -0.15362,0.0618 -0.0822,0.0213 -0.17683,0.0213 -0.25019,0 -0.39124,-0.15073 -0.14105,-0.15061 -0.14105,-0.41731 0,-0.2676 0.14202,-0.41819 0.14202,-0.15175 0.39221,-0.15175 0.087,0 0.16715,0.0203 0.081,0.0203 0.16136,0.0629 v 0.2589 q -0.0616,-0.0532 -0.13622,-0.0812 -0.0737,-0.029 -0.15265,-0.029 -0.13815,0 -0.21248,0.0879 -0.0749,0.0879 -0.0749,0.25021 0,0.16231 0.0749,0.24932 0.0749,0.0869 0.21248,0.0869 0.0822,0 0.15362,-0.0271 0.0713,-0.0279 0.13525,-0.084 z"
           style="font-weight:bold;font-size:157.584px;line-height:1.55;font-family:monospace;-inkscape-font-specification:'monospace Bold';letter-spacing:0px;word-spacing:0px;fill:#ffab19;stroke-width:0.0103044"
           id="path104524" /><path
           d="m 391.1508,447.89293 v -0.83462 h -0.28693 v -0.21734 h 0.57 v 1.05196 q 0,0.12756 0.0399,0.1807 0.0399,0.0532 0.13428,0.0532 h 0.22602 v 0.21734 h -0.30518 q -0.20197,0 -0.28984,-0.10443 -0.0882,-0.1043 -0.0882,-0.34678 z"
           style="font-weight:bold;font-size:157.584px;line-height:1.55;font-family:monospace;-inkscape-font-specification:'monospace Bold';letter-spacing:0px;word-spacing:0px;fill:#ffab19;stroke-width:0.0103044"
           id="path104526" /><path
           d="m 392.64433,447.83589 q -0.15846,0 -0.22131,0.0406 -0.0629,0.0406 -0.0629,0.13902 0,0.0734 0.0435,0.117 0.0435,0.0434 0.11724,0.0434 0.11241,0 0.17393,-0.084 0.0616,-0.0851 0.0616,-0.23674 v -0.0193 z m 0.39402,-0.10902 v 0.61728 h -0.28101 v -0.12074 q -0.0508,0.0716 -0.13138,0.11011 -0.0798,0.0387 -0.17683,0.0387 -0.18456,0 -0.2879,-0.0975 -0.10274,-0.0974 -0.10274,-0.27238 0,-0.18938 0.12268,-0.27917 0.12268,-0.0908 0.37964,-0.0908 h 0.19616 v -0.0474 q 0,-0.0686 -0.0508,-0.10334 -0.0496,-0.0358 -0.14588,-0.0358 -0.10153,0 -0.19701,0.0261 -0.0943,0.0251 -0.1981,0.0812 v -0.24151 q 0.0931,-0.0387 0.19036,-0.0571 0.0967,-0.0184 0.20475,-0.0184 0.26372,0 0.36996,0.10733 0.10757,0.10733 0.10757,0.38355 z"
           style="font-weight:bold;font-size:157.584px;line-height:1.55;font-family:monospace;-inkscape-font-specification:'monospace Bold';letter-spacing:0px;word-spacing:0px;fill:#ffab19;stroke-width:0.0103044"
           id="path104528" /><path
           d="m 394.11646,447.29593 v 0.24731 q -0.0786,-0.0503 -0.16317,-0.0753 -0.0846,-0.0262 -0.16909,-0.0262 -0.0943,0 -0.14298,0.028 -0.0483,0.0271 -0.0483,0.0811 0,0.0774 0.2068,0.12567 l 0.0121,0.002 0.081,0.0192 q 0.15458,0.0367 0.22602,0.11893 0.0725,0.0811 0.0725,0.22024 0,0.16709 -0.10998,0.25109 -0.10878,0.0832 -0.32936,0.0832 -0.0979,0 -0.20003,-0.0174 -0.10273,-0.0163 -0.20765,-0.0503 v -0.24732 q 0.0931,0.0532 0.19025,0.0812 0.0979,0.0279 0.18842,0.0279 0.0991,0 0.15072,-0.029 0.0508,-0.029 0.0508,-0.084 0,-0.0541 -0.0363,-0.0832 -0.0363,-0.029 -0.17199,-0.0619 l -0.0786,-0.0174 q -0.16232,-0.0367 -0.23677,-0.11494 -0.0749,-0.0783 -0.0749,-0.20966 0,-0.15653 0.11241,-0.24342 0.1124,-0.087 0.31787,-0.087 0.0919,0 0.18251,0.0155 0.0918,0.0145 0.17779,0.0445 z"
           style="font-weight:bold;font-size:157.584px;line-height:1.55;font-family:monospace;-inkscape-font-specification:'monospace Bold';letter-spacing:0px;word-spacing:0px;fill:#ffab19;stroke-width:0.0103044"
           id="path104530" /><path
           d="m 395.3077,447.29593 v 0.24731 q -0.0786,-0.0503 -0.16329,-0.0753 -0.0846,-0.0262 -0.16909,-0.0262 -0.0943,0 -0.14298,0.028 -0.0483,0.0271 -0.0483,0.0811 0,0.0774 0.2068,0.12567 l 0.0121,0.002 0.081,0.0192 q 0.15459,0.0367 0.22602,0.11893 0.0725,0.0811 0.0725,0.22024 0,0.16709 -0.10999,0.25109 -0.10878,0.0832 -0.32936,0.0832 -0.0979,0 -0.20003,-0.0174 -0.10273,-0.0163 -0.20764,-0.0503 v -0.24732 q 0.0931,0.0532 0.19036,0.0812 0.0979,0.0279 0.18831,0.0279 0.0991,0 0.15071,-0.029 0.0508,-0.029 0.0508,-0.084 0,-0.0541 -0.0363,-0.0832 -0.0363,-0.029 -0.17199,-0.0619 l -0.0786,-0.0174 q -0.16233,-0.0367 -0.23678,-0.11494 -0.0749,-0.0783 -0.0749,-0.20966 0,-0.15653 0.1124,-0.24342 0.1124,-0.087 0.31787,-0.087 0.0919,0 0.18251,0.0155 0.0919,0.0145 0.17779,0.0445 z"
           style="font-weight:bold;font-size:157.584px;line-height:1.55;font-family:monospace;-inkscape-font-specification:'monospace Bold';letter-spacing:0px;word-spacing:0px;fill:#ffab19;stroke-width:0.0103044"
           id="path104532" /><path
           d="m 396.83785,448.27259 v -0.33042 q 0.0834,0.085 0.17683,0.12944 0.0943,0.0445 0.19024,0.0445 0.1124,0 0.16425,-0.0561 0.052,-0.0561 0.052,-0.17869 v -0.72834 h -0.34881 v -0.25122 h 0.63381 v 0.97956 q 0,0.26369 -0.11119,0.37778 -0.10999,0.11301 -0.36417,0.11301 -0.0918,0 -0.19217,-0.025 -0.0991,-0.0251 -0.201,-0.0744 z"
           style="font-weight:bold;font-size:157.584px;line-height:1.55;font-family:monospace;-inkscape-font-specification:'monospace Bold';letter-spacing:0px;word-spacing:0px;fill:#f8f8f8;stroke-width:0.0103044"
           id="path104534" /><path
           d="m 398.98828,448.29098 q -0.0991,0.0405 -0.201,0.0608 -0.10274,0.0203 -0.21635,0.0203 -0.27146,0 -0.41541,-0.14482 -0.14298,-0.14594 -0.14298,-0.41933 0,-0.26468 0.13814,-0.41831 0.13815,-0.15363 0.37674,-0.15363 0.24064,0 0.37299,0.14306 0.13331,0.14204 0.13331,0.40093 v 0.11482 h -0.73328 q 0,0.12756 0.0749,0.1904 0.0749,0.0627 0.22215,0.0627 0.0979,0 0.1923,-0.0279 0.0943,-0.0279 0.19797,-0.089 z m -0.23956,-0.60859 q 0,-0.11204 -0.058,-0.16912 -0.0544,-0.0579 -0.16329,-0.0579 -0.0979,0 -0.15543,0.0598 -0.058,0.059 -0.0689,0.16811 z"
           style="font-weight:bold;font-size:157.584px;line-height:1.55;font-family:monospace;-inkscape-font-specification:'monospace Bold';letter-spacing:0px;word-spacing:0px;fill:#f8f8f8;stroke-width:0.0103044"
           id="path104536" /><path
           d="m 399.26941,447.96634 v -0.70416 h 0.28306 v 0.66072 q 0,0.11688 0.0326,0.1671 0.0326,0.0503 0.10878,0.0503 0.0761,0 0.11844,-0.0676 0.0435,-0.0676 0.0435,-0.18938 v -0.62105 h 0.28307 v 1.08193 h -0.28307 v -0.16042 q -0.0302,0.0899 -0.10273,0.13914 -0.0713,0.0492 -0.17284,0.0492 -0.15458,0 -0.23387,-0.10237 -0.0786,-0.10238 -0.0786,-0.30335 z"
           style="font-weight:bold;font-size:157.584px;line-height:1.55;font-family:monospace;-inkscape-font-specification:'monospace Bold';letter-spacing:0px;word-spacing:0px;fill:#f8f8f8;stroke-width:0.0103044"
           id="path104538" /><path
           d="m 400.73973,447.31721 h 0.32162 v 0.35259 h -0.32162 z m 0,0.6723 h 0.32162 v 0.3546 h -0.32162 z"
           style="font-weight:bold;font-size:157.584px;line-height:1.55;font-family:monospace;-inkscape-font-specification:'monospace Bold';letter-spacing:0px;word-spacing:0px;fill:#f8f8f8;stroke-width:0.0103044"
           id="path104540" /><path
           d="m 392.7322,450.53205 v -0.57485 h 0.28209 v 1.50315 h -0.28209 v -0.16031 q -0.0459,0.0937 -0.11845,0.14104 -0.0713,0.0474 -0.16909,0.0474 -0.18553,0 -0.2879,-0.14883 -0.10274,-0.14873 -0.10274,-0.41921 0,-0.27439 0.10395,-0.42121 0.10394,-0.14683 0.2966,-0.14683 0.087,0 0.15555,0.0453 0.0689,0.0445 0.12171,0.13437 z m -0.39414,0.39023 q 0,0.15652 0.052,0.24543 0.052,0.089 0.14395,0.089 0.0919,0 0.14491,-0.089 0.0532,-0.089 0.0532,-0.24543 0,-0.15653 -0.0532,-0.24531 -0.0532,-0.0888 -0.14491,-0.0888 -0.0919,0 -0.14395,0.0888 -0.052,0.0888 -0.052,0.24531 z"
           style="font-weight:bold;font-size:157.584px;line-height:1.55;font-family:monospace;-inkscape-font-specification:'monospace Bold';letter-spacing:0px;word-spacing:0px;fill:#ffab19;stroke-width:0.0103044"
           id="path104542" /><path
           d="m 394.22379,451.40722 q -0.0991,0.0405 -0.201,0.0609 -0.10274,0.0203 -0.21635,0.0203 -0.27146,0 -0.41541,-0.14494 -0.14298,-0.14595 -0.14298,-0.41933 0,-0.2647 0.13814,-0.4182 0.13815,-0.15363 0.37674,-0.15363 0.24052,0 0.37287,0.14294 0.13331,0.14204 0.13331,0.40093 v 0.11494 h -0.73316 q 10e-4,0.12756 0.0749,0.19028 0.0749,0.0628 0.22227,0.0628 0.0979,0 0.19218,-0.028 0.0943,-0.0279 0.19809,-0.0888 z m -0.23968,-0.6086 q 0,-0.11204 -0.058,-0.16899 -0.0556,-0.058 -0.16329,-0.058 -0.0979,0 -0.15555,0.06 -0.058,0.059 -0.0689,0.16811 z"
           style="font-weight:bold;font-size:157.584px;line-height:1.55;font-family:monospace;-inkscape-font-specification:'monospace Bold';letter-spacing:0px;word-spacing:0px;fill:#ffab19;stroke-width:0.0103044"
           id="path104544" /><path
           d="m 395.06416,450.28372 v 0.0947 h 0.33238 v 0.21736 h -0.33238 v 0.86459 h -0.28294 v -0.86459 h -0.26289 v -0.21736 h 0.26289 v -0.0753 q 0,-0.19518 0.081,-0.27061 0.081,-0.0753 0.30143,-0.0753 h 0.23279 v 0.21734 h -0.22131 q -0.0641,0 -0.087,0.0232 -0.0217,0.0233 -0.0242,0.0861 z"
           style="font-weight:bold;font-size:157.584px;line-height:1.55;font-family:monospace;-inkscape-font-specification:'monospace Bold';letter-spacing:0px;word-spacing:0px;fill:#ffab19;stroke-width:0.0103044"
           id="path104546" /><path
           d="m 397.9237,451.74342 v 0.1836 h -1.19112 v -0.1836 z"
           style="font-weight:bold;font-size:157.584px;line-height:1.55;font-family:monospace;-inkscape-font-specification:'monospace Bold';letter-spacing:0px;word-spacing:0px;fill:#f8f8f8;stroke-width:0.0103044"
           id="path104548" /><path
           d="m 399.11482,451.74342 v 0.1836 h -1.19112 v -0.1836 z"
           style="font-weight:bold;font-size:157.584px;line-height:1.55;font-family:monospace;-inkscape-font-specification:'monospace Bold';letter-spacing:0px;word-spacing:0px;fill:#f8f8f8;stroke-width:0.0103044"
           id="path104550" /><path
           d="m 399.32827,450.37841 h 0.56033 v 0.8646 h 0.35172 v 0.21734 h -0.98735 v -0.21734 h 0.35256 v -0.64726 h -0.27726 z m 0.27726,-0.52648 h 0.28307 v 0.33042 h -0.28307 z"
           style="font-weight:bold;font-size:157.584px;line-height:1.55;font-family:monospace;-inkscape-font-specification:'monospace Bold';letter-spacing:0px;word-spacing:0px;fill:#f8f8f8;stroke-width:0.0103044"
           id="path104552" /><path
           d="m 401.34055,450.75807 v 0.70228 h -0.28113 v -0.65884 q 0,-0.11784 -0.0338,-0.1681 -0.0326,-0.0511 -0.10757,-0.0511 -0.0761,0 -0.12086,0.0685 -0.0435,0.0686 -0.0435,0.19039 v 0.61916 h -0.28113 v -1.08193 h 0.28113 v 0.16232 q 0.0302,-0.0899 0.10273,-0.13915 0.0725,-0.0492 0.17489,-0.0492 0.15362,0 0.23182,0.10237 0.0786,0.10153 0.0786,0.30336 z"
           style="font-weight:bold;font-size:157.584px;line-height:1.55;font-family:monospace;-inkscape-font-specification:'monospace Bold';letter-spacing:0px;word-spacing:0px;fill:#f8f8f8;stroke-width:0.0103044"
           id="path104554" /><path
           d="m 401.71064,450.37841 h 0.56032 v 0.8646 h 0.3516 v 0.21734 h -0.98734 v -0.21734 h 0.35268 v -0.64726 h -0.27726 z m 0.27726,-0.52648 h 0.28306 v 0.33042 h -0.28306 z"
           style="font-weight:bold;font-size:157.584px;line-height:1.55;font-family:monospace;-inkscape-font-specification:'monospace Bold';letter-spacing:0px;word-spacing:0px;fill:#f8f8f8;stroke-width:0.0103044"
           id="path104556" /><path
           d="m 403.35476,450.07116 v 0.30725 h 0.36997 v 0.21734 h -0.36997 v 0.51201 q 0,0.0724 0.0351,0.10443 0.0363,0.0308 0.11724,0.0308 h 0.21731 v 0.21735 h -0.23762 q -0.24342,0 -0.32935,-0.0772 -0.0858,-0.0783 -0.0858,-0.28887 v -0.49854 h -0.27629 v -0.21734 h 0.27629 v -0.30725 z"
           style="font-weight:bold;font-size:157.584px;line-height:1.55;font-family:monospace;-inkscape-font-specification:'monospace Bold';letter-spacing:0px;word-spacing:0px;fill:#f8f8f8;stroke-width:0.0103044"
           id="path104558" /><path
           d="m 405.07043,451.74342 v 0.1836 h -1.19112 v -0.1836 z"
           style="font-weight:bold;font-size:157.584px;line-height:1.55;font-family:monospace;-inkscape-font-specification:'monospace Bold';letter-spacing:0px;word-spacing:0px;fill:#f8f8f8;stroke-width:0.0103044"
           id="path104560" /><path
           d="m 406.26168,451.74342 v 0.1836 h -1.19125 v -0.1836 z"
           style="font-weight:bold;font-size:157.584px;line-height:1.55;font-family:monospace;-inkscape-font-specification:'monospace Bold';letter-spacing:0px;word-spacing:0px;fill:#f8f8f8;stroke-width:0.0103044"
           id="path104562" /><path
           d="m 407.15426,449.95909 q -0.12751,0.23094 -0.18939,0.44728 -0.0616,0.21646 -0.0616,0.4328 0,0.21444 0.0616,0.4328 0.0616,0.21735 0.18939,0.4493 h -0.22021 q -0.15362,-0.22327 -0.22807,-0.43961 -0.0749,-0.21734 -0.0749,-0.44249 0,-0.22415 0.0749,-0.44149 0.0749,-0.21822 0.22807,-0.43859 z"
           style="font-weight:bold;font-size:157.584px;line-height:1.55;font-family:monospace;-inkscape-font-specification:'monospace Bold';letter-spacing:0px;word-spacing:0px;fill:#f8f8f8;stroke-width:0.0103044"
           id="path104564" /><path
           d="m 408.41005,450.41216 v 0.24731 q -0.0786,-0.0502 -0.16317,-0.0753 -0.0846,-0.0261 -0.16909,-0.0261 -0.0943,0 -0.14298,0.0279 -0.0483,0.0271 -0.0483,0.0812 0,0.0773 0.2068,0.12555 l 0.0121,0.002 0.081,0.0193 q 0.15458,0.0366 0.22602,0.11881 0.0725,0.0812 0.0725,0.22024 0,0.16709 -0.10998,0.25122 -0.10878,0.0831 -0.32936,0.0831 -0.0979,0 -0.20003,-0.0174 -0.10274,-0.0164 -0.20765,-0.0503 v -0.24732 q 0.0931,0.0532 0.19025,0.0811 0.0979,0.028 0.18842,0.028 0.0991,0 0.15072,-0.0291 0.0508,-0.029 0.0508,-0.084 0,-0.0541 -0.0363,-0.0831 -0.0363,-0.029 -0.17199,-0.0619 l -0.0786,-0.0174 q -0.16232,-0.0366 -0.23677,-0.11494 -0.0749,-0.0782 -0.0749,-0.20966 0,-0.1564 0.11241,-0.24341 0.1124,-0.0869 0.31787,-0.0869 0.0919,0 0.18251,0.0155 0.0919,0.0145 0.17779,0.0444 z"
           style="font-weight:bold;font-size:157.584px;line-height:1.55;font-family:monospace;-inkscape-font-specification:'monospace Bold';letter-spacing:0px;word-spacing:0px;fill:#4c97ff;stroke-width:0.0103044"
           id="path104566" /><path
           d="m 409.7085,451.40722 q -0.0991,0.0405 -0.201,0.0609 -0.10273,0.0203 -0.21635,0.0203 -0.27146,0 -0.41541,-0.14494 -0.14298,-0.14595 -0.14298,-0.41933 0,-0.2647 0.13815,-0.4182 0.13815,-0.15363 0.37673,-0.15363 0.24052,0 0.37287,0.14294 0.13331,0.14204 0.13331,0.40093 v 0.11494 h -0.73316 q 10e-4,0.12756 0.0749,0.19028 0.0749,0.0628 0.22227,0.0628 0.0979,0 0.19218,-0.028 0.0943,-0.0279 0.1981,-0.0888 z m -0.23955,-0.6086 q 0,-0.11204 -0.058,-0.16899 -0.0556,-0.058 -0.16329,-0.058 -0.0979,0 -0.15555,0.06 -0.058,0.059 -0.0689,0.16811 z"
           style="font-weight:bold;font-size:157.584px;line-height:1.55;font-family:monospace;-inkscape-font-specification:'monospace Bold';letter-spacing:0px;word-spacing:0px;fill:#4c97ff;stroke-width:0.0103044"
           id="path104568" /><path
           d="m 410.20888,451.00929 v -0.83475 h -0.28693 v -0.21734 h 0.57 v 1.05209 q 0,0.12744 0.0399,0.18057 0.0399,0.0532 0.13428,0.0532 h 0.22602 v 0.21736 h -0.30531 q -0.20184,0 -0.28983,-0.10431 -0.0882,-0.10443 -0.0882,-0.3468 z"
           style="font-weight:bold;font-size:157.584px;line-height:1.55;font-family:monospace;-inkscape-font-specification:'monospace Bold';letter-spacing:0px;word-spacing:0px;fill:#4c97ff;stroke-width:0.0103044"
           id="path104570" /><path
           d="m 411.74012,450.28372 v 0.0947 h 0.33225 v 0.21736 h -0.33225 v 0.86459 h -0.28307 v -0.86459 h -0.26276 v -0.21736 h 0.26276 v -0.0753 q 0,-0.19518 0.081,-0.27061 0.081,-0.0753 0.30144,-0.0753 h 0.23278 v 0.21734 h -0.22118 q -0.0641,0 -0.087,0.0232 -0.0218,0.0233 -0.0242,0.0861 z"
           style="font-weight:bold;font-size:157.584px;line-height:1.55;font-family:monospace;-inkscape-font-specification:'monospace Bold';letter-spacing:0px;word-spacing:0px;fill:#4c97ff;stroke-width:0.0103044"
           id="path104572" /><path
           d="m 412.51583,449.95909 h 0.22021 q 0.15265,0.22037 0.22699,0.43859 0.0749,0.21734 0.0749,0.44149 0,0.22515 -0.0749,0.44249 -0.0749,0.21634 -0.22796,0.43961 h -0.22021 q 0.12751,-0.23195 0.18927,-0.4493 0.0616,-0.21836 0.0616,-0.4328 0,-0.21634 -0.0616,-0.4328 -0.0616,-0.21634 -0.18927,-0.44728 z"
           style="font-weight:bold;font-size:157.584px;line-height:1.55;font-family:monospace;-inkscape-font-specification:'monospace Bold';letter-spacing:0px;word-spacing:0px;fill:#f8f8f8;stroke-width:0.0103044"
           id="path104574" /><path
           d="m 413.8422,450.43344 h 0.32162 v 0.35259 h -0.32162 z m 0,0.67244 h 0.32162 v 0.35447 h -0.32162 z"
           style="font-weight:bold;font-size:157.584px;line-height:1.55;font-family:monospace;-inkscape-font-specification:'monospace Bold';letter-spacing:0px;word-spacing:0px;fill:#f8f8f8;stroke-width:0.0103044"
           id="path104576" /><path
           d="m 394.77735,454.42408 v 0.56415 h -0.2821 v -1.49358 h 0.2821 v 0.16232 q 0.0447,-0.0937 0.11724,-0.14104 0.0725,-0.0474 0.16993,-0.0474 0.18553,0 0.2879,0.14885 0.10274,0.14871 0.10274,0.41919 0,0.27439 -0.10395,0.42122 -0.10273,0.14682 -0.29563,0.14682 -0.087,0 -0.1564,-0.0445 -0.0689,-0.0453 -0.12086,-0.13611 z m 0.39402,-0.38935 q 0,-0.15652 -0.052,-0.24541 -0.052,-0.089 -0.14395,-0.089 -0.0919,0 -0.14492,0.089 -0.0532,0.0889 -0.0532,0.24541 0,0.15653 0.0532,0.24531 0.0532,0.0888 0.14492,0.0888 0.0919,0 0.14395,-0.0888 0.052,-0.0888 0.052,-0.24531 z"
           style="font-size:157.584px;line-height:1.55;letter-spacing:0px;word-spacing:0px;fill:#cf63cf;stroke-width:0.0103044"
           id="path104578" /><path
           d="m 396.22833,454.69356 q -0.0568,0.15263 -0.13718,0.22214 -0.0798,0.0705 -0.19326,0.0705 h -0.23376 v -0.21534 h 0.11482 q 0.087,0 0.12752,-0.03 0.0411,-0.029 0.0822,-0.13625 l 0.0218,-0.0579 -0.41154,-1.05209 h 0.29757 l 0.24728,0.70241 0.23666,-0.70241 h 0.29757 z"
           style="font-size:157.584px;line-height:1.55;letter-spacing:0px;word-spacing:0px;fill:#cf63cf;stroke-width:0.0103044"
           id="path104580" /><path
           d="m 397.83873,453.49465 -0.36428,0.51779 0.39607,0.56427 h -0.33032 l -0.2126,-0.3643 -0.21152,0.3643 h -0.33044 l 0.39994,-0.56427 -0.36803,-0.51779 h 0.33044 l 0.17961,0.32274 0.18069,-0.32274 z"
           style="font-size:157.584px;line-height:1.55;letter-spacing:0px;word-spacing:0px;fill:#cf63cf;stroke-width:0.0103044"
           id="path104582" /><path
           d="m 398.98828,454.52357 q -0.0991,0.0405 -0.201,0.0608 -0.10274,0.0203 -0.21635,0.0203 -0.27146,0 -0.41541,-0.14494 -0.14298,-0.14581 -0.14298,-0.4192 0,-0.26469 0.13814,-0.41831 0.13815,-0.15363 0.37674,-0.15363 0.24064,0 0.37299,0.14304 0.13331,0.14192 0.13331,0.40083 v 0.11494 h -0.73328 q 0,0.12756 0.0749,0.1904 0.0749,0.0627 0.22215,0.0627 0.0979,0 0.1923,-0.0279 0.0943,-0.0281 0.19797,-0.089 z m -0.23956,-0.60859 q 0,-0.11204 -0.058,-0.16912 -0.0544,-0.0579 -0.16329,-0.0579 -0.0979,0 -0.15543,0.0598 -0.058,0.059 -0.0689,0.16811 z"
           style="font-size:157.584px;line-height:1.55;letter-spacing:0px;word-spacing:0px;fill:#cf63cf;stroke-width:0.0103044"
           id="path104584" /><path
           d="m 399.48866,454.12552 v -0.83462 h -0.28694 v -0.21735 h 0.57 v 1.05197 q 0,0.12757 0.0399,0.18071 0.0399,0.0532 0.13428,0.0532 h 0.22602 v 0.21734 h -0.30531 q -0.20184,0 -0.28971,-0.10443 -0.0882,-0.1043 -0.0882,-0.3468 z"
           style="font-size:157.584px;line-height:1.55;letter-spacing:0px;word-spacing:0px;fill:#cf63cf;stroke-width:0.0103044"
           id="path104586" /><path
           d="m 400.73973,454.22211 h 0.32162 v 0.3546 h -0.32162 z"
           style="font-weight:bold;font-size:157.584px;line-height:1.55;font-family:monospace;-inkscape-font-specification:'monospace Bold';letter-spacing:0px;word-spacing:0px;fill:#f8f8f8;stroke-width:0.0103044"
           id="path104588" /><path
           d="m 401.71064,453.49465 h 0.56032 v 0.86471 h 0.3516 v 0.21735 h -0.98734 v -0.21735 h 0.35268 V 453.712 h -0.27726 z m 0.27726,-0.52649 h 0.28306 v 0.33042 h -0.28306 z"
           style="font-weight:bold;font-size:157.584px;line-height:1.55;font-family:monospace;-inkscape-font-specification:'monospace Bold';letter-spacing:0px;word-spacing:0px;fill:#f8f8f8;stroke-width:0.0103044"
           id="path104590" /><path
           d="m 403.72291,453.87431 v 0.7024 h -0.28113 v -0.65883 q 0,-0.11784 -0.0338,-0.16811 -0.0326,-0.0512 -0.10878,-0.0512 -0.0761,0 -0.12086,0.0686 -0.0435,0.0685 -0.0435,0.19028 v 0.61929 h -0.28114 v -1.08207 h 0.28114 v 0.16232 q 0.0302,-0.0898 0.10273,-0.13915 0.0725,-0.0492 0.17489,-0.0492 0.15362,0 0.23182,0.10237 0.0786,0.10153 0.0786,0.30336 z"
           style="font-weight:bold;font-size:157.584px;line-height:1.55;font-family:monospace;-inkscape-font-specification:'monospace Bold';letter-spacing:0px;word-spacing:0px;fill:#f8f8f8;stroke-width:0.0103044"
           id="path104592" /><path
           d="m 404.09288,453.49465 h 0.56033 v 0.86471 h 0.3516 v 0.21735 h -0.98735 v -0.21735 h 0.35268 V 453.712 h -0.27726 z m 0.27726,-0.52649 h 0.28307 v 0.33042 h -0.28307 z"
           style="font-weight:bold;font-size:157.584px;line-height:1.55;font-family:monospace;-inkscape-font-specification:'monospace Bold';letter-spacing:0px;word-spacing:0px;fill:#f8f8f8;stroke-width:0.0103044"
           id="path104594" /><path
           d="m 405.737,453.18752 v 0.30713 h 0.37009 V 453.712 H 405.737 v 0.51199 q 0,0.0725 0.0351,0.10443 0.0363,0.0309 0.11724,0.0309 h 0.21744 v 0.21735 h -0.23762 q -0.24354,0 -0.32948,-0.0773 -0.0858,-0.0783 -0.0858,-0.28887 v -0.49853 h -0.2763 v -0.21735 h 0.2763 v -0.30713 z"
           style="font-weight:bold;font-size:157.584px;line-height:1.55;font-family:monospace;-inkscape-font-specification:'monospace Bold';letter-spacing:0px;word-spacing:0px;fill:#f8f8f8;stroke-width:0.0103044"
           id="path104596" /><path
           d="m 407.15426,453.07545 q -0.12751,0.23082 -0.18939,0.44727 -0.0616,0.21635 -0.0616,0.43281 0,0.21445 0.0616,0.4328 0.0616,0.21734 0.18939,0.44917 h -0.22021 q -0.15362,-0.22314 -0.22807,-0.43961 -0.0749,-0.21734 -0.0749,-0.44236 0,-0.22415 0.0749,-0.44148 0.0749,-0.21836 0.22807,-0.4386 z"
           style="font-weight:bold;font-size:157.584px;line-height:1.55;font-family:monospace;-inkscape-font-specification:'monospace Bold';letter-spacing:0px;word-spacing:0px;fill:#f8f8f8;stroke-width:0.0103044"
           id="path104598" /><path
           d="m 407.63434,454.3255 h 0.31884 v -0.93613 l -0.2966,0.0734 v -0.25689 l 0.29853,-0.0716 h 0.27533 v 1.19111 h 0.31872 v 0.25122 h -0.91482 z"
           style="font-weight:bold;font-size:157.584px;line-height:1.55;font-family:monospace;-inkscape-font-specification:'monospace Bold';letter-spacing:0px;word-spacing:0px;fill:#9966ff;stroke-width:0.0103044"
           id="path104600" /><path
           d="m 409.0632,454.3255 h 0.60759 v 0.25121 H 408.755 v -0.24354 l 0.15458,-0.16421 q 0.27533,-0.29263 0.33419,-0.36026 0.0725,-0.0831 0.10395,-0.14682 0.0314,-0.0647 0.0314,-0.12757 0,-0.0966 -0.0592,-0.14871 -0.058,-0.0532 -0.16522,-0.0532 -0.0761,0 -0.17199,0.0308 -0.0943,0.03 -0.19798,0.0879 v -0.2657 q 0.10274,-0.0376 0.20184,-0.0569 0.0991,-0.0203 0.19037,-0.0203 0.22891,0 0.35933,0.10721 0.13138,0.10624 0.13138,0.29075 0,0.0851 -0.029,0.15942 -0.0278,0.0744 -0.0979,0.16521 -0.0508,0.0657 -0.28113,0.29567 -0.12461,0.12454 -0.19798,0.19896 z"
           style="font-weight:bold;font-size:157.584px;line-height:1.55;font-family:monospace;-inkscape-font-specification:'monospace Bold';letter-spacing:0px;word-spacing:0px;fill:#9966ff;stroke-width:0.0103044"
           id="path104602" /><path
           d="m 410.43006,453.93324 q -0.0955,0 -0.15458,0.0609 -0.0592,0.0598 -0.0592,0.15928 0,0.0996 0.0592,0.16044 0.0592,0.0608 0.15458,0.0608 0.0955,0 0.15459,-0.0619 0.0604,-0.0619 0.0604,-0.15942 0,-0.0995 -0.0592,-0.1593 -0.0592,-0.0609 -0.15556,-0.0609 z m -0.21151,-0.12074 q -0.10878,-0.0377 -0.16619,-0.11785 -0.0568,-0.0811 -0.0568,-0.19795 0,-0.17969 0.11724,-0.28408 0.11724,-0.10431 0.31776,-0.10431 0.20196,0 0.31884,0.10431 0.11724,0.10443 0.11724,0.28408 0,0.11579 -0.0556,0.19707 -0.0556,0.0803 -0.16317,0.11881 0.11966,0.0367 0.18734,0.13147 0.0677,0.0947 0.0677,0.22704 0,0.20765 -0.12268,0.32073 -0.12268,0.11301 -0.34882,0.11301 -0.22505,0 -0.34773,-0.11301 -0.12267,-0.11313 -0.12267,-0.32073 0,-0.13336 0.0689,-0.22805 0.0689,-0.0948 0.19036,-0.13046 z m 0.0302,-0.29265 q 0,0.085 0.0483,0.13524 0.0496,0.0492 0.13332,0.0492 0.0846,0 0.13331,-0.0492 0.0496,-0.0503 0.0496,-0.13524 0,-0.0841 -0.0496,-0.13235 -0.0484,-0.0492 -0.13331,-0.0492 -0.0834,0 -0.13235,0.0492 -0.0496,0.0492 -0.0496,0.13235 z"
           style="font-weight:bold;font-size:157.584px;line-height:1.55;font-family:monospace;-inkscape-font-specification:'monospace Bold';letter-spacing:0px;word-spacing:0px;fill:#9966ff;stroke-width:0.0103044"
           id="path104604" /><path
           d="m 411.47155,454.22211 h 0.30229 v 0.26179 l -0.18928,0.36997 h -0.20873 l 0.0955,-0.36997 z"
           style="font-weight:bold;font-size:157.584px;line-height:1.55;font-family:monospace;-inkscape-font-specification:'monospace Bold';letter-spacing:0px;word-spacing:0px;fill:#f8f8f8;stroke-width:0.0103044"
           id="path104606" /><path
           d="m 413.59007,454.3255 h 0.31872 v -0.93613 l -0.29648,0.0734 v -0.25689 l 0.29842,-0.0716 h 0.27533 v 1.19111 h 0.31884 v 0.25122 h -0.91483 z"
           style="font-weight:bold;font-size:157.584px;line-height:1.55;font-family:monospace;-inkscape-font-specification:'monospace Bold';letter-spacing:0px;word-spacing:0px;fill:#9966ff;stroke-width:0.0103044"
           id="path104608" /><path
           d="m 415.01881,454.3255 h 0.60759 v 0.25121 h -0.91579 v -0.24354 l 0.15459,-0.16421 q 0.27533,-0.29263 0.33431,-0.36026 0.0725,-0.0831 0.10394,-0.14682 0.0314,-0.0647 0.0314,-0.12757 0,-0.0966 -0.0592,-0.14871 -0.058,-0.0532 -0.16522,-0.0532 -0.0761,0 -0.17187,0.0308 -0.0943,0.03 -0.1981,0.0879 v -0.2657 q 0.10274,-0.0376 0.20197,-0.0569 0.0991,-0.0203 0.19024,-0.0203 0.22904,0 0.35933,0.10721 0.1315,0.10624 0.1315,0.29075 0,0.0851 -0.029,0.15942 -0.0278,0.0744 -0.0979,0.16521 -0.0508,0.0657 -0.28101,0.29567 -0.12461,0.12454 -0.19809,0.19896 z"
           style="font-weight:bold;font-size:157.584px;line-height:1.55;font-family:monospace;-inkscape-font-specification:'monospace Bold';letter-spacing:0px;word-spacing:0px;fill:#9966ff;stroke-width:0.0103044"
           id="path104610" /><path
           d="m 416.3858,453.93324 q -0.0955,0 -0.15459,0.0609 -0.0592,0.0598 -0.0592,0.15928 0,0.0996 0.0592,0.16044 0.0592,0.0608 0.15459,0.0608 0.0955,0 0.15458,-0.0619 0.0592,-0.0619 0.0592,-0.15942 0,-0.0995 -0.0592,-0.1593 -0.0592,-0.0609 -0.15555,-0.0609 z m -0.21164,-0.12074 q -0.10878,-0.0377 -0.16607,-0.11785 -0.0568,-0.0811 -0.0568,-0.19795 0,-0.17969 0.11724,-0.28408 0.11723,-0.10431 0.31787,-0.10431 0.20184,0 0.31872,0.10431 0.11724,0.10443 0.11724,0.28408 0,0.11579 -0.0556,0.19707 -0.0556,0.0803 -0.16329,0.11881 0.11966,0.0367 0.18746,0.13147 0.0677,0.0947 0.0677,0.22704 0,0.20765 -0.12268,0.32073 -0.12268,0.11301 -0.34869,0.11301 -0.22518,0 -0.34785,-0.11301 -0.12268,-0.11313 -0.12268,-0.32073 0,-0.13336 0.0689,-0.22805 0.0689,-0.0948 0.19024,-0.13046 z m 0.0302,-0.29265 q 0,0.085 0.0483,0.13524 0.0496,0.0492 0.13332,0.0492 0.0846,0 0.13331,-0.0492 0.0496,-0.0503 0.0496,-0.13524 0,-0.0841 -0.0496,-0.13235 -0.0483,-0.0492 -0.13331,-0.0492 -0.0834,0 -0.13235,0.0492 -0.0496,0.0492 -0.0496,0.13235 z"
           style="font-weight:bold;font-size:157.584px;line-height:1.55;font-family:monospace;-inkscape-font-specification:'monospace Bold';letter-spacing:0px;word-spacing:0px;fill:#9966ff;stroke-width:0.0103044"
           id="path104612" /><path
           d="m 417.28032,453.07545 h 0.22021 q 0.15265,0.22024 0.22711,0.4386 0.0749,0.21733 0.0749,0.44148 0,0.22502 -0.0749,0.44236 -0.0749,0.21647 -0.22808,0.43961 h -0.22021 q 0.12751,-0.23183 0.18939,-0.44917 0.0616,-0.21835 0.0616,-0.4328 0,-0.21646 -0.0616,-0.43281 -0.0616,-0.21645 -0.18939,-0.44727 z"
           style="font-weight:bold;font-size:157.584px;line-height:1.55;font-family:monospace;-inkscape-font-specification:'monospace Bold';letter-spacing:0px;word-spacing:0px;fill:#f8f8f8;stroke-width:0.0103044"
           id="path104614" /><path
           d="m 394.77735,457.54033 v 0.56414 h -0.2821 v -1.49346 h 0.2821 v 0.16231 q 0.0447,-0.0937 0.11724,-0.14104 0.0725,-0.0474 0.16993,-0.0474 0.18553,0 0.2879,0.14872 0.10274,0.14883 0.10274,0.41933 0,0.27425 -0.10395,0.42108 -0.10273,0.14696 -0.29563,0.14696 -0.087,0 -0.1564,-0.0445 -0.0689,-0.0454 -0.12086,-0.13625 z m 0.39402,-0.38937 q 0,-0.15652 -0.052,-0.24529 -0.052,-0.089 -0.14395,-0.089 -0.0919,0 -0.14492,0.089 -0.0532,0.0887 -0.0532,0.24529 0,0.15654 0.0532,0.24543 0.0532,0.089 0.14492,0.089 0.0919,0 0.14395,-0.089 0.052,-0.089 0.052,-0.24543 z"
           style="font-size:157.584px;line-height:1.55;letter-spacing:0px;word-spacing:0px;fill:#cf63cf;stroke-width:0.0103044"
           id="path104616" /><path
           d="m 396.22833,457.8098 q -0.0568,0.15263 -0.13718,0.22226 -0.0798,0.0705 -0.19326,0.0705 h -0.23376 v -0.21545 h 0.11482 q 0.087,0 0.12752,-0.03 0.0411,-0.029 0.0822,-0.13613 l 0.0218,-0.058 -0.41154,-1.05196 h 0.29757 l 0.24728,0.70227 0.23666,-0.70227 h 0.29757 z"
           style="font-size:157.584px;line-height:1.55;letter-spacing:0px;word-spacing:0px;fill:#cf63cf;stroke-width:0.0103044"
           id="path104618" /><path
           d="m 397.83873,456.61101 -0.36428,0.5178 0.39607,0.56414 h -0.33032 l -0.2126,-0.36418 -0.21152,0.36418 h -0.33044 l 0.39994,-0.56414 -0.36803,-0.5178 h 0.33044 l 0.17961,0.32261 0.18069,-0.32261 z"
           style="font-size:157.584px;line-height:1.55;letter-spacing:0px;word-spacing:0px;fill:#cf63cf;stroke-width:0.0103044"
           id="path104620" /><path
           d="m 398.98828,457.6398 q -0.0991,0.0405 -0.201,0.0608 -0.10274,0.0204 -0.21635,0.0204 -0.27146,0 -0.41541,-0.14494 -0.14298,-0.14594 -0.14298,-0.41932 0,-0.26469 0.13814,-0.41819 0.13815,-0.15363 0.37674,-0.15363 0.24064,0 0.37299,0.14292 0.13331,0.14204 0.13331,0.40095 v 0.11494 h -0.73328 q 0,0.12743 0.0749,0.19027 0.0749,0.0628 0.22215,0.0628 0.0979,0 0.1923,-0.028 0.0943,-0.0279 0.19797,-0.089 z m -0.23956,-0.60859 q 0,-0.11204 -0.058,-0.16898 -0.0544,-0.058 -0.16329,-0.058 -0.0979,0 -0.15543,0.06 -0.058,0.059 -0.0689,0.1681 z"
           style="font-size:157.584px;line-height:1.55;letter-spacing:0px;word-spacing:0px;fill:#cf63cf;stroke-width:0.0103044"
           id="path104622" /><path
           d="m 399.48866,457.24176 v -0.83462 h -0.28694 v -0.21734 h 0.57 v 1.05196 q 0,0.12756 0.0399,0.1807 0.0399,0.0532 0.13428,0.0532 h 0.22602 v 0.21734 h -0.30531 q -0.20184,0 -0.28971,-0.1043 -0.0882,-0.10443 -0.0882,-0.34692 z"
           style="font-size:157.584px;line-height:1.55;letter-spacing:0px;word-spacing:0px;fill:#cf63cf;stroke-width:0.0103044"
           id="path104624" /><path
           d="m 400.73973,457.33847 h 0.32162 v 0.35448 h -0.32162 z"
           style="font-weight:bold;font-size:157.584px;line-height:1.55;font-family:monospace;-inkscape-font-specification:'monospace Bold';letter-spacing:0px;word-spacing:0px;fill:#f8f8f8;stroke-width:0.0103044"
           id="path104626" /><path
           d="m 402.60902,456.90945 q -0.0459,-0.0424 -0.10877,-0.0637 -0.0616,-0.0213 -0.13622,-0.0213 -0.0894,0 -0.15749,0.0319 -0.0665,0.0309 -0.10394,0.0909 -0.023,0.0366 -0.0326,0.0887 -0.0121,0.0522 -0.0121,0.15854 v 0.49839 h -0.28307 v -1.08193 h 0.28307 v 0.16811 q 0.0411,-0.0928 0.12751,-0.14305 0.0858,-0.0511 0.201,-0.0511 0.058,0 0.11361,0.0145 0.0556,0.0134 0.10636,0.0405 z"
           style="font-weight:bold;font-size:157.584px;line-height:1.55;font-family:monospace;-inkscape-font-specification:'monospace Bold';letter-spacing:0px;word-spacing:0px;fill:#f8f8f8;stroke-width:0.0103044"
           id="path104628" /><path
           d="m 402.84278,457.31517 v -0.70416 h 0.28306 v 0.66072 q 0,0.117 0.0326,0.1671 0.0326,0.0503 0.10878,0.0503 0.0761,0 0.11845,-0.0676 0.0435,-0.0676 0.0435,-0.18926 v -0.62118 h 0.28307 v 1.08194 h -0.28307 v -0.1603 q -0.0302,0.0898 -0.10273,0.13902 -0.0713,0.0493 -0.17284,0.0493 -0.15459,0 -0.23375,-0.10249 -0.0786,-0.10238 -0.0786,-0.30335 z"
           style="font-weight:bold;font-size:157.584px;line-height:1.55;font-family:monospace;-inkscape-font-specification:'monospace Bold';letter-spacing:0px;word-spacing:0px;fill:#f8f8f8;stroke-width:0.0103044"
           id="path104630" /><path
           d="m 404.91404,456.99067 v 0.70228 h -0.28114 v -0.65884 q 0,-0.11784 -0.0338,-0.16811 -0.0326,-0.0511 -0.10878,-0.0511 -0.0761,0 -0.12086,0.0685 -0.0435,0.0686 -0.0435,0.19039 v 0.61917 h -0.28113 v -1.08193 h 0.28113 v 0.16231 q 0.0302,-0.0899 0.10273,-0.13914 0.0725,-0.0492 0.17489,-0.0492 0.15362,0 0.23182,0.10238 0.0786,0.1014 0.0786,0.30334 z"
           style="font-weight:bold;font-size:157.584px;line-height:1.55;font-family:monospace;-inkscape-font-specification:'monospace Bold';letter-spacing:0px;word-spacing:0px;fill:#f8f8f8;stroke-width:0.0103044"
           id="path104632" /><path
           d="m 405.96314,456.19168 q -0.12751,0.23094 -0.18939,0.44729 -0.0616,0.21645 -0.0616,0.43279 0,0.21445 0.0616,0.43281 0.0616,0.21733 0.18939,0.44917 h -0.22033 q -0.1535,-0.22315 -0.22796,-0.43948 -0.0749,-0.21734 -0.0749,-0.4425 0,-0.22414 0.0749,-0.44148 0.0749,-0.21836 0.22796,-0.4386 z"
           style="font-weight:bold;font-size:157.584px;line-height:1.55;font-family:monospace;-inkscape-font-specification:'monospace Bold';letter-spacing:0px;word-spacing:0px;fill:#f8f8f8;stroke-width:0.0103044"
           id="path104634" /><path
           d="m 407.21893,456.64476 v 0.24731 q -0.0786,-0.0503 -0.16317,-0.0753 -0.0846,-0.0261 -0.16909,-0.0261 -0.0943,0 -0.14298,0.0279 -0.0484,0.0271 -0.0484,0.0812 0,0.0772 0.2068,0.12554 l 0.0121,0.002 0.081,0.0192 q 0.15446,0.0367 0.22601,0.11881 0.0725,0.0811 0.0725,0.22024 0,0.16711 -0.10998,0.25122 -0.10878,0.0832 -0.32936,0.0832 -0.0979,0 -0.20003,-0.0175 -0.10274,-0.0163 -0.20765,-0.0502 v -0.24731 q 0.0931,0.0532 0.19024,0.0811 0.0979,0.028 0.18843,0.028 0.0991,0 0.15072,-0.0291 0.0508,-0.029 0.0508,-0.084 0,-0.0542 -0.0363,-0.0832 -0.0363,-0.029 -0.17199,-0.0619 l -0.0786,-0.0174 q -0.1622,-0.0366 -0.23665,-0.11495 -0.0749,-0.0782 -0.0749,-0.20966 0,-0.1564 0.11241,-0.24341 0.1124,-0.0869 0.31787,-0.0869 0.0919,0 0.18251,0.0154 0.0919,0.0146 0.17779,0.0445 z"
           style="font-weight:bold;font-size:157.584px;line-height:1.55;font-family:monospace;-inkscape-font-specification:'monospace Bold';letter-spacing:0px;word-spacing:0px;fill:#4c97ff;stroke-width:0.0103044"
           id="path104636" /><path
           d="m 408.51738,457.6398 q -0.0991,0.0405 -0.201,0.0608 -0.10274,0.0204 -0.21635,0.0204 -0.27146,0 -0.41541,-0.14494 -0.14298,-0.14594 -0.14298,-0.41932 0,-0.26469 0.13814,-0.41819 0.13815,-0.15363 0.37674,-0.15363 0.24052,0 0.37287,0.14292 0.13331,0.14204 0.13331,0.40095 v 0.11494 h -0.73316 q 10e-4,0.12743 0.0749,0.19027 0.0749,0.0628 0.22227,0.0628 0.0979,0 0.19218,-0.028 0.0943,-0.0279 0.19809,-0.089 z m -0.23956,-0.60859 q 0,-0.11204 -0.058,-0.16898 -0.0556,-0.058 -0.16329,-0.058 -0.0979,0 -0.15555,0.06 -0.058,0.059 -0.0689,0.1681 z"
           style="font-weight:bold;font-size:157.584px;line-height:1.55;font-family:monospace;-inkscape-font-specification:'monospace Bold';letter-spacing:0px;word-spacing:0px;fill:#4c97ff;stroke-width:0.0103044"
           id="path104638" /><path
           d="m 409.01776,457.24176 v -0.83462 h -0.28694 v -0.21734 h 0.57 v 1.05196 q 0,0.12756 0.0399,0.1807 0.0399,0.0532 0.13428,0.0532 h 0.22614 v 0.21734 h -0.30531 q -0.20184,0 -0.28983,-0.1043 -0.0882,-0.10443 -0.0882,-0.34692 z"
           style="font-weight:bold;font-size:157.584px;line-height:1.55;font-family:monospace;-inkscape-font-specification:'monospace Bold';letter-spacing:0px;word-spacing:0px;fill:#4c97ff;stroke-width:0.0103044"
           id="path104640" /><path
           d="m 410.54887,456.51631 v 0.0948 h 0.33238 v 0.21734 h -0.33238 v 0.8646 h -0.28294 v -0.8646 h -0.26276 v -0.21734 h 0.26276 v -0.0754 q 0,-0.19506 0.081,-0.27048 0.081,-0.0753 0.30143,-0.0753 h 0.23279 v 0.21734 h -0.22118 q -0.0641,0 -0.087,0.0232 -0.0217,0.0232 -0.0242,0.0861 z"
           style="font-weight:bold;font-size:157.584px;line-height:1.55;font-family:monospace;-inkscape-font-specification:'monospace Bold';letter-spacing:0px;word-spacing:0px;fill:#4c97ff;stroke-width:0.0103044"
           id="path104642" /><path
           d="m 411.45995,457.33847 h 0.32162 v 0.35448 h -0.32162 z"
           style="font-weight:bold;font-size:157.584px;line-height:1.55;font-family:monospace;-inkscape-font-specification:'monospace Bold';letter-spacing:0px;word-spacing:0px;fill:#f8f8f8;stroke-width:0.0103044"
           id="path104644" /><path
           d="m 412.37188,457.31517 v -0.70416 h 0.28306 v 0.66072 q 0,0.117 0.0326,0.1671 0.0326,0.0503 0.10878,0.0503 0.0761,0 0.11845,-0.0676 0.0435,-0.0676 0.0435,-0.18926 v -0.62118 h 0.28307 v 1.08194 h -0.28307 v -0.1603 q -0.0302,0.0898 -0.10273,0.13902 -0.0713,0.0493 -0.17296,0.0493 -0.15447,0 -0.23375,-0.10249 -0.0786,-0.10238 -0.0786,-0.30335 z"
           style="font-weight:bold;font-size:157.584px;line-height:1.55;font-family:monospace;-inkscape-font-specification:'monospace Bold';letter-spacing:0px;word-spacing:0px;fill:#f8f8f8;stroke-width:0.0103044"
           id="path104646" /><path
           d="m 413.83543,457.54033 v 0.56414 h -0.2821 v -1.49346 h 0.2821 v 0.16231 q 0.0447,-0.0937 0.11724,-0.14104 0.0725,-0.0474 0.17005,-0.0474 0.18541,0 0.2879,0.14872 0.10274,0.14883 0.10274,0.41933 0,0.27425 -0.10395,0.42108 -0.10394,0.14696 -0.29563,0.14696 -0.087,0 -0.15652,-0.0445 -0.0689,-0.0454 -0.12087,-0.13625 z m 0.39414,-0.38937 q 0,-0.15652 -0.052,-0.24529 -0.052,-0.089 -0.14395,-0.089 -0.0919,0 -0.14492,0.089 -0.0532,0.0887 -0.0532,0.24529 0,0.15654 0.0532,0.24543 0.0532,0.089 0.14492,0.089 0.0919,0 0.14395,-0.089 0.052,-0.089 0.052,-0.24543 z"
           style="font-weight:bold;font-size:157.584px;line-height:1.55;font-family:monospace;-inkscape-font-specification:'monospace Bold';letter-spacing:0px;word-spacing:0px;fill:#f8f8f8;stroke-width:0.0103044"
           id="path104648" /><path
           d="m 415.36364,456.76463 v -0.57483 h 0.2821 v 1.50315 h -0.2821 v -0.16031 q -0.0459,0.0937 -0.11845,0.14104 -0.0713,0.0474 -0.16896,0.0474 -0.18553,0 -0.2879,-0.14885 -0.10274,-0.14871 -0.10274,-0.41919 0,-0.27439 0.10394,-0.42122 0.10395,-0.14682 0.29649,-0.14682 0.087,0 0.15555,0.0453 0.0701,0.0445 0.12171,0.13436 z m -0.39414,0.39024 q 0,0.15653 0.052,0.24543 0.052,0.0888 0.14395,0.0888 0.0919,0 0.14492,-0.0888 0.0532,-0.0888 0.0532,-0.24543 0,-0.15652 -0.0532,-0.24542 -0.0532,-0.0888 -0.14492,-0.0888 -0.0918,0 -0.14395,0.0888 -0.052,0.0888 -0.052,0.24542 z"
           style="font-weight:bold;font-size:157.584px;line-height:1.55;font-family:monospace;-inkscape-font-specification:'monospace Bold';letter-spacing:0px;word-spacing:0px;fill:#f8f8f8;stroke-width:0.0103044"
           id="path104650" /><path
           d="m 416.4669,457.18484 q -0.15846,0 -0.22119,0.0405 -0.0628,0.0405 -0.0628,0.13915 0,0.0734 0.0435,0.11688 0.0435,0.0434 0.11845,0.0434 0.11241,0 0.17393,-0.084 0.0616,-0.085 0.0616,-0.23674 v -0.0192 z m 0.39414,-0.10914 v 0.61728 h -0.28114 v -0.12074 q -0.0508,0.0716 -0.13138,0.11023 -0.0798,0.0387 -0.1767,0.0387 -0.18456,0 -0.2879,-0.0975 -0.10274,-0.0975 -0.10274,-0.27251 0,-0.18926 0.12268,-0.27917 0.12268,-0.0908 0.37964,-0.0908 h 0.19604 v -0.0474 q 0,-0.0686 -0.0508,-0.10334 -0.0496,-0.0358 -0.14589,-0.0358 -0.10152,0 -0.19713,0.0262 -0.0943,0.025 -0.19797,0.0811 v -0.24152 q 0.0931,-0.0387 0.19024,-0.0571 0.0967,-0.0183 0.20486,-0.0183 0.26373,0 0.36997,0.10721 0.10757,0.10733 0.10757,0.38356 z"
           style="font-weight:bold;font-size:157.584px;line-height:1.55;font-family:monospace;-inkscape-font-specification:'monospace Bold';letter-spacing:0px;word-spacing:0px;fill:#f8f8f8;stroke-width:0.0103044"
           id="path104652" /><path
           d="m 417.64835,456.30375 v 0.30726 h 0.37009 v 0.21734 h -0.37009 v 0.51201 q 0,0.0724 0.0351,0.10443 0.0363,0.0308 0.11724,0.0308 h 0.21743 v 0.21734 h -0.23774 q -0.24342,0 -0.32935,-0.0774 -0.0858,-0.0782 -0.0858,-0.28873 v -0.49849 h -0.27617 v -0.21733 h 0.27617 v -0.30727 z"
           style="font-weight:bold;font-size:157.584px;line-height:1.55;font-family:monospace;-inkscape-font-specification:'monospace Bold';letter-spacing:0px;word-spacing:0px;fill:#f8f8f8;stroke-width:0.0103044"
           id="path104654" /><path
           d="m 419.23748,457.6398 q -0.0991,0.0405 -0.20088,0.0608 -0.10273,0.0204 -0.21635,0.0204 -0.27146,0 -0.41541,-0.14494 -0.14298,-0.14594 -0.14298,-0.41932 0,-0.26469 0.13815,-0.41819 0.13815,-0.15363 0.37673,-0.15363 0.24052,0 0.37287,0.14292 0.13331,0.14204 0.13331,0.40095 v 0.11494 h -0.73316 q 0.001,0.12743 0.0749,0.19027 0.0749,0.0628 0.22215,0.0628 0.0979,0 0.1923,-0.028 0.0943,-0.0279 0.19798,-0.089 z m -0.23955,-0.60859 q 0,-0.11204 -0.058,-0.16898 -0.0556,-0.058 -0.16329,-0.058 -0.0979,0 -0.15555,0.06 -0.058,0.059 -0.0689,0.1681 z"
           style="font-weight:bold;font-size:157.584px;line-height:1.55;font-family:monospace;-inkscape-font-specification:'monospace Bold';letter-spacing:0px;word-spacing:0px;fill:#f8f8f8;stroke-width:0.0103044"
           id="path104656" /><path
           d="m 419.80941,457.33847 h 0.3024 v 0.2618 l -0.18939,0.36996 h -0.20861 l 0.0955,-0.36996 z"
           style="font-weight:bold;font-size:157.584px;line-height:1.55;font-family:monospace;-inkscape-font-specification:'monospace Bold';letter-spacing:0px;word-spacing:0px;fill:#f8f8f8;stroke-width:0.0103044"
           id="path104658" /><path
           d="m 407.21893,459.76111 v 0.24731 q -0.0786,-0.0503 -0.16317,-0.0754 -0.0846,-0.0261 -0.16909,-0.0261 -0.0943,0 -0.14298,0.028 -0.0484,0.0269 -0.0484,0.0811 0,0.0773 0.2068,0.12555 l 0.0121,0.002 0.081,0.0193 q 0.15446,0.0366 0.22601,0.11881 0.0725,0.0812 0.0725,0.22036 0,0.16711 -0.10998,0.2511 -0.10878,0.0831 -0.32936,0.0831 -0.0979,0 -0.20003,-0.0174 -0.10274,-0.0163 -0.20765,-0.0503 v -0.24732 q 0.0931,0.0532 0.19024,0.0811 0.0979,0.028 0.18843,0.028 0.0991,0 0.15072,-0.029 0.0508,-0.029 0.0508,-0.0841 0,-0.054 -0.0363,-0.083 -0.0363,-0.0291 -0.17199,-0.0619 l -0.0786,-0.0175 q -0.1622,-0.0366 -0.23665,-0.11482 -0.0749,-0.0783 -0.0749,-0.20966 0,-0.15654 0.11241,-0.24341 0.1124,-0.087 0.31787,-0.087 0.0919,0 0.18251,0.0155 0.0919,0.0145 0.17779,0.0445 z"
           style="font-weight:bold;font-size:157.584px;line-height:1.55;font-family:monospace;-inkscape-font-specification:'monospace Bold';letter-spacing:0px;word-spacing:0px;fill:#4c97ff;stroke-width:0.0103044"
           id="path104660" /><path
           d="m 408.51738,460.75617 q -0.0991,0.0405 -0.201,0.0608 -0.10274,0.0203 -0.21635,0.0203 -0.27146,0 -0.41541,-0.14494 -0.14298,-0.14583 -0.14298,-0.4192 0,-0.26469 0.13814,-0.41832 0.13815,-0.15362 0.37674,-0.15362 0.24052,0 0.37287,0.14304 0.13331,0.14192 0.13331,0.40081 v 0.11494 h -0.73316 q 10e-4,0.12756 0.0749,0.19028 0.0749,0.0629 0.22227,0.0629 0.0979,0 0.19218,-0.0279 0.0943,-0.028 0.19809,-0.089 z m -0.23956,-0.60873 q 0,-0.11204 -0.058,-0.16898 -0.0556,-0.0579 -0.16329,-0.0579 -0.0979,0 -0.15555,0.0598 -0.058,0.059 -0.0689,0.16811 z"
           style="font-weight:bold;font-size:157.584px;line-height:1.55;font-family:monospace;-inkscape-font-specification:'monospace Bold';letter-spacing:0px;word-spacing:0px;fill:#4c97ff;stroke-width:0.0103044"
           id="path104662" /><path
           d="m 409.01776,460.35812 v -0.83462 h -0.28694 v -0.21747 h 0.57 v 1.05209 q 0,0.12756 0.0399,0.18057 0.0399,0.0532 0.13428,0.0532 h 0.22614 v 0.21748 h -0.30531 q -0.20184,0 -0.28983,-0.10443 -0.0882,-0.10443 -0.0882,-0.3468 z"
           style="font-weight:bold;font-size:157.584px;line-height:1.55;font-family:monospace;-inkscape-font-specification:'monospace Bold';letter-spacing:0px;word-spacing:0px;fill:#4c97ff;stroke-width:0.0103044"
           id="path104664" /><path
           d="m 410.54887,459.63255 v 0.0948 h 0.33238 v 0.21733 h -0.33238 v 0.86473 h -0.28294 v -0.86473 h -0.26276 v -0.21737 h 0.26276 v -0.0753 q 0,-0.19519 0.081,-0.27049 0.081,-0.0754 0.30143,-0.0754 h 0.23279 v 0.21748 h -0.22118 q -0.0641,0 -0.087,0.0232 -0.0217,0.0232 -0.0242,0.0858 z"
           style="font-weight:bold;font-size:157.584px;line-height:1.55;font-family:monospace;-inkscape-font-specification:'monospace Bold';letter-spacing:0px;word-spacing:0px;fill:#4c97ff;stroke-width:0.0103044"
           id="path104666" /><path
           d="m 411.45995,460.45471 h 0.32162 v 0.35459 h -0.32162 z"
           style="font-weight:bold;font-size:157.584px;line-height:1.55;font-family:monospace;-inkscape-font-specification:'monospace Bold';letter-spacing:0px;word-spacing:0px;fill:#f8f8f8;stroke-width:0.0103044"
           id="path104668" /><path
           d="m 412.9814,459.88086 v -0.57483 h 0.2821 v 1.50327 h -0.2821 v -0.16043 q -0.0459,0.0937 -0.11845,0.14104 -0.0713,0.0474 -0.16909,0.0474 -0.18541,0 -0.28778,-0.14871 -0.10273,-0.14885 -0.10273,-0.41933 0,-0.27439 0.10394,-0.42121 0.10394,-0.14683 0.29648,-0.14683 0.087,0 0.15555,0.0455 0.0701,0.0445 0.12171,0.13423 z m -0.39414,0.39025 q 0,0.15652 0.052,0.24542 0.052,0.089 0.14395,0.089 0.0919,0 0.14492,-0.089 0.0532,-0.089 0.0532,-0.24542 0,-0.1564 -0.0532,-0.24531 -0.0532,-0.089 -0.14492,-0.089 -0.0919,0 -0.14395,0.089 -0.052,0.089 -0.052,0.24531 z"
           style="font-weight:bold;font-size:157.584px;line-height:1.55;font-family:monospace;-inkscape-font-specification:'monospace Bold';letter-spacing:0px;word-spacing:0px;fill:#f8f8f8;stroke-width:0.0103044"
           id="path104670" /><path
           d="m 414.52037,460.0258 q -0.0459,-0.0425 -0.10878,-0.0638 -0.0616,-0.0212 -0.13621,-0.0212 -0.0894,0 -0.15749,0.0319 -0.0665,0.0308 -0.10395,0.0908 -0.023,0.0367 -0.0326,0.089 -0.0121,0.0521 -0.0121,0.15842 v 0.49853 h -0.28307 v -1.08207 h 0.28307 v 0.16811 q 0.0411,-0.0927 0.12751,-0.14292 0.0858,-0.0512 0.201,-0.0512 0.058,0 0.11361,0.0145 0.0556,0.0137 0.10636,0.0405 z"
           style="font-weight:bold;font-size:157.584px;line-height:1.55;font-family:monospace;-inkscape-font-specification:'monospace Bold';letter-spacing:0px;word-spacing:0px;fill:#f8f8f8;stroke-width:0.0103044"
           id="path104672" /><path
           d="m 415.27577,460.30107 q -0.15845,0 -0.22118,0.0405 -0.0629,0.0406 -0.0629,0.13916 0,0.0734 0.0435,0.11687 0.0435,0.0435 0.11845,0.0435 0.1124,0 0.17392,-0.0841 0.0617,-0.085 0.0617,-0.23662 v -0.0193 z m 0.39414,-0.10914 v 0.6174 h -0.28113 v -0.12074 q -0.0508,0.0714 -0.13138,0.11011 -0.0798,0.0387 -0.1767,0.0387 -0.18456,0 -0.2879,-0.0975 -0.10274,-0.0975 -0.10274,-0.27237 0,-0.18938 0.12268,-0.27917 0.12268,-0.0908 0.37964,-0.0908 h 0.19604 v -0.0474 q 0,-0.0687 -0.0508,-0.10334 -0.0496,-0.0358 -0.14589,-0.0358 -0.10152,0 -0.19713,0.0261 -0.0943,0.025 -0.19797,0.0811 v -0.24139 q 0.0931,-0.0387 0.19024,-0.0571 0.0967,-0.0184 0.20486,-0.0184 0.26373,0 0.36997,0.10733 0.10757,0.1072 0.10757,0.38343 z"
           style="font-weight:bold;font-size:157.584px;line-height:1.55;font-family:monospace;-inkscape-font-specification:'monospace Bold';letter-spacing:0px;word-spacing:0px;fill:#f8f8f8;stroke-width:0.0103044"
           id="path104674" /><path
           d="m 415.79066,459.72724 h 0.23568 l 0.1286,0.82896 0.11724,-0.54588 h 0.22892 l 0.11482,0.54588 0.13042,-0.82896 h 0.23568 l -0.19604,1.08206 h -0.26856 l -0.13138,-0.56224 -0.13042,0.56224 h -0.26856 z"
           style="font-weight:bold;font-size:157.584px;line-height:1.55;font-family:monospace;-inkscape-font-specification:'monospace Bold';letter-spacing:0px;word-spacing:0px;fill:#f8f8f8;stroke-width:0.0103044"
           id="path104676" /><path
           d="m 417.28032,459.30804 h 0.22021 q 0.15265,0.22024 0.22711,0.43859 0.0749,0.21735 0.0749,0.4415 0,0.22502 -0.0749,0.44236 -0.0749,0.21647 -0.22808,0.4396 h -0.22021 q 0.12751,-0.23182 0.18939,-0.44917 0.0616,-0.21836 0.0616,-0.43279 0,-0.21647 -0.0616,-0.43281 -0.0616,-0.21646 -0.18939,-0.44728 z"
           style="font-weight:bold;font-size:157.584px;line-height:1.55;font-family:monospace;-inkscape-font-specification:'monospace Bold';letter-spacing:0px;word-spacing:0px;fill:#f8f8f8;stroke-width:0.0103044"
           id="path104678" /></g><path
         id="path104094"
         style="font-size:40px;line-height:1.25;letter-spacing:0px;word-spacing:0px;fill:#ffffff;stroke-width:0.503912;stroke-linecap:round;stroke-dasharray:1.51174, 1.51174;paint-order:fill markers stroke"
         d="m 414.76586,399.94802 a 0.3456967,0.3456967 0 0 1 -0.34568,0.34569 0.3456967,0.3456967 0 0 1 -0.3457,-0.34569 0.3456967,0.3456967 0 0 1 0.3457,-0.3457 0.3456967,0.3456967 0 0 1 0.34568,0.3457 z" /><path
         id="path104705"
         style="font-size:40px;line-height:1.25;letter-spacing:0px;word-spacing:0px;fill:#ffffff;stroke-width:0.343576;stroke-linecap:round;stroke-dasharray:1.03073, 1.03073;paint-order:fill markers stroke"
         d="m 407.48208,401.12877 a 0.23570229,0.2357023 0 0 1 -0.23569,0.2357 0.23570229,0.2357023 0 0 1 -0.23571,-0.2357 0.23570229,0.2357023 0 0 1 0.23571,-0.23571 0.23570229,0.2357023 0 0 1 0.23569,0.23571 z" /></g></g><g
     inkscape:groupmode="layer"
     id="layer2"
     inkscape:label="Yellow"
     style="display:none;opacity:1;filter:url(#filter4059)"
     transform="translate(-382.93713,-385.24051)" /><g
     inkscape:groupmode="layer"
     id="layer3"
     inkscape:label="Magenta"
     style="display:none;opacity:1;filter:url(#filter4075)"
     transform="translate(-382.93713,-385.24051)" /><g
     inkscape:groupmode="layer"
     id="layer4"
     inkscape:label="Cyan"
     style="display:none"
     transform="translate(-382.93713,-385.24051)" /></svg>
