<?xml version="1.0" encoding="UTF-8" standalone="no"?>
<!-- Created with Inkscape (http://www.inkscape.org/) -->

<svg
   width="1000.0002"
   height="1000"
   id="svg2"
   version="1.1"
   inkscape:version="1.2.2 (b0a8486541, 2022-12-01)"
   enable-background="new"
   inkscape:export-filename="NdC-2023-Scratch-Python.png"
   inkscape:export-xdpi="129.01587"
   inkscape:export-ydpi="129.01587"
   sodipodi:docname="2023-NDC-Scratch-Python.svg"
   xml:space="preserve"
   xmlns:inkscape="http://www.inkscape.org/namespaces/inkscape"
   xmlns:sodipodi="http://sodipodi.sourceforge.net/DTD/sodipodi-0.dtd"
   xmlns="http://www.w3.org/2000/svg"
   xmlns:svg="http://www.w3.org/2000/svg"
   xmlns:rdf="http://www.w3.org/1999/02/22-rdf-syntax-ns#"
   xmlns:cc="http://creativecommons.org/ns#"
   xmlns:dc="http://purl.org/dc/elements/1.1/"><defs
     id="defs4"><rect
       x="355.5"
       y="444.6875"
       width="2.0625"
       height="1.625"
       id="rect101811" /><rect
       x="39875"
       y="18437.5"
       width="3987.5"
       height="2614.1243"
       id="rect12427" /><filter
       inkscape:collect="always"
       id="filter4059"><feBlend
         inkscape:collect="always"
         mode="multiply"
         in2="BackgroundImage"
         id="feBlend4061" /></filter><filter
       inkscape:collect="always"
       id="filter4075"><feBlend
         inkscape:collect="always"
         mode="multiply"
         in2="BackgroundImage"
         id="feBlend4077" /></filter><style
       id="style188"><![CDATA[ .sb3-label {
      font: 500 12pt Helevetica Neue, Helvetica, sans-serif;
      fill: #fff;
      word-spacing: +1pt;
    }

    .sb3-motion { fill: #4c97ff; stroke: #3373cc; }
    .sb3-motion-alt { fill: #4280d7; }
    .sb3-motion-dark { fill: #4c97ff; }
    .sb3-looks { fill: #9966ff; stroke: #774dcb; }
    .sb3-looks-alt { fill: #855cd6; }
    .sb3-looks-dark { fill: #bd42bd; }
    .sb3-sound { fill: #cf63cf; stroke: #bd42bd; }
    .sb3-sound-alt { fill: #c94fc9; }
    .sb3-sound-dark { fill: #bd42bd; }
    .sb3-control { fill: #ffab19; stroke: #cf8b17; }
    .sb3-control-alt { fill: #ec9c13; }
    .sb3-control-dark { fill: #cf8b17; }
    .sb3-events { fill: #ffbf00; stroke: #cc9900; }
    .sb3-events-alt { fill: #e6ac00; }
    .sb3-events-dark { fill: #cc9900; }
    .sb3-sensing { fill: #5cb1d6; stroke: #2e8eb8; }
    .sb3-sensing-alt { fill: #47a8d1; }
    .sb3-sensing-dark { fill: #2e8eb8; }
    .sb3-operators { fill: #59c059; stroke: #389438; }
    .sb3-operators-alt { fill: #46b946; }
    .sb3-operators-dark { fill: #389438; }
    .sb3-variables { fill: #ff8c1a; stroke: #db6e00; }
    .sb3-variables-alt { fill: #ff8000; }
    .sb3-variables-dark { fill: #db6e00; }
    .sb3-list { fill: #ff661a; stroke: #e64d00; }
    .sb3-list-alt { fill: #ff5500; }
    .sb3-list-dark { fill: #e64d00; }
    .sb3-custom { fill: #ff6680; stroke: #ff3355; }
    .sb3-custom-alt { fill: #ff4d6a; }
    .sb3-custom-dark { fill: #ff3355; }
    .sb3-custom-arg { fill: #ff6680; stroke: #ff3355; }

    /* extension blocks, e.g. pen */
    .sb3-extension { fill: #0fbd8c; stroke: #0b8e69; }
    .sb3-extension-alt { fill: #0da57a; }
    .sb3-extension-line { stroke: #0da57a; }
    .sb3-extension-dark { fill: #0b8e69; }

    /* obsolete colors: chosen by hand, indicates invalid blocks */
    .sb3-obsolete { fill: #ed4242; stroke: #ca2b2b; }
    .sb3-obsolete-alt { fill: #db3333; }
    .sb3-obsolete-dark { fill: #ca2b2b; }

    /* grey: special color from the Scratch 3.0 design mockups */
    .sb3-grey { fill: #bfbfbf; stroke: #909090; }
    .sb3-grey-alt { fill: #b2b2b2; }
    .sb3-grey-dark { fill: #909090; }

    .sb3-input-color {
      stroke: #fff;
    }

    .sb3-input-number,
    .sb3-input-string {
      fill: #fff;
    }
    .sb3-literal-number,
    .sb3-literal-string,
    .sb3-literal-number-dropdown,
    .sb3-literal-dropdown {
      word-spacing: 0;
    }
    .sb3-literal-number,
    .sb3-literal-string {
      fill: #575e75;
    }

    .sb3-comment {
      fill: #ffffa5;
      stroke: #d0d1d2;
      stroke-width: 1;
    }
    .sb3-comment-line {
      fill: #ffff80;
    }
    .sb3-comment-label {
      font: 400 12pt Helevetica Neue, Helvetica, sans-serif;
      fill: #000;
      word-spacing: 0;
    }

    .sb3-diff {
      fill: none;
      stroke: #000;
    }
    .sb3-diff-ins {
      stroke-width: 2px;
    }
    .sb3-diff-del {
      stroke-width: 3px;
    }
  ]]></style><style
       id="style2">.cls-1,.cls-2{fill:#4cbf56;stroke:#45993d;stroke-linecap:round;stroke-linejoin:round;}.cls-2{stroke-width:1.5px;}</style></defs><sodipodi:namedview
     id="base"
     pagecolor="#ffffff"
     bordercolor="#666666"
     borderopacity="1.0"
     inkscape:pageopacity="0.0"
     inkscape:pageshadow="2"
     inkscape:zoom="0.7071068"
     inkscape:cx="537.40114"
     inkscape:cy="506.28844"
     inkscape:document-units="px"
     inkscape:current-layer="layer1"
     showgrid="false"
     inkscape:window-width="1920"
     inkscape:window-height="1017"
     inkscape:window-x="3832"
     inkscape:window-y="-8"
     inkscape:window-maximized="1"
     showguides="false"
     inkscape:guide-bbox="true"
     inkscape:pagecheckerboard="0"
     inkscape:showpageshadow="false"
     inkscape:deskcolor="#d1d1d1" /><metadata
     id="metadata7"><rdf:RDF><cc:Work
         rdf:about=""><dc:format>image/svg+xml</dc:format><dc:type
           rdf:resource="http://purl.org/dc/dcmitype/StillImage" /><cc:license
           rdf:resource="http://creativecommons.org/licenses/by-nc-sa/4.0/" /></cc:Work><cc:License
         rdf:about="http://creativecommons.org/licenses/by-nc-sa/4.0/"><cc:permits
           rdf:resource="http://creativecommons.org/ns#Reproduction" /><cc:permits
           rdf:resource="http://creativecommons.org/ns#Distribution" /><cc:requires
           rdf:resource="http://creativecommons.org/ns#Notice" /><cc:requires
           rdf:resource="http://creativecommons.org/ns#Attribution" /><cc:prohibits
           rdf:resource="http://creativecommons.org/ns#CommercialUse" /><cc:permits
           rdf:resource="http://creativecommons.org/ns#DerivativeWorks" /><cc:requires
           rdf:resource="http://creativecommons.org/ns#ShareAlike" /></cc:License></rdf:RDF></metadata><g
     inkscape:label="Layer 1"
     inkscape:groupmode="layer"
     id="layer1"
     style="display:inline;opacity:1"
     transform="translate(-287.63059,-385.24051)"><flowRoot
       xml:space="preserve"
       id="flowRoot2492"
       style="font-style:normal;font-weight:normal;font-size:40px;line-height:1.25;font-family:sans-serif;letter-spacing:0px;word-spacing:0px;fill:#000000;fill-opacity:1;stroke:none"><flowRegion
         id="flowRegion2494"><rect
           id="rect2496"
           width="65.760933"
           height="73.185555"
           x="-1029.5475"
           y="1912.5576"
           style="" /></flowRegion><flowPara
         id="flowPara2498" /></flowRoot><flowRoot
       style="font-style:normal;font-weight:normal;font-size:40px;line-height:1.25;font-family:sans-serif;letter-spacing:0px;word-spacing:0px;fill:#000000;fill-opacity:1;stroke:none"
       id="flowRoot1311"
       xml:space="preserve"><flowRegion
         id="flowRegion1313"><rect
           y="5171.2588"
           x="7430.2778"
           height="166.17009"
           width="461.0336"
           id="rect1320"
           style="" /></flowRegion><flowPara
         id="flowPara1322" /></flowRoot><g
       aria-label="d"
       id="text10118"
       style="font-size:135.122px;line-height:1.25;letter-spacing:0px;word-spacing:0px;fill:#1a1a1a;stroke-width:3.37806" /><text
       xml:space="preserve"
       style="font-size:40px;line-height:1.25;font-family:sans-serif;letter-spacing:0px;word-spacing:0px"
       x="3617"
       y="2319.25"
       id="text56748"><tspan
         sodipodi:role="line"
         id="tspan56746"
         x="3617"
         y="2319.25" /></text><use
       href="#sb3-greenFlag"
       transform="translate(6529,3951.25)"
       id="use196"
       x="0"
       y="0"
       width="100%"
       height="100%"
       style="font-size:40px;line-height:1.25;letter-spacing:0px;word-spacing:0px" /><use
       href="#sb3-loopArrow"
       transform="translate(6597,4232.25)"
       id="use216"
       x="0"
       y="0"
       width="100%"
       height="100%"
       style="font-size:40px;line-height:1.25;letter-spacing:0px;word-spacing:0px" /><use
       href="#sb3-dropdownArrow"
       transform="translate(6727,4105.25)"
       id="use252"
       x="0"
       y="0"
       width="100%"
       height="100%"
       style="font-size:40px;line-height:1.25;letter-spacing:0px;word-spacing:0px" /><use
       href="#sb3-dropdownArrow"
       transform="translate(6647,4153.25)"
       id="use270"
       x="0"
       y="0"
       width="100%"
       height="100%"
       style="font-size:40px;line-height:1.25;letter-spacing:0px;word-spacing:0px" /><text
       xml:space="preserve"
       id="text12424"
       style="font-size:40px;line-height:1.25;font-family:sans-serif;letter-spacing:0px;word-spacing:0px;white-space:pre;shape-inside:url(#rect12427);display:inline" /><g
       id="g160861"
       inkscape:export-filename="2023-NDC-scratch-python.png"
       inkscape:export-xdpi="1228.7991"
       inkscape:export-ydpi="1228.7991"
       transform="matrix(24.999996,0,0,24.999996,-6903.137,-9245.775)"><g
         id="g104028"
         transform="translate(0.69342709)"><path
           id="circle16872"
           style="font-size:40px;line-height:1.25;letter-spacing:0px;word-spacing:0px;fill:#261b0c;fill-opacity:1;stroke-width:0.946018;stroke-linecap:round;stroke-dasharray:2.83805, 2.83805;paint-order:fill markers stroke"
           inkscape:transform-center-x="0.080416756"
           inkscape:transform-center-y="-0.024991111"
           d="m 286.96236,406.24112 a 20.000003,20.000003 0 0 1 18.97453,-20.9754 20.000003,20.000003 0 0 1 20.97541,18.97453 20.000003,20.000003 0 0 1 -18.97453,20.9754 20.000003,20.000003 0 0 1 -20.97541,-18.97453 z" /><path
           id="ellipse16884"
           style="font-size:40px;line-height:1.25;letter-spacing:0px;word-spacing:0px;fill:#ffffff;stroke-width:0.343576;stroke-linecap:round;stroke-dasharray:1.03073, 1.03073;paint-order:fill markers stroke"
           d="m 290.1268,409.08437 a 0.23570229,0.2357023 0 0 1 -0.23571,0.23571 0.23570229,0.2357023 0 0 1 -0.23569,-0.23571 0.23570229,0.2357023 0 0 1 0.23569,-0.2357 0.23570229,0.2357023 0 0 1 0.23571,0.2357 z" /><path
           id="circle16886"
           style="font-size:40px;line-height:1.25;letter-spacing:0px;word-spacing:0px;fill:#ffffff;stroke-width:0.503912;stroke-linecap:round;stroke-dasharray:1.51174, 1.51174;paint-order:fill markers stroke"
           d="m 297.23871,396.56868 a 0.3456967,0.3456967 0 0 1 -0.3457,0.3457 0.3456967,0.3456967 0 0 1 -0.34568,-0.3457 0.3456967,0.3456967 0 0 1 0.34568,-0.3457 0.3456967,0.3456967 0 0 1 0.3457,0.3457 z" /><path
           id="circle16888"
           style="font-size:40px;line-height:1.25;letter-spacing:0px;word-spacing:0px;fill:#ffffff;stroke-width:0.503912;stroke-linecap:round;stroke-dasharray:1.51174, 1.51174;paint-order:fill markers stroke"
           d="m 314.43296,416.27138 a 0.3456967,0.3456967 0 0 1 -0.3457,0.3457 0.3456967,0.3456967 0 0 1 -0.34569,-0.3457 0.3456967,0.3456967 0 0 1 0.34569,-0.34569 0.3456967,0.3456967 0 0 1 0.3457,0.34569 z" /><path
           id="circle16890"
           style="font-size:40px;line-height:1.25;letter-spacing:0px;word-spacing:0px;fill:#ffffff;stroke-width:0.503912;stroke-linecap:round;stroke-dasharray:1.51174, 1.51174;paint-order:fill markers stroke"
           d="m 306.62117,390.9045 a 0.3456967,0.3456967 0 0 1 -0.3457,0.34568 0.3456967,0.3456967 0 0 1 -0.3457,-0.34568 0.3456967,0.3456967 0 0 1 0.3457,-0.3457 0.3456967,0.3456967 0 0 1 0.3457,0.3457 z" /><path
           id="ellipse16892"
           style="font-size:40px;line-height:1.25;letter-spacing:0px;word-spacing:0px;fill:#ffffff;stroke-width:0.343576;stroke-linecap:round;stroke-dasharray:1.03073, 1.03073;paint-order:fill markers stroke"
           d="m 302.50003,394.35066 a 0.23570229,0.2357023 0 0 1 -0.23571,0.23569 0.23570229,0.2357023 0 0 1 -0.2357,-0.23569 0.23570229,0.2357023 0 0 1 0.2357,-0.23571 0.23570229,0.2357023 0 0 1 0.23571,0.23571 z" /><path
           id="ellipse16896"
           style="font-size:40px;line-height:1.25;letter-spacing:0px;word-spacing:0px;fill:#ffffff;stroke-width:0.343576;stroke-linecap:round;stroke-dasharray:1.03073, 1.03073;paint-order:fill markers stroke"
           d="m 290.82242,400.7912 a 0.23570229,0.2357023 0 0 1 -0.23571,0.23571 0.23570229,0.2357023 0 0 1 -0.23569,-0.23571 0.23570229,0.2357023 0 0 1 0.23569,-0.23571 0.23570229,0.2357023 0 0 1 0.23571,0.23571 z" /><path
           id="ellipse16898"
           style="font-size:40px;line-height:1.25;letter-spacing:0px;word-spacing:0px;fill:#ffffff;stroke-width:0.343576;stroke-linecap:round;stroke-dasharray:1.03073, 1.03073;paint-order:fill markers stroke"
           d="m 294.77114,417.03081 a 0.23570229,0.2357023 0 0 1 -0.2357,0.2357 0.23570229,0.2357023 0 0 1 -0.23571,-0.2357 0.23570229,0.2357023 0 0 1 0.23571,-0.2357 0.23570229,0.2357023 0 0 1 0.2357,0.2357 z" /><path
           id="circle16900"
           style="font-size:40px;line-height:1.25;letter-spacing:0px;word-spacing:0px;fill:#ffffff;stroke-width:0.503912;stroke-linecap:round;stroke-dasharray:1.51174, 1.51174;paint-order:fill markers stroke"
           d="m 320.14086,415.26052 a 0.3456967,0.3456967 0 0 1 -0.34568,0.34569 0.3456967,0.3456967 0 0 1 -0.3457,-0.34569 0.3456967,0.3456967 0 0 1 0.3457,-0.3457 0.3456967,0.3456967 0 0 1 0.34568,0.3457 z" /><path
           id="ellipse16902"
           style="font-size:40px;line-height:1.25;letter-spacing:0px;word-spacing:0px;fill:#ffffff;stroke-width:0.343576;stroke-linecap:round;stroke-dasharray:1.03073, 1.03073;paint-order:fill markers stroke"
           d="m 323.54458,406.12877 a 0.23570229,0.2357023 0 0 1 -0.23569,0.2357 0.23570229,0.2357023 0 0 1 -0.23571,-0.2357 0.23570229,0.2357023 0 0 1 0.23571,-0.23571 0.23570229,0.2357023 0 0 1 0.23569,0.23571 z" /><path
           id="path16904"
           style="font-size:40px;line-height:1.25;letter-spacing:0px;word-spacing:0px;fill:#ffffff;fill-opacity:1;stroke-width:0.757785;stroke-linecap:round;stroke-dasharray:2.27336, 2.27336;paint-order:fill markers stroke"
           d="m 311.24714,390.13933 a 3.355467,3.3554673 0 0 0 -1.91772,3.02829 3.355467,3.3554673 0 0 0 3.35542,3.35556 3.355467,3.3554673 0 0 0 3.22848,-2.45104 3.1111114,3.1111114 0 0 1 -1.96426,0.7052 3.1111114,3.1111114 0 0 1 -3.11115,-3.11111 3.1111114,3.1111114 0 0 1 0.40923,-1.5269 z" /><path
           id="circle16906"
           style="font-size:40px;line-height:1.25;letter-spacing:0px;word-spacing:0px;fill:#ffffff;stroke-width:0.503912;stroke-linecap:round;stroke-dasharray:1.51174, 1.51174;paint-order:fill markers stroke"
           d="m 320.05789,394.10011 a 0.3456967,0.3456967 0 0 1 -0.3457,0.3457 0.3456967,0.3456967 0 0 1 -0.3457,-0.3457 0.3456967,0.3456967 0 0 1 0.3457,-0.3457 0.3456967,0.3456967 0 0 1 0.3457,0.3457 z" /><path
           id="ellipse16910"
           style="font-size:40px;line-height:1.25;letter-spacing:0px;word-spacing:0px;fill:#ffffff;stroke-width:0.343576;stroke-linecap:round;stroke-dasharray:1.03073, 1.03073;paint-order:fill markers stroke"
           d="m 309.75897,418.67387 a 0.23570229,0.2357023 0 0 1 -0.23571,0.23569 0.23570229,0.2357023 0 0 1 -0.23571,-0.23569 0.23570229,0.2357023 0 0 1 0.23571,-0.23571 0.23570229,0.2357023 0 0 1 0.23571,0.23571 z" /><path
           id="circle16912"
           style="font-size:40px;line-height:1.25;letter-spacing:0px;word-spacing:0px;fill:#ffffff;stroke-width:0.503912;stroke-linecap:round;stroke-dasharray:1.51174, 1.51174;paint-order:fill markers stroke"
           d="m 301.76761,416.80576 a 0.3456967,0.3456967 0 0 1 -0.3457,0.34568 0.3456967,0.3456967 0 0 1 -0.3457,-0.34568 0.3456967,0.3456967 0 0 1 0.3457,-0.3457 0.3456967,0.3456967 0 0 1 0.3457,0.3457 z" /><path
           id="ellipse16914"
           style="font-size:40px;line-height:1.25;letter-spacing:0px;word-spacing:0px;fill:#ffffff;stroke-width:0.343576;stroke-linecap:round;stroke-dasharray:1.03073, 1.03073;paint-order:fill markers stroke"
           d="m 307.7344,397.11197 a 0.23570229,0.2357023 0 0 1 -0.2357,0.2357 0.23570229,0.2357023 0 0 1 -0.2357,-0.2357 0.23570229,0.2357023 0 0 1 0.2357,-0.2357 0.23570229,0.2357023 0 0 1 0.2357,0.2357 z" /><path
           id="circle16894"
           style="font-size:40px;line-height:1.25;letter-spacing:0px;word-spacing:0px;fill:#ffffff;stroke-width:0.503912;stroke-linecap:round;stroke-dasharray:1.51174, 1.51174;paint-order:fill markers stroke"
           d="m 295.42903,412.5868 a 0.3456967,0.3456967 0 0 1 -0.34568,0.34569 0.3456967,0.3456967 0 0 1 -0.3457,-0.34569 0.3456967,0.3456967 0 0 1 0.3457,-0.3457 0.3456967,0.3456967 0 0 1 0.34568,0.3457 z" /><g
           aria-label="www.nuitducode.net"
           id="text71505"
           style="font-size:1.30378px;font-family:'Source Code Pro';-inkscape-font-specification:'Source Code Pro';fill:#ffffff;stroke-width:0.244458"><path
             d="m 300.07554,421.15628 -0.1382,-0.63364 h 0.10691 l 0.0756,0.36767 q 0.009,0.0456 0.0156,0.0874 0.007,0.0417 0.013,0.0874 h 0.005 q 0.007,-0.0456 0.0156,-0.0874 0.0104,-0.043 0.0209,-0.0874 l 0.0782,-0.32855 h 0.10691 l 0.0756,0.32855 q 0.0104,0.0456 0.0209,0.0874 0.0117,0.0417 0.0183,0.0874 h 0.005 q 0.008,-0.0456 0.013,-0.0874 0.007,-0.0417 0.0156,-0.0874 l 0.0756,-0.36767 h 0.0991 l -0.13559,0.63364 h -0.13821 l -0.073,-0.30248 q -0.0156,-0.0665 -0.0313,-0.18774 h -0.005 q -0.0157,0.12125 -0.0313,0.18774 l -0.0704,0.30248 z"
             id="path4919" /><path
             d="m 300.85781,421.15628 -0.1382,-0.63364 h 0.10691 l 0.0756,0.36767 q 0.009,0.0456 0.0156,0.0874 0.007,0.0417 0.013,0.0874 h 0.005 q 0.007,-0.0456 0.0156,-0.0874 0.0104,-0.043 0.0209,-0.0874 l 0.0782,-0.32855 h 0.10691 l 0.0756,0.32855 q 0.0104,0.0456 0.0209,0.0874 0.0117,0.0417 0.0182,0.0874 h 0.005 q 0.008,-0.0456 0.013,-0.0874 0.007,-0.0417 0.0156,-0.0874 l 0.0756,-0.36767 h 0.0991 l -0.1356,0.63364 h -0.1382 l -0.073,-0.30248 q -0.0156,-0.0665 -0.0313,-0.18774 h -0.005 q -0.0156,0.12125 -0.0313,0.18774 l -0.0704,0.30248 z"
             id="path4921" /><path
             d="m 301.64008,421.15628 -0.1382,-0.63364 h 0.10691 l 0.0756,0.36767 q 0.009,0.0456 0.0156,0.0874 0.007,0.0417 0.013,0.0874 h 0.005 q 0.007,-0.0456 0.0156,-0.0874 0.0104,-0.043 0.0209,-0.0874 l 0.0782,-0.32855 h 0.10691 l 0.0756,0.32855 q 0.0104,0.0456 0.0209,0.0874 0.0117,0.0417 0.0183,0.0874 h 0.005 q 0.008,-0.0456 0.013,-0.0874 0.007,-0.0417 0.0156,-0.0874 l 0.0756,-0.36767 h 0.0991 l -0.1356,0.63364 h -0.1382 l -0.073,-0.30248 q -0.0156,-0.0665 -0.0313,-0.18774 h -0.005 q -0.0156,0.12125 -0.0313,0.18774 l -0.0704,0.30248 z"
             id="path4923" /><path
             d="m 302.66485,421.17193 q -0.0443,0 -0.0756,-0.03 -0.03,-0.03 -0.03,-0.0795 0,-0.0496 0.03,-0.0795 0.0313,-0.0313 0.0756,-0.0313 0.0443,0 0.0743,0.0313 0.0313,0.03 0.0313,0.0795 0,0.0495 -0.0313,0.0795 -0.03,0.03 -0.0743,0.03 z"
             id="path4925" /><path
             d="m 303.17724,421.15628 v -0.63364 h 0.0887 l 0.009,0.10822 h 0.005 q 0.0496,-0.0535 0.10691,-0.0887 0.0574,-0.0352 0.13169,-0.0352 0.11343,0 0.16558,0.0652 0.0534,0.0639 0.0534,0.19035 v 0.39374 h -0.10691 v -0.3794 q 0,-0.09 -0.0339,-0.13299 -0.0339,-0.0443 -0.11212,-0.0443 -0.0287,0 -0.0535,0.008 -0.0235,0.007 -0.0469,0.0209 -0.0235,0.0143 -0.0482,0.0365 -0.0248,0.0209 -0.0521,0.0495 v 0.44198 z"
             id="path4927" /><path
             d="m 304.15898,421.17193 q -0.11473,0 -0.16818,-0.0639 -0.0522,-0.0652 -0.0522,-0.19165 v -0.39375 h 0.10822 v 0.3794 q 0,0.09 0.0326,0.13429 0.0339,0.043 0.11343,0.043 0.0548,0 0.0991,-0.0274 0.0443,-0.0287 0.0978,-0.09 v -0.43938 h 0.10691 v 0.63364 h -0.0874 l -0.009,-0.11082 h -0.005 q -0.0482,0.0561 -0.10561,0.0913 -0.0561,0.0352 -0.13038,0.0352 z"
             id="path4929" /><path
             d="M 305.03252,421.15628 V 420.61 h -0.29466 v -0.0874 h 0.40157 v 0.63364 z m 0.0417,-0.76662 q -0.0365,0 -0.0613,-0.0222 -0.0248,-0.0235 -0.0248,-0.0613 0,-0.0378 0.0248,-0.06 0.0248,-0.0235 0.0613,-0.0235 0.0365,0 0.0613,0.0235 0.0248,0.0222 0.0248,0.06 0,0.0378 -0.0248,0.0613 -0.0248,0.0222 -0.0613,0.0222 z"
             id="path4931" /><path
             d="m 305.91648,421.17193 q -0.0691,0 -0.11604,-0.0183 -0.0469,-0.0195 -0.0756,-0.0534 -0.0287,-0.0352 -0.0417,-0.0834 -0.0117,-0.0482 -0.0117,-0.10691 V 420.61 h -0.17862 v -0.0808 l 0.18253,-0.007 0.0143,-0.20339 h 0.0887 v 0.20339 h 0.3116 v 0.0874 h -0.3116 v 0.30117 q 0,0.043 0.008,0.0756 0.008,0.0313 0.0261,0.0534 0.0182,0.0222 0.0495,0.0339 0.0313,0.0104 0.0769,0.0104 0.0456,0 0.0821,-0.008 0.0365,-0.008 0.0704,-0.0209 l 0.0235,0.0782 q -0.043,0.0156 -0.0913,0.0261 -0.0469,0.0117 -0.10691,0.0117 z"
             id="path4933" /><path
             d="m 306.53838,421.17193 q -0.0626,0 -0.11343,-0.0222 -0.0495,-0.0222 -0.0861,-0.0639 -0.0365,-0.043 -0.0561,-0.10431 -0.0196,-0.0613 -0.0196,-0.1408 0,-0.0769 0.0235,-0.1382 0.0248,-0.0626 0.0639,-0.10561 0.0404,-0.043 0.0926,-0.0665 0.0521,-0.0235 0.10821,-0.0235 0.0574,0 0.1017,0.0222 0.0456,0.0209 0.0874,0.06 h 0.004 l -0.005,-0.11734 v -0.24381 h 0.10691 v 0.92829 h -0.0886 l -0.009,-0.0834 h -0.004 q -0.0391,0.0404 -0.0939,0.0704 -0.0535,0.0287 -0.11213,0.0287 z m 0.0222,-0.09 q 0.0939,0 0.17861,-0.0952 v -0.31552 q -0.043,-0.0404 -0.0847,-0.0574 -0.0404,-0.0169 -0.0821,-0.0169 -0.0417,0 -0.0782,0.0182 -0.0352,0.017 -0.0626,0.0496 -0.0261,0.0313 -0.0417,0.0756 -0.0156,0.0443 -0.0156,0.0991 0,0.11473 0.0482,0.17862 0.0495,0.0639 0.1382,0.0639 z"
             id="path4935" /><path
             d="m 307.28806,421.17193 q -0.11474,0 -0.16819,-0.0639 -0.0521,-0.0652 -0.0521,-0.19165 v -0.39375 h 0.10821 v 0.3794 q 0,0.09 0.0326,0.13429 0.0339,0.043 0.11342,0.043 0.0548,0 0.0991,-0.0274 0.0443,-0.0287 0.0978,-0.09 v -0.43938 h 0.10691 v 0.63364 h -0.0874 l -0.009,-0.11082 h -0.005 q -0.0482,0.0561 -0.10561,0.0913 -0.0561,0.0352 -0.13037,0.0352 z"
             id="path4937" /><path
             d="m 308.2007,421.17193 q -0.0743,0 -0.1382,-0.0222 -0.0626,-0.0222 -0.10952,-0.0639 -0.0469,-0.043 -0.073,-0.10431 -0.0261,-0.0626 -0.0261,-0.1408 0,-0.0795 0.0274,-0.14081 0.0287,-0.0626 0.0769,-0.10561 0.0482,-0.043 0.11213,-0.0652 0.0652,-0.0222 0.13689,-0.0222 0.0782,0 0.13429,0.0274 0.0574,0.0274 0.0965,0.0652 l -0.0534,0.0691 q -0.0391,-0.0339 -0.0821,-0.0535 -0.0417,-0.0195 -0.0913,-0.0195 -0.0548,0 -0.10039,0.0182 -0.0456,0.017 -0.0782,0.0495 -0.0313,0.0326 -0.0495,0.0782 -0.0183,0.0443 -0.0183,0.0991 0,0.0547 0.017,0.0991 0.0182,0.0443 0.0495,0.0769 0.0326,0.0313 0.0769,0.0495 0.0456,0.017 0.1004,0.017 0.0587,0 0.10691,-0.0222 0.0495,-0.0235 0.0886,-0.0574 l 0.0482,0.0691 q -0.0534,0.0469 -0.11734,0.073 -0.0639,0.0261 -0.13429,0.0261 z"
             id="path4939" /><path
             d="m 308.923,421.17193 q -0.0626,0 -0.11995,-0.0222 -0.0561,-0.0222 -0.0991,-0.0639 -0.043,-0.043 -0.0691,-0.10431 -0.0248,-0.0626 -0.0248,-0.1408 0,-0.0795 0.0248,-0.14081 0.0261,-0.0626 0.0691,-0.10561 0.043,-0.043 0.0991,-0.0652 0.0574,-0.0222 0.11995,-0.0222 0.0626,0 0.11864,0.0222 0.0574,0.0222 0.10039,0.0652 0.043,0.043 0.0678,0.10561 0.0261,0.0613 0.0261,0.14081 0,0.0782 -0.0261,0.1408 -0.0248,0.0613 -0.0678,0.10431 -0.043,0.0417 -0.10039,0.0639 -0.0561,0.0222 -0.11864,0.0222 z m 0,-0.0887 q 0.0456,0 0.0821,-0.017 0.0378,-0.0183 0.0639,-0.0495 0.0274,-0.0326 0.0417,-0.0769 0.0143,-0.0443 0.0143,-0.0991 0,-0.0548 -0.0143,-0.0991 -0.0143,-0.0456 -0.0417,-0.0782 -0.0261,-0.0326 -0.0639,-0.0495 -0.0365,-0.0182 -0.0821,-0.0182 -0.0456,0 -0.0834,0.0182 -0.0365,0.017 -0.0639,0.0495 -0.0261,0.0326 -0.0404,0.0782 -0.0143,0.0443 -0.0143,0.0991 0,0.0547 0.0143,0.0991 0.0143,0.0443 0.0404,0.0769 0.0274,0.0313 0.0639,0.0495 0.0378,0.017 0.0834,0.017 z"
             id="path4941" /><path
             d="m 309.66746,421.17193 q -0.0626,0 -0.11343,-0.0222 -0.0496,-0.0222 -0.0861,-0.0639 -0.0365,-0.043 -0.0561,-0.10431 -0.0196,-0.0613 -0.0196,-0.1408 0,-0.0769 0.0235,-0.1382 0.0248,-0.0626 0.0639,-0.10561 0.0404,-0.043 0.0926,-0.0665 0.0522,-0.0235 0.10821,-0.0235 0.0574,0 0.1017,0.0222 0.0456,0.0209 0.0873,0.06 h 0.004 l -0.005,-0.11734 v -0.24381 h 0.10691 v 0.92829 h -0.0887 l -0.009,-0.0834 h -0.004 q -0.0391,0.0404 -0.0939,0.0704 -0.0534,0.0287 -0.11212,0.0287 z m 0.0222,-0.09 q 0.0939,0 0.17862,-0.0952 v -0.31552 q -0.043,-0.0404 -0.0848,-0.0574 -0.0404,-0.0169 -0.0821,-0.0169 -0.0417,0 -0.0782,0.0182 -0.0352,0.017 -0.0626,0.0496 -0.0261,0.0313 -0.0417,0.0756 -0.0156,0.0443 -0.0156,0.0991 0,0.11473 0.0482,0.17862 0.0495,0.0639 0.1382,0.0639 z"
             id="path4943" /><path
             d="m 310.52665,421.17193 q -0.0717,0 -0.13429,-0.0222 -0.0613,-0.0222 -0.10822,-0.0652 -0.0456,-0.043 -0.073,-0.1043 -0.0261,-0.0626 -0.0261,-0.14211 0,-0.0769 0.0261,-0.1382 0.0274,-0.0613 0.0717,-0.1043 0.0456,-0.043 0.103,-0.0652 0.0587,-0.0235 0.12255,-0.0235 0.0678,0 0.12126,0.0222 0.0548,0.0209 0.0913,0.06 0.0378,0.0391 0.0574,0.0939 0.0195,0.0548 0.0195,0.12125 0,0.0183 -0.001,0.0352 -0.001,0.017 -0.004,0.03 h -0.49935 q 0.0104,0.10821 0.0782,0.16297 0.0691,0.0535 0.16819,0.0535 0.0574,0 0.10299,-0.0156 0.0469,-0.017 0.09,-0.0443 l 0.0391,0.0704 q -0.0469,0.0313 -0.10822,0.0534 -0.06,0.0222 -0.13689,0.0222 z m -0.0156,-0.58019 q -0.0391,0 -0.0756,0.013 -0.0352,0.013 -0.0639,0.0378 -0.0287,0.0235 -0.0482,0.06 -0.0196,0.0365 -0.0274,0.0834 h 0.40417 q -0.007,-0.0978 -0.0574,-0.14603 -0.0495,-0.0482 -0.13168,-0.0482 z"
             id="path4945" /><path
             d="m 311.2698,421.17193 q -0.0443,0 -0.0756,-0.03 -0.03,-0.03 -0.03,-0.0795 0,-0.0496 0.03,-0.0795 0.0313,-0.0313 0.0756,-0.0313 0.0443,0 0.0743,0.0313 0.0313,0.03 0.0313,0.0795 0,0.0495 -0.0313,0.0795 -0.03,0.03 -0.0743,0.03 z"
             id="path4947" /><path
             d="m 311.78219,421.15628 v -0.63364 h 0.0887 l 0.009,0.10822 h 0.005 q 0.0495,-0.0535 0.10691,-0.0887 0.0574,-0.0352 0.13168,-0.0352 0.11343,0 0.16558,0.0652 0.0534,0.0639 0.0534,0.19035 v 0.39374 h -0.10691 v -0.3794 q 0,-0.09 -0.0339,-0.13299 -0.0339,-0.0443 -0.11213,-0.0443 -0.0287,0 -0.0534,0.008 -0.0235,0.007 -0.0469,0.0209 -0.0235,0.0143 -0.0482,0.0365 -0.0248,0.0209 -0.0522,0.0495 v 0.44198 z"
             id="path4949" /><path
             d="m 312.87345,421.17193 q -0.0717,0 -0.13429,-0.0222 -0.0613,-0.0222 -0.10821,-0.0652 -0.0456,-0.043 -0.073,-0.1043 -0.0261,-0.0626 -0.0261,-0.14211 0,-0.0769 0.0261,-0.1382 0.0274,-0.0613 0.0717,-0.1043 0.0456,-0.043 0.10299,-0.0652 0.0587,-0.0235 0.12256,-0.0235 0.0678,0 0.12125,0.0222 0.0548,0.0209 0.0913,0.06 0.0378,0.0391 0.0574,0.0939 0.0196,0.0548 0.0196,0.12125 0,0.0183 -0.001,0.0352 -0.001,0.017 -0.004,0.03 h -0.49934 q 0.0104,0.10821 0.0782,0.16297 0.0691,0.0535 0.16819,0.0535 0.0574,0 0.103,-0.0156 0.0469,-0.017 0.09,-0.0443 l 0.0391,0.0704 q -0.0469,0.0313 -0.10821,0.0534 -0.06,0.0222 -0.1369,0.0222 z m -0.0156,-0.58019 q -0.0391,0 -0.0756,0.013 -0.0352,0.013 -0.0639,0.0378 -0.0287,0.0235 -0.0482,0.06 -0.0195,0.0365 -0.0274,0.0834 h 0.40418 q -0.007,-0.0978 -0.0574,-0.14603 -0.0495,-0.0482 -0.13168,-0.0482 z"
             id="path4951" /><path
             d="m 313.73916,421.17193 q -0.0691,0 -0.11603,-0.0183 -0.0469,-0.0195 -0.0756,-0.0534 -0.0287,-0.0352 -0.0417,-0.0834 -0.0117,-0.0482 -0.0117,-0.10691 V 420.61 h -0.17861 v -0.0808 l 0.18252,-0.007 0.0144,-0.20339 h 0.0886 v 0.20339 h 0.31161 v 0.0874 h -0.31161 v 0.30117 q 0,0.043 0.008,0.0756 0.008,0.0313 0.0261,0.0534 0.0183,0.0222 0.0495,0.0339 0.0313,0.0104 0.0769,0.0104 0.0456,0 0.0821,-0.008 0.0365,-0.008 0.0704,-0.0209 l 0.0235,0.0782 q -0.043,0.0156 -0.0913,0.0261 -0.0469,0.0117 -0.10691,0.0117 z"
             id="path4953" /></g><path
           id="path98066"
           style="font-size:40px;line-height:1.25;letter-spacing:0px;word-spacing:0px;fill:none;fill-opacity:1;stroke:none;stroke-width:0.114365;stroke-linecap:round;stroke-dasharray:none;stroke-opacity:1;paint-order:fill markers stroke"
           inkscape:transform-center-x="0.049183981"
           inkscape:transform-center-y="-0.051662531"
           d="m 291.74503,397.74138 a 16.942423,16.942423 0 0 1 22.69159,-7.69305 16.942423,16.942423 0 0 1 7.69306,22.69161 16.942423,16.942423 0 0 1 -22.69161,7.69304 16.942423,16.942423 0 0 1 -7.69304,-22.6916 z" /><g
           aria-label="nuit du c0de 2023"
           id="text98064"
           style="font-size:2.13333px;font-family:'Source Code Pro';-inkscape-font-specification:'Source Code Pro';fill:#e3342f;stroke-width:1.49626"><path
             d="m 292.10328,397.05273 -0.6076,-0.3261 q -0.15328,-0.0823 -0.21436,0.0315 -0.0305,0.0569 -0.0127,0.13386 0.0183,0.076 0.0662,0.17621 l 0.59016,0.31674 -0.12019,0.22395 -0.93252,-0.50048 0.10394,-0.19366 0.14063,0.0684 q -0.0205,-0.0477 -0.0336,-0.0937 -0.0126,-0.047 -0.0136,-0.0936 -0.002,-0.0471 0.009,-0.0943 0.0112,-0.0472 0.0387,-0.0986 0.0384,-0.0716 0.0909,-0.11201 0.0515,-0.0409 0.11387,-0.0536 0.0614,-0.0131 0.13136,0.002 0.0695,0.0137 0.14386,0.0536 l 0.62596,0.33596 z"
             style="fill:#ffffff"
             id="path4956" /><path
             d="m 291.60624,395.80348 0.58381,0.367 q 0.0732,0.046 0.1283,0.0425 0.0542,-0.004 0.0892,-0.0596 0.0338,-0.0538 0.0208,-0.1309 -0.0134,-0.0785 -0.0543,-0.18178 l -0.56706,-0.35647 0.13527,-0.21518 0.896,0.56325 -0.11698,0.18608 -0.1356,-0.0779 q 0.0167,0.0498 0.0266,0.0967 0.01,0.0468 0.009,0.094 -0.002,0.0457 -0.0166,0.0929 -0.0135,0.0469 -0.044,0.0954 -0.0433,0.0688 -0.098,0.10696 -0.0551,0.0367 -0.11815,0.0451 -0.0631,0.008 -0.13148,-0.0101 -0.0687,-0.0198 -0.14018,-0.0647 l -0.60144,-0.37809 z"
             style="fill:#ffffff"
             id="path4958" /><path
             d="m 292.27926,394.29447 q 0.0278,0.0203 0.0448,0.0482 0.017,0.0279 0.022,0.0599 0.005,0.0306 -0.002,0.0629 -0.008,0.0318 -0.0286,0.0604 -0.0209,0.0286 -0.0494,0.0465 -0.0287,0.0164 -0.0599,0.022 -0.0314,0.004 -0.0632,-0.004 -0.0318,-0.008 -0.0595,-0.028 -0.0278,-0.0203 -0.0448,-0.0482 -0.017,-0.0279 -0.0226,-0.0591 -0.005,-0.032 0.003,-0.0638 0.007,-0.0332 0.0284,-0.0618 0.0209,-0.0286 0.0496,-0.045 0.0279,-0.017 0.0593,-0.0212 0.032,-0.005 0.0638,0.003 0.0318,0.008 0.0595,0.028 z m 0.22799,0.51457 -0.17624,0.24148 -0.15987,-0.11667 0.32976,-0.45184 0.69501,0.50722 0.17992,-0.24654 0.15987,0.11667 -0.53116,0.72783 -0.15987,-0.11667 0.19772,-0.27094 z"
             style="fill:#ffffff"
             id="path4960" /><path
             d="m 294.25493,393.97623 q -0.0323,0.0626 -0.0701,0.12206 -0.0378,0.0594 -0.0781,0.10722 -0.0671,0.0797 -0.13283,0.12373 -0.065,0.0433 -0.13152,0.0526 -0.0658,0.009 -0.13382,-0.0174 -0.0681,-0.0274 -0.14143,-0.0892 l -0.39515,-0.33286 -0.18321,0.21749 -0.15137,-0.12751 0.18321,-0.21749 -0.20714,-0.17448 0.11599,-0.24279 0.25892,0.2181 0.26508,-0.31469 0.15137,0.12751 -0.26508,0.31469 0.38081,0.32078 q 0.0693,0.0584 0.13201,0.0567 0.0619,-0.002 0.12498,-0.0772 0.0403,-0.0478 0.0706,-0.0999 0.0303,-0.0521 0.0515,-0.0983 z"
             style="fill:#ffffff"
             id="path4962" /><path
             d="m 295.7831,392.4802 -0.10899,-0.11213 q 0.002,0.0525 -0.002,0.10096 -0.004,0.0485 -0.0183,0.0934 -0.0149,0.0442 -0.0415,0.0848 -0.0251,0.0407 -0.0669,0.0783 -0.0698,0.0626 -0.1491,0.0834 -0.0793,0.0208 -0.16245,0.003 -0.0831,-0.0192 -0.16851,-0.0755 -0.0855,-0.0563 -0.16686,-0.14699 -0.0974,-0.10855 -0.1381,-0.21476 -0.0406,-0.10769 -0.033,-0.20833 0.007,-0.10142 0.0591,-0.19301 0.0515,-0.0924 0.1391,-0.17097 0.0295,-0.0264 0.0624,-0.049 0.0337,-0.0233 0.0625,-0.0379 l -0.27616,-0.30782 0.18918,-0.16973 0.98291,1.09559 z m -0.69362,-0.0774 q 0.0584,0.0651 0.1087,0.104 0.0504,0.0374 0.0938,0.0516 0.0443,0.0135 0.0824,0.004 0.0374,-0.01 0.07,-0.039 0.0481,-0.0431 0.0567,-0.12085 0.009,-0.0777 -0.003,-0.189 l -0.30886,-0.34426 q -0.0301,0.0116 -0.0683,0.0361 -0.0374,0.0238 -0.0708,0.0537 -0.0457,0.041 -0.0655,0.0923 -0.0197,0.0513 -0.0155,0.10907 0.005,0.0571 0.0356,0.11922 0.0299,0.0614 0.0848,0.12262 z"
             style="fill:#ffffff"
             id="path4964" /><path
             d="m 295.71618,391.159 0.42368,0.54407 q 0.0531,0.0682 0.10612,0.0837 0.0524,0.0147 0.10413,-0.0256 0.0501,-0.039 0.0642,-0.11598 0.0142,-0.0784 0.0109,-0.18939 l -0.41151,-0.52846 0.20053,-0.15616 0.65024,0.83502 -0.17341,0.13504 -0.10094,-0.11944 q -0.001,0.0525 -0.008,0.0999 -0.007,0.0474 -0.024,0.0913 -0.0172,0.0424 -0.0473,0.0817 -0.0287,0.0395 -0.0739,0.0747 -0.0641,0.0499 -0.12859,0.0671 -0.0643,0.0157 -0.12644,0.002 -0.0621,-0.0137 -0.12017,-0.0543 -0.0579,-0.0421 -0.1097,-0.10865 l -0.43648,-0.56052 z"
             style="fill:#ffffff"
             id="path4966" /><path
             d="m 298.7997,390.32681 q -0.0499,0.0636 -0.11209,0.11633 -0.0622,0.0527 -0.13801,0.0964 -0.10919,0.063 -0.21299,0.0831 -0.1038,0.0202 -0.19809,-0.004 -0.0943,-0.0238 -0.17671,-0.0917 -0.0815,-0.0684 -0.14709,-0.18213 -0.0635,-0.1101 -0.0807,-0.21921 -0.0163,-0.10963 0.0104,-0.20922 0.0268,-0.0996 0.0954,-0.18487 0.0696,-0.0858 0.17876,-0.14875 0.0893,-0.0515 0.15552,-0.0764 0.0666,-0.0264 0.12363,-0.04 l 0.1233,0.21387 q -0.0721,0.004 -0.1468,0.0269 -0.0738,0.0221 -0.13247,0.0559 -0.0614,0.0354 -0.0981,0.0842 -0.0368,0.0488 -0.0488,0.1051 -0.012,0.0562 5.9e-4,0.1199 0.013,0.0622 0.0495,0.1254 0.038,0.0659 0.0871,0.10729 0.0491,0.0414 0.10475,0.0586 0.056,0.0158 0.11619,0.008 0.0596,-0.009 0.11921,-0.0435 0.0289,-0.0167 0.0584,-0.0385 0.0299,-0.0232 0.0573,-0.0487 0.0278,-0.0268 0.0528,-0.0545 0.0259,-0.0281 0.0462,-0.0555 z"
             style="fill:#ffffff"
             id="path4968" /><path
             d="m 299.67282,389.16886 q 0.0736,0.15072 0.0988,0.2856 0.0253,0.13488 0.002,0.24832 -0.023,0.11206 -0.0928,0.19943 -0.0698,0.0874 -0.18681,0.14447 -0.10111,0.0493 -0.20366,0.0553 -0.10255,0.006 -0.20133,-0.0397 -0.0992,-0.0466 -0.1919,-0.14861 -0.0926,-0.10199 -0.17351,-0.26769 -0.0735,-0.15072 -0.0988,-0.2856 -0.0243,-0.13533 -0.001,-0.24739 0.0225,-0.11298 0.0933,-0.20081 0.0707,-0.0878 0.18681,-0.14448 0.10111,-0.0493 0.20366,-0.0553 0.10254,-0.006 0.2004,0.0401 0.0988,0.0457 0.19144,0.14767 0.0927,0.10199 0.17396,0.26863 z m -0.72276,0.35731 q 0.009,0.0187 0.0174,0.0356 0.008,0.0159 0.0179,0.0319 l 0.29701,-0.55524 q -0.078,-0.0767 -0.15376,-0.0942 -0.0753,-0.0189 -0.14831,0.0167 -0.0524,0.0256 -0.0841,0.0747 -0.0321,0.0481 -0.0389,0.11982 -0.006,0.0712 0.0152,0.16414 0.0219,0.0925 0.0777,0.20666 z m 0.49612,-0.23745 q -0.008,-0.0159 -0.0165,-0.0314 -0.009,-0.0164 -0.0165,-0.0314 l -0.29512,0.55199 q 0.0743,0.0762 0.15004,0.0937 0.0758,0.0175 0.14785,-0.0177 0.0524,-0.0256 0.0841,-0.0747 0.0326,-0.0495 0.0389,-0.11982 0.007,-0.0717 -0.0152,-0.16413 -0.0224,-0.0934 -0.0777,-0.20667 z"
             style="fill:#ffffff"
             id="path4970" /><path
             d="m 300.77496,389.45699 -0.0645,-0.14246 q -0.0156,0.0502 -0.0359,0.0944 -0.0203,0.0442 -0.0489,0.0817 -0.029,0.0365 -0.0678,0.0657 -0.0374,0.0298 -0.0895,0.0509 -0.0869,0.0352 -0.16855,0.0279 -0.0817,-0.007 -0.15382,-0.0523 -0.0716,-0.0463 -0.1329,-0.12822 -0.0613,-0.0819 -0.10709,-0.19487 -0.0548,-0.13516 -0.057,-0.24889 -0.002,-0.11508 0.0397,-0.20715 0.041,-0.093 0.12112,-0.1615 0.0798,-0.0694 0.18885,-0.11363 0.0367,-0.0149 0.0753,-0.0249 0.0396,-0.0104 0.0717,-0.0144 l -0.15535,-0.38325 0.23555,-0.0955 0.5529,1.36408 z m -0.62621,-0.30818 q 0.0329,0.0811 0.067,0.13471 0.0347,0.0523 0.0708,0.0803 0.0371,0.0277 0.076,0.0322 0.0385,0.004 0.0791,-0.0129 0.0598,-0.0243 0.0944,-0.0944 0.0345,-0.0702 0.0613,-0.17882 l -0.17374,-0.42862 q -0.0323,7.2e-4 -0.0765,0.0108 -0.0433,0.01 -0.0848,0.0265 -0.057,0.0231 -0.0929,0.0647 -0.036,0.0416 -0.0516,0.0973 -0.0146,0.0554 -0.007,0.12422 0.007,0.0679 0.0382,0.14412 z"
             style="fill:#ffffff"
             id="path4972" /><path
             d="m 301.93526,388.40874 q 0.008,0.0247 0.0191,0.065 0.012,0.0399 0.0203,0.0755 l -0.66131,0.21643 q 0.0217,0.0663 0.058,0.11034 0.0373,0.0437 0.0853,0.0663 0.0486,0.0213 0.10595,0.0223 0.0583,6.5e-4 0.12166,-0.0201 0.0733,-0.024 0.15286,-0.0621 0.0803,-0.0394 0.16192,-0.0946 l 0.0629,0.19206 q -0.0351,0.0235 -0.0777,0.0473 -0.0426,0.0238 -0.0879,0.0463 -0.0453,0.0225 -0.0928,0.0413 -0.0472,0.0198 -0.0928,0.0347 -0.11484,0.0376 -0.21661,0.0347 -0.10177,-0.003 -0.18587,-0.0455 -0.0844,-0.0436 -0.14886,-0.12664 -0.0644,-0.083 -0.10494,-0.20679 -0.0402,-0.12276 -0.0392,-0.23376 6.2e-4,-0.112 0.0387,-0.20337 0.0377,-0.0924 0.11221,-0.15947 0.0752,-0.0684 0.18306,-0.10376 0.10692,-0.035 0.20011,-0.0282 0.0929,0.006 0.16774,0.047 0.0749,0.0413 0.13048,0.11403 0.0556,0.0728 0.0877,0.17078 z m -0.25686,0.0457 q -0.0185,-0.0597 -0.0486,-0.0981 -0.0304,-0.0394 -0.0675,-0.059 -0.0361,-0.02 -0.0773,-0.0218 -0.0402,-0.002 -0.0817,0.0114 -0.0911,0.0298 -0.1294,0.11031 -0.0386,0.0795 -0.0132,0.19395 z"
             style="fill:#ffffff"
             id="path4974" /><path
             d="m 303.49647,388.64441 -0.0333,-0.18452 0.25959,-0.37392 q 0.0731,-0.10528 0.11474,-0.17948 0.0427,-0.0744 0.0623,-0.1298 0.0205,-0.0566 0.0219,-0.10134 0.001,-0.0447 -0.007,-0.0908 -0.007,-0.0379 -0.0252,-0.0695 -0.0186,-0.0326 -0.0466,-0.053 -0.0282,-0.0214 -0.0667,-0.0292 -0.0386,-0.009 -0.0848,-5.7e-4 -0.0789,0.0142 -0.1403,0.0613 -0.0616,0.046 -0.11168,0.11435 l -0.16294,-0.1463 q 0.0725,-0.0967 0.17248,-0.1645 0.10081,-0.069 0.22792,-0.0919 0.0984,-0.0178 0.18299,-0.007 0.0844,0.0102 0.14966,0.0492 0.0663,0.0388 0.11036,0.1071 0.0451,0.0681 0.0625,0.16443 0.0144,0.08 0.005,0.15355 -0.009,0.0726 -0.0383,0.14558 -0.0292,0.073 -0.0778,0.14952 -0.0476,0.0763 -0.11137,0.163 l -0.16128,0.22069 0.56483,-0.10193 0.0416,0.23065 z"
             style="fill:#2ca05a"
             id="path4976" /><path
             d="m 305.555,387.65541 q 0.0183,0.1667 -0.003,0.30219 -0.0218,0.13548 -0.0822,0.23434 -0.0595,0.0977 -0.15468,0.15637 -0.0952,0.0587 -0.22463,0.0729 -0.11183,0.0123 -0.21037,-0.0167 -0.0985,-0.029 -0.17611,-0.10535 -0.0777,-0.0774 -0.13043,-0.20469 -0.0528,-0.12728 -0.0729,-0.31056 -0.0183,-0.1667 0.003,-0.30218 0.0228,-0.1356 0.0823,-0.23331 0.0594,-0.0987 0.1556,-0.15752 0.0962,-0.0588 0.22463,-0.0729 0.11182,-0.0123 0.21037,0.0167 0.0986,0.029 0.17507,0.10547 0.0776,0.0764 0.13032,0.20364 0.0528,0.12729 0.073,0.3116 z m -0.80097,0.0922 q 0.002,0.0207 0.004,0.0393 0.002,0.0176 0.006,0.036 l 0.46708,-0.4223 q -0.0475,-0.0985 -0.11291,-0.14059 -0.0645,-0.0432 -0.14525,-0.0343 -0.058,0.006 -0.10438,0.0419 -0.0465,0.0344 -0.0771,0.0996 -0.0295,0.0651 -0.0411,0.15961 -0.0106,0.0944 0.003,0.22076 z m 0.54717,-0.0559 q -0.002,-0.0176 -0.005,-0.0351 -0.003,-0.0185 -0.005,-0.0351 l -0.4642,0.41989 q 0.0442,0.0968 0.10958,0.13886 0.0654,0.0421 0.14513,0.0333 0.058,-0.006 0.10438,-0.0419 0.0474,-0.0356 0.0771,-0.0996 0.0306,-0.0652 0.0411,-0.15962 0.0105,-0.0955 -0.003,-0.22075 z"
             style="fill:#2ca05a"
             id="path4978" /><path
             d="m 305.81963,388.32627 -0.008,-0.18735 0.30868,-0.33455 q 0.0869,-0.0942 0.13839,-0.16194 0.0525,-0.0678 0.0796,-0.11997 0.0281,-0.0533 0.0357,-0.0973 0.008,-0.0441 0.006,-0.0909 -0.002,-0.0385 -0.0154,-0.0724 -0.0139,-0.0349 -0.0389,-0.0589 -0.025,-0.0251 -0.062,-0.0382 -0.0371,-0.0141 -0.0839,-0.0123 -0.0802,0.003 -0.14742,0.0414 -0.0673,0.0371 -0.12638,0.0979 l -0.14121,-0.16737 q 0.0852,-0.0858 0.19352,-0.13914 0.10936,-0.0544 0.23842,-0.0596 0.0999,-0.004 0.18215,0.0187 0.0822,0.0217 0.14145,0.0694 0.0603,0.0476 0.0945,0.1213 0.0353,0.0736 0.0392,0.17148 0.003,0.0812 -0.0157,0.15283 -0.019,0.0706 -0.058,0.13891 -0.0389,0.0683 -0.0977,0.13737 -0.0577,0.069 -0.13278,0.14607 l -0.19018,0.19635 0.57349,-0.0231 0.009,0.23419 z"
             style="fill:#2ca05a"
             id="path4980" /><path
             d="m 307.932,387.90019 q -0.003,0.101 -0.0428,0.18111 -0.0398,0.0791 -0.1196,0.13406 -0.0787,0.054 -0.19724,0.0807 -0.11854,0.0267 -0.27785,0.0221 -0.0354,-0.001 -0.0749,-0.004 -0.0385,-0.002 -0.0769,-0.006 -0.0385,-0.003 -0.0748,-0.008 -0.0364,-0.004 -0.0654,-0.0102 l 0.006,-0.22074 q 0.0652,0.0144 0.1462,0.0251 0.082,0.01 0.17054,0.0123 0.0864,0.003 0.14932,-0.0102 0.0629,-0.0127 0.10431,-0.0386 0.0414,-0.0269 0.0614,-0.067 0.021,-0.04 0.0225,-0.0911 0.001,-0.0448 -0.0174,-0.0818 -0.0187,-0.037 -0.0586,-0.0632 -0.0398,-0.0272 -0.10296,-0.0426 -0.062,-0.0164 -0.14847,-0.0189 l -0.15097,-0.004 0.006,-0.19367 0.13848,0.004 q 0.0812,0.002 0.13478,-0.0117 0.0546,-0.0151 0.0867,-0.0412 0.0331,-0.0261 0.0477,-0.0622 0.0146,-0.0371 0.0158,-0.0777 0.002,-0.0833 -0.0505,-0.12757 -0.0529,-0.0453 -0.16636,-0.0487 -0.0812,-0.002 -0.1608,0.0109 -0.0796,0.0133 -0.1647,0.0369 l 0.006,-0.21345 q 0.0473,-0.0142 0.0903,-0.0234 0.043,-0.009 0.0859,-0.0152 0.0429,-0.006 0.0867,-0.008 0.0438,-0.002 0.0907,-4.7e-4 0.11245,0.003 0.19609,0.0297 0.0847,0.0264 0.14063,0.0729 0.057,0.0454 0.0843,0.10981 0.0273,0.0644 0.025,0.14246 -0.004,0.1239 -0.0632,0.19928 -0.0584,0.0744 -0.16168,0.11198 0.0653,0.0123 0.11763,0.0399 0.0524,0.0265 0.0887,0.0683 0.0374,0.0407 0.0556,0.0933 0.0193,0.0527 0.0174,0.11619 z"
             style="fill:#2ca05a"
             id="path4982" /></g></g><g
         id="g63165"
         transform="matrix(1.1618628,0,0,1.1618628,5.9423919,-66.732568)"><g
           id="g63131"
           transform="matrix(0.0103876,0,0,0.0103876,-282.57352,89.604514)"><path
             style="fill:#ffe001;fill-opacity:1;stroke:none;stroke-width:1px;stroke-linecap:butt;stroke-linejoin:miter;stroke-opacity:1"
             d="m 52720,30040 h 560 v 80 h 80 v 320 h -240 v -80 h -240 v 240 h 240 v -80 h 240 v 320 h -80 v 80 h -560 v -80 h -80 v -720 h 80 z"
             id="path63117" /><path
             id="rect63119"
             style="fill:#dd8412;stroke-width:6.29291;stroke-linecap:round;paint-order:fill markers stroke"
             d="m 52720,30840 h 560 v 80 h -560 z" /><path
             id="rect63121"
             style="fill:#dd8412;stroke-width:6.29291;stroke-linecap:round;paint-order:fill markers stroke"
             d="m 52640,30760 h 80 v 80 h -80 z" /><path
             id="rect63123"
             style="fill:#dd8412;stroke-width:6.29291;stroke-linecap:round;paint-order:fill markers stroke"
             d="m 53280,30760 h 80 v 80 h -80 z" /><path
             id="rect63125"
             style="fill:#dd8412;stroke-width:6.29291;stroke-linecap:round;paint-order:fill markers stroke"
             d="m 53120,30360 h 240 v 80 h -240 z" /><path
             id="rect63127"
             style="fill:#dd8412;stroke-width:6.29291;stroke-linecap:round;paint-order:fill markers stroke"
             d="m 52880,30280 h 240 v 80 h -240 z" /><path
             id="rect63129"
             style="fill:#ffffff;stroke-width:6.29291;stroke-linecap:round;paint-order:fill markers stroke"
             d="m 52720,30040 h 80 v 80 h -80 z" /></g><g
           id="g63147"
           transform="matrix(0.0103876,0,0,0.0103876,-282.57352,89.604514)"><path
             id="path63133"
             style="fill:#ffe001;fill-opacity:1;stroke:none;stroke-width:1px;stroke-linecap:butt;stroke-linejoin:miter;stroke-opacity:1"
             d="m 51840.5,30040.5 v 880 h 560 v -80 h 80 v -80 h 80 v -560 h -80 v -80 h -80 v -80 z m 239.5,319.5 h 160 v 80 h 80 v 80 h -80 v 80 h -160 z" /><path
             id="rect63135"
             style="fill:#dd8412;stroke-width:6.29291;stroke-linecap:round;paint-order:fill markers stroke"
             d="m 51840,30840 h 560 v 80 h -560 z" /><path
             id="rect63137"
             style="fill:#dd8412;stroke-width:6.29291;stroke-linecap:round;paint-order:fill markers stroke"
             d="m 52400,30760 h 80 v 80 h -80 z" /><path
             id="rect63139"
             style="fill:#dd8412;stroke-width:6.29291;stroke-linecap:round;paint-order:fill markers stroke"
             d="m 52480,30680 h 80 v 80 h -80 z" /><path
             id="rect63141"
             style="fill:#dd8412;stroke-width:6.29291;stroke-linecap:round;paint-order:fill markers stroke"
             d="m 52080,30280 h 160 v 80 h -160 z" /><path
             id="rect63143"
             style="fill:#dd8412;stroke-width:6.29291;stroke-linecap:round;paint-order:fill markers stroke"
             d="m 52240,30360 h 80 v 80 h -80 z" /><path
             id="rect63145"
             style="fill:#ffffff;stroke-width:6.29291;stroke-linecap:round;paint-order:fill markers stroke"
             d="m 51840,30040 h 80 v 80 h -80 z" /></g><g
           id="g63163"
           transform="matrix(0.0103876,0,0,0.0103876,-282.57352,89.604514)"><path
             style="fill:#ffe001;fill-opacity:1;stroke:none;stroke-width:1px;stroke-linecap:butt;stroke-linejoin:miter;stroke-opacity:1"
             d="m 51040,30920 v -880 h 240 v 160 h 80 v 80 h 80 v 80 h 80 v -320 h 240 v 880 h -240 v -160 h -80 v -80 h -80 v -80 h -80 v 320 z"
             id="path63149" /><path
             id="rect63151"
             style="fill:#dd8412;stroke-width:6.29291;stroke-linecap:round;paint-order:fill markers stroke"
             d="m 51280,30520 h 80 v 80 h -80 z" /><path
             id="rect63153"
             style="display:inline;fill:#dd8412;stroke-width:6.29291;stroke-linecap:round;paint-order:fill markers stroke"
             d="m 51360,30600 h 80 v 80 h -80 z" /><path
             id="rect63155"
             style="display:inline;fill:#dd8412;stroke-width:6.29291;stroke-linecap:round;paint-order:fill markers stroke"
             d="m 51440,30680 h 80 v 80 h -80 z" /><path
             id="rect63157"
             style="fill:#dd8412;stroke-width:6.29291;stroke-linecap:round;paint-order:fill markers stroke"
             d="m 51040,30840 h 240 v 80 h -240 z" /><path
             id="rect63159"
             style="fill:#dd8412;stroke-width:6.29291;stroke-linecap:round;paint-order:fill markers stroke"
             d="m 51520,30840 h 240 v 80 h -240 z" /><path
             id="rect63161"
             style="fill:#ffffff;stroke-width:6.29291;stroke-linecap:round;paint-order:fill markers stroke"
             d="m 51040,30040 h 80 v 80 h -80 z" /></g></g><g
         id="g77920"
         transform="translate(0.69342709,0.875)"><g
           aria-label="SCRATCH PYTHON"
           id="text77695"
           style="font-size:2.10881px;font-family:Consolas;-inkscape-font-specification:Consolas;fill:#e3342f;stroke-width:0.395403"><path
             d="m 298.72562,413.68973 q -0.13918,0 -0.27625,-0.0485 -0.13496,-0.0506 -0.24673,-0.14972 l 0.17925,-0.21299 q 0.078,0.0633 0.17081,0.10333 0.0928,0.0401 0.19401,0.0401 0.10122,0 0.14762,-0.0337 0.0464,-0.0337 0.0464,-0.0865 0,-0.0359 -0.0148,-0.059 -0.0148,-0.0253 -0.0422,-0.0443 -0.0274,-0.019 -0.0675,-0.0358 -0.0401,-0.0169 -0.0886,-0.038 l -0.17714,-0.0759 q -0.0569,-0.0211 -0.11176,-0.0548 -0.0527,-0.0337 -0.0928,-0.078 -0.0401,-0.0464 -0.0654,-0.10544 -0.0232,-0.0611 -0.0232,-0.13707 0,-0.0844 0.0358,-0.15816 0.038,-0.0759 0.10333,-0.13075 0.0675,-0.0569 0.16027,-0.0886 0.0928,-0.0316 0.20455,-0.0316 0.12653,0 0.24463,0.0464 0.11809,0.0464 0.21299,0.13497 l -0.15817,0.19612 q -0.0717,-0.0527 -0.14339,-0.0801 -0.0717,-0.0295 -0.17293,-0.0295 -0.078,0 -0.12653,0.0316 -0.0464,0.0316 -0.0464,0.0928 0,0.0611 0.0612,0.0949 0.0633,0.0316 0.16448,0.0675 l 0.1666,0.0717 q 0.13707,0.0506 0.2151,0.13918 0.0801,0.0886 0.0801,0.23407 0,0.0865 -0.0358,0.16449 -0.0358,0.0759 -0.10333,0.13497 -0.0675,0.0569 -0.16659,0.0928 -0.0991,0.0337 -0.22776,0.0337 z"
             style="font-weight:bold;font-family:'Source Code Pro';-inkscape-font-specification:'Source Code Pro Bold'"
             id="path5003" /><path
             d="m 300.11322,413.68973 q -0.12864,0 -0.24462,-0.0443 -0.11388,-0.0464 -0.20245,-0.13496 -0.0865,-0.0886 -0.13918,-0.21932 -0.0506,-0.13286 -0.0506,-0.30578 0,-0.17081 0.0506,-0.30367 0.0506,-0.13496 0.13918,-0.22775 0.0886,-0.0928 0.20878,-0.14129 0.1202,-0.0485 0.25727,-0.0485 0.13075,0 0.23619,0.0548 0.10544,0.0527 0.17503,0.1202 l -0.17081,0.1919 q -0.0485,-0.0443 -0.10755,-0.0717 -0.0569,-0.0274 -0.13286,-0.0274 -0.0738,0 -0.13496,0.0316 -0.0612,0.0295 -0.10755,0.0865 -0.0443,0.0569 -0.0696,0.13918 -0.0253,0.0822 -0.0253,0.18558 0,0.21299 0.097,0.33108 0.097,0.11599 0.25305,0.11599 0.0738,0 0.13497,-0.0337 0.0633,-0.0337 0.11387,-0.0886 l 0.17082,0.18769 q -0.17082,0.20244 -0.45129,0.20244 z"
             style="font-weight:bold;font-family:'Source Code Pro';-inkscape-font-specification:'Source Code Pro Bold'"
             id="path5005" /><path
             d="m 300.77539,413.66443 v -1.37495 h 0.48713 q 0.10966,0 0.20456,0.0211 0.097,0.0211 0.1687,0.0717 0.0738,0.0485 0.11599,0.13075 0.0422,0.0822 0.0422,0.20455 0,0.15184 -0.0675,0.25095 -0.0675,0.097 -0.17714,0.14551 l 0.31,0.5504 h -0.34796 l -0.2636,-0.49557 h -0.16238 v 0.49557 z m 0.30999,-0.7423 h 0.15184 q 0.25095,0 0.25095,-0.20456 0,-0.10122 -0.0633,-0.14129 -0.0633,-0.0401 -0.18768,-0.0401 h -0.15184 z"
             style="font-weight:bold;font-family:'Source Code Pro';-inkscape-font-specification:'Source Code Pro Bold'"
             id="path5007" /><path
             d="m 302.40761,412.96852 -0.0316,0.12653 h 0.2889 l -0.0316,-0.12653 q -0.0274,-0.10333 -0.0569,-0.21721 -0.0295,-0.11598 -0.0527,-0.22564 h -0.008 q -0.0253,0.10966 -0.0527,0.22564 -0.0274,0.11388 -0.0548,0.21721 z m -0.49557,0.69591 0.42809,-1.37495 h 0.37115 l 0.42809,1.37495 h -0.32898 l -0.0822,-0.32687 h -0.41544 l -0.0843,0.32687 z"
             style="font-weight:bold;font-family:'Source Code Pro';-inkscape-font-specification:'Source Code Pro Bold'"
             id="path5009" /><path
             d="m 303.63494,413.66443 v -1.11345 h -0.41122 v -0.2615 h 1.13454 v 0.2615 h -0.41122 v 1.11345 z"
             style="font-weight:bold;font-family:'Source Code Pro';-inkscape-font-specification:'Source Code Pro Bold'"
             id="path5011" /><path
             d="m 305.17437,413.68973 q -0.12864,0 -0.24462,-0.0443 -0.11388,-0.0464 -0.20245,-0.13496 -0.0865,-0.0886 -0.13918,-0.21932 -0.0506,-0.13286 -0.0506,-0.30578 0,-0.17081 0.0506,-0.30367 0.0506,-0.13496 0.13918,-0.22775 0.0886,-0.0928 0.20877,-0.14129 0.12021,-0.0485 0.25728,-0.0485 0.13074,0 0.23618,0.0548 0.10545,0.0527 0.17504,0.1202 l -0.17082,0.1919 q -0.0485,-0.0443 -0.10755,-0.0717 -0.0569,-0.0274 -0.13285,-0.0274 -0.0738,0 -0.13497,0.0316 -0.0611,0.0295 -0.10754,0.0865 -0.0443,0.0569 -0.0696,0.13918 -0.0253,0.0822 -0.0253,0.18558 0,0.21299 0.097,0.33108 0.097,0.11599 0.25306,0.11599 0.0738,0 0.13496,-0.0337 0.0633,-0.0337 0.11388,-0.0886 l 0.17081,0.18769 q -0.17081,0.20244 -0.45128,0.20244 z"
             style="font-weight:bold;font-family:'Source Code Pro';-inkscape-font-specification:'Source Code Pro Bold'"
             id="path5013" /><path
             d="m 305.82388,413.66443 v -1.37495 h 0.31 v 0.52932 h 0.37537 v -0.52932 h 0.30999 v 1.37495 h -0.30999 v -0.5736 h -0.37537 v 0.5736 z"
             style="font-weight:bold;font-family:'Source Code Pro';-inkscape-font-specification:'Source Code Pro Bold'"
             id="path5015" /><path
             d="m 308.37765,413.66443 v -1.37495 h 0.48714 q 0.11177,0 0.20877,0.0232 0.0991,0.0211 0.17081,0.0738 0.0738,0.0506 0.11599,0.13707 0.0422,0.0844 0.0422,0.20877 0,0.12021 -0.0443,0.20878 -0.0422,0.0886 -0.11598,0.1455 -0.0738,0.0569 -0.17082,0.0844 -0.097,0.0274 -0.20666,0.0274 h -0.17714 v 0.46605 z m 0.31,-0.71278 h 0.15816 q 0.25306,0 0.25306,-0.21932 0,-0.10754 -0.0654,-0.15183 -0.0633,-0.0443 -0.18768,-0.0443 h -0.15816 z"
             style="font-weight:bold;font-family:'Source Code Pro';-inkscape-font-specification:'Source Code Pro Bold'"
             id="path5017" /><path
             d="m 309.96137,413.66443 v -0.46394 l -0.44285,-0.91101 h 0.33319 l 0.13918,0.33109 q 0.0295,0.0801 0.0612,0.15605 0.0316,0.0759 0.0633,0.15816 h 0.008 q 0.0337,-0.0822 0.0654,-0.15816 0.0316,-0.0759 0.0633,-0.15605 l 0.13918,-0.33109 h 0.32475 l -0.44285,0.91101 v 0.46394 z"
             style="font-weight:bold;font-family:'Source Code Pro';-inkscape-font-specification:'Source Code Pro Bold'"
             id="path5019" /><path
             d="m 311.22666,413.66443 v -1.11345 h -0.41122 v -0.2615 h 1.13454 v 0.2615 h -0.41122 v 1.11345 z"
             style="font-weight:bold;font-family:'Source Code Pro';-inkscape-font-specification:'Source Code Pro Bold'"
             id="path5021" /><path
             d="m 312.15032,413.66443 v -1.37495 h 0.30999 v 0.52932 h 0.37537 v -0.52932 h 0.31 v 1.37495 h -0.31 v -0.5736 h -0.37537 v 0.5736 z"
             style="font-weight:bold;font-family:'Source Code Pro';-inkscape-font-specification:'Source Code Pro Bold'"
             id="path5023" /><path
             d="m 313.91328,413.68973 q -0.12231,0 -0.22564,-0.0464 -0.10122,-0.0464 -0.17503,-0.13707 -0.0717,-0.0907 -0.11177,-0.22354 -0.0401,-0.13496 -0.0401,-0.3121 0,-0.17292 0.0401,-0.30367 0.0401,-0.13285 0.11177,-0.22142 0.0738,-0.0907 0.17503,-0.13497 0.10333,-0.0464 0.22564,-0.0464 0.12231,0 0.22354,0.0464 0.10333,0.0443 0.17503,0.13497 0.0738,0.0886 0.11387,0.22142 0.0401,0.13075 0.0401,0.30367 0,0.17714 -0.0401,0.3121 -0.0401,0.13286 -0.11387,0.22354 -0.0717,0.0907 -0.17503,0.13707 -0.10123,0.0464 -0.22354,0.0464 z m 0,-0.26781 q 0.10755,0 0.17082,-0.11388 0.0633,-0.11388 0.0633,-0.33741 0,-0.2151 -0.0633,-0.32687 -0.0633,-0.11176 -0.17082,-0.11176 -0.10755,0 -0.17081,0.11176 -0.0633,0.11177 -0.0633,0.32687 0,0.22353 0.0633,0.33741 0.0633,0.11388 0.17081,0.11388 z"
             style="font-weight:bold;font-family:'Source Code Pro';-inkscape-font-specification:'Source Code Pro Bold'"
             id="path5025" /><path
             d="m 314.68511,413.66443 v -1.37495 h 0.31843 l 0.28891,0.68326 0.11809,0.30367 h 0.008 q -0.0105,-0.10966 -0.0274,-0.24252 -0.0169,-0.13496 -0.0169,-0.25727 v -0.48714 h 0.29734 v 1.37495 h -0.31843 l -0.28891,-0.68536 -0.11809,-0.29946 h -0.008 q 0.0105,0.11388 0.0274,0.24463 0.0169,0.13074 0.0169,0.25305 v 0.48714 z"
             style="font-weight:bold;font-family:'Source Code Pro';-inkscape-font-specification:'Source Code Pro Bold'"
             id="path5027" /></g><path
           id="path77719"
           style="font-size:40px;line-height:1.25;letter-spacing:0px;word-spacing:0px;fill:#e3342f;fill-opacity:1;stroke-width:0.218643;stroke-linecap:round;stroke-dasharray:0.655931, 0.655931;paint-order:fill markers stroke"
           d="m 307.77184,412.97697 a 0.14999509,0.1499951 0 0 1 -0.15,0.14998 0.14999509,0.1499951 0 0 1 -0.15,-0.14998 0.14999509,0.1499951 0 0 1 0.15,-0.15 0.14999509,0.1499951 0 0 1 0.15,0.15 z" /></g></g><text
       xml:space="preserve"
       id="text101809"
       style="font-style:normal;font-variant:normal;font-weight:bold;font-stretch:normal;font-size:1.33333px;font-family:Consolas;-inkscape-font-specification:'Consolas Bold';white-space:pre;shape-inside:url(#rect101811);display:inline;fill:#261b0c;fill-opacity:1;stroke:#c00000;stroke-width:0.5;stroke-dasharray:none;stroke-opacity:1" /></g><g
     inkscape:groupmode="layer"
     id="layer2"
     inkscape:label="Yellow"
     style="display:none;opacity:1;filter:url(#filter4059)"
     transform="translate(-287.63059,-385.24051)" /><g
     inkscape:groupmode="layer"
     id="layer3"
     inkscape:label="Magenta"
     style="display:none;opacity:1;filter:url(#filter4075)"
     transform="translate(-287.63059,-385.24051)" /><g
     inkscape:groupmode="layer"
     id="layer4"
     inkscape:label="Cyan"
     style="display:none"
     transform="translate(-287.63059,-385.24051)" /></svg>
