<?xml version="1.0" encoding="UTF-8" standalone="no"?>
<!-- Created with Inkscape (http://www.inkscape.org/) -->

<svg
   width="1000mm"
   height="999.99969mm"
   viewBox="0 0 1000 999.99969"
   version="1.1"
   id="svg52769"
   inkscape:version="1.1.2 (b8e25be833, 2022-02-05)"
   sodipodi:docname="nuitducode_logo_ndc.svg"
   xmlns:inkscape="http://www.inkscape.org/namespaces/inkscape"
   xmlns:sodipodi="http://sodipodi.sourceforge.net/DTD/sodipodi-0.dtd"
   xmlns="http://www.w3.org/2000/svg"
   xmlns:svg="http://www.w3.org/2000/svg">
  <sodipodi:namedview
     id="namedview52771"
     pagecolor="#ffffff"
     bordercolor="#666666"
     borderopacity="1.0"
     inkscape:pageshadow="2"
     inkscape:pageopacity="0.0"
     inkscape:pagecheckerboard="0"
     inkscape:document-units="mm"
     showgrid="false"
     fit-margin-top="0"
     fit-margin-left="0"
     fit-margin-right="0"
     fit-margin-bottom="0"
     inkscape:zoom="0.08"
     inkscape:cx="3250"
     inkscape:cy="2762.5"
     inkscape:window-width="1920"
     inkscape:window-height="1017"
     inkscape:window-x="1912"
     inkscape:window-y="-8"
     inkscape:window-maximized="1"
     inkscape:current-layer="layer1" />
  <defs
     id="defs52766" />
  <g
     inkscape:label="Layer 1"
     inkscape:groupmode="layer"
     id="layer1"
     transform="translate(324.61136,300.73026)">
    <g
       id="g46135"
       style="display:inline"
       transform="matrix(0.31387315,0,0,0.31387315,-14043.54,-15618.364)"
       inkscape:export-filename="E:\OneDrive\Projets\NuitduCode\graphics\logos\nuitducode_logo_ndc.png"
       inkscape:export-xdpi="39.255699"
       inkscape:export-ydpi="39.255699">
      <g
         id="g18400"
         transform="translate(194.45617,2492.5514)">
        <path
           id="circle16872"
           style="font-size:40px;line-height:1.25;letter-spacing:0px;word-spacing:0px;fill:#261b0c;stroke-width:75.3503;stroke-linecap:round;stroke-dasharray:226.051, 226.051;paint-order:fill markers stroke"
           inkscape:transform-center-x="0.080416756"
           inkscape:transform-center-y="-0.024991111"
           d="m 43516.051,47982.121 a 1593,1593 0 0 1 1511.321,-1670.69 1593,1593 0 0 1 1670.691,1511.321 1593,1593 0 0 1 -1511.321,1670.69 1593,1593 0 0 1 -1670.691,-1511.321 z" />
        <g
           aria-label="nuit du code 2022"
           transform="translate(12596.312,9191.5838)"
           id="text16880"
           style="font-size:240px;line-height:1.25;letter-spacing:0px;word-spacing:0px;fill:#4c97ff"
           inkscape:transform-center-x="651.87225"
           inkscape:transform-center-y="-1020.2168">
          <path
             d="m 31302.511,38106.744 q -0.883,1.645 -2.652,2.178 -1.769,0.534 -3.414,-0.349 l -77.632,-41.666 q -1.809,-0.971 -2.178,-2.652 -0.534,-1.769 0.349,-3.414 l 7.327,-13.651 q 0.971,-1.81 2.652,-2.178 1.605,-0.622 3.414,0.349 l 6.743,3.619 q -6.951,-16.653 2.407,-34.088 8.121,-15.132 22.756,-18.717 14.636,-3.585 31.905,5.684 l 46.218,24.805 q 1.645,0.883 2.178,2.652 0.622,1.605 -0.349,3.414 l -7.945,14.803 q -0.883,1.645 -2.652,2.178 -1.769,0.534 -3.414,-0.349 l -45.231,-24.276 q -9.539,-5.12 -17.362,-3.175 -7.9,1.693 -12.578,10.41 -4.502,8.388 -1.811,16.4 2.691,8.012 12.066,13.043 l 45.231,24.276 q 1.645,0.883 2.178,2.652 0.622,1.605 -0.349,3.414 z"
             style="font-size:186.667px;fill:#ffffff"
             id="path17953" />
          <path
             d="m 31377.795,37979.241 q -9.394,14.376 -24.182,16.531 -14.787,2.155 -31.195,-8.567 l -43.909,-28.694 q -1.719,-1.123 -1.941,-2.83 -0.38,-1.809 0.642,-3.371 l 9.19,-14.064 q 1.021,-1.562 2.83,-1.941 1.808,-0.379 3.371,0.642 l 42.971,28.081 q 19.22,12.56 30.147,-4.159 5.31,-8.126 3.216,-16.184 -1.991,-8.213 -10.897,-14.034 l -42.972,-28.081 q -1.719,-1.124 -1.942,-2.83 -0.379,-1.809 0.643,-3.371 l 9.088,-13.907 q 1.123,-1.719 2.83,-1.942 1.652,-0.481 3.371,0.642 l 73.755,48.198 q 1.562,1.021 1.941,2.83 0.481,1.652 -0.642,3.371 l -8.475,12.97 q -1.022,1.562 -2.83,1.941 -1.809,0.379 -3.371,-0.642 l -6.407,-4.187 q 6.103,16.253 -5.232,33.598 z"
             style="font-size:186.667px;fill:#ffffff"
             id="path17955" />
          <path
             d="m 31333.171,37841.727 q -1.115,1.497 -2.943,1.765 -1.829,0.267 -3.326,-0.848 l -10.928,-8.14 q -1.647,-1.226 -1.914,-3.055 -0.268,-1.828 0.847,-3.325 l 10.259,-13.773 q 1.227,-1.647 3.055,-1.914 1.828,-0.268 3.475,0.959 l 10.929,8.14 q 1.497,1.115 1.652,3.093 0.268,1.828 -0.847,3.325 z m 91.017,66.862 q -1.115,1.497 -2.944,1.765 -1.828,0.267 -3.325,-0.848 l -70.66,-52.631 q -1.647,-1.226 -1.765,-2.943 -0.267,-1.829 0.848,-3.326 l 9.478,-12.724 q 1.115,-1.497 2.944,-1.765 1.828,-0.267 3.325,0.848 l 70.66,52.63 q 1.497,1.115 1.764,2.944 0.268,1.828 -0.847,3.325 z"
             style="font-size:186.667px;fill:#ffffff"
             id="path17957" />
          <path
             d="m 31479.227,37838.615 q -10.79,13.119 -23.021,14.177 -12.374,0.94 -25.637,-9.97 l -32.581,-26.799 -9.368,11.389 q -1.186,1.442 -3.025,1.621 -1.84,0.179 -3.281,-1.007 l -8.506,-6.996 q -1.441,-1.186 -1.621,-3.025 -0.179,-1.84 1.007,-3.281 l 9.368,-11.389 -23.931,-19.685 q -1.586,-1.304 -1.621,-3.025 -0.179,-1.839 1.007,-3.28 l 9.842,-11.966 q 1.305,-1.586 3.025,-1.621 1.695,-0.297 3.281,1.007 l 23.931,19.684 14.823,-18.02 q 1.186,-1.442 3.025,-1.621 1.839,-0.179 3.281,1.007 l 8.505,6.996 q 1.442,1.186 1.621,3.025 0.179,1.839 -1.007,3.281 l -14.822,18.021 30.995,25.494 q 6.199,5.099 11.149,5.546 4.95,0.446 8.982,-4.456 l 8.301,-10.091 q 1.304,-1.586 3.025,-1.621 1.695,-0.297 3.281,1.007 l 9.082,7.471 q 1.442,1.185 1.621,3.025 0.297,1.695 -1.007,3.281 z"
             style="font-size:186.667px;fill:#ffffff"
             id="path17959" />
          <path
             d="m 31558.348,37755.319 q -13.421,13.241 -28.987,11.816 -15.697,-1.557 -30.521,-15.253 l -4.459,-4.254 -4.193,-4.516 q -13.366,-14.609 -14.712,-30.326 -1.344,-15.981 12.076,-29.222 12.757,-12.586 28.984,-11.289 l -29.105,-29.499 q -1.442,-1.461 -1.299,-3.176 0.01,-1.848 1.341,-3.159 l 11.561,-11.406 q 1.462,-1.442 3.176,-1.299 1.717,-0.12 3.159,1.342 l 86.79,87.965 q 1.311,1.329 1.299,3.177 0.12,1.717 -1.341,3.159 l -10.764,10.619 q -1.328,1.311 -3.176,1.299 -1.848,-0.01 -3.159,-1.342 l -4.851,-4.916 q 2,16.645 -11.819,30.28 z m -9.11,-19.333 q 7.574,-7.473 6.442,-15.796 -1.13,-8.588 -7.811,-16.157 -1.44,-1.725 -4.849,-5.18 -3.54,-3.588 -5.246,-5.051 -6.821,-6.382 -15.263,-7.231 -8.442,-0.849 -15.75,6.362 -14.218,14.028 2.157,32.486 l 3.8,4.117 4.066,3.855 q 18.236,16.623 32.454,2.595 z"
             style="font-size:186.667px;fill:#ffffff"
             id="path17961" />
          <path
             d="m 31642.621,37677.92 q -13.21,10.974 -27.977,8.681 -14.767,-2.292 -27.291,-17.369 l -33.519,-40.346 q -1.312,-1.58 -1.023,-3.276 0.17,-1.84 1.606,-3.033 l 12.922,-10.736 q 1.436,-1.192 3.276,-1.022 1.84,0.17 3.033,1.606 l 32.803,39.485 q 14.672,17.66 30.035,4.897 7.467,-6.203 7.838,-14.52 0.514,-8.436 -6.285,-16.62 l -32.803,-39.485 q -1.312,-1.579 -1.023,-3.276 0.17,-1.84 1.606,-3.033 l 12.779,-10.616 q 1.579,-1.312 3.276,-1.023 1.721,0.03 3.033,1.606 l 56.302,67.771 q 1.193,1.436 1.023,3.276 -0.03,1.72 -1.606,3.033 l -11.917,9.9 q -1.436,1.193 -3.276,1.023 -1.84,-0.17 -3.033,-1.606 l -4.891,-5.887 q 1.049,17.33 -14.888,30.57 z"
             style="font-size:186.667px;fill:#ffffff"
             id="path17963" />
          <path
             d="m 31774.502,37579.887 q -17.185,11.238 -33.729,8.451 -16.386,-2.889 -28.045,-19.353 l -4.243,-6.147 -3.93,-6.351 q -10.409,-17.282 -6.486,-33.452 4.079,-16.273 21.264,-27.511 12.342,-8.071 23.639,-9.213 11.453,-1.245 19.704,2.504 8.305,3.491 12.397,9.067 1.178,1.46 0.643,3.371 -0.378,1.809 -1.94,2.831 l -13.905,9.092 q -1.718,1.124 -2.908,1.01 -1.292,-0.27 -3.299,-1.634 -6.226,-4.405 -11.868,-4.506 -5.486,-0.204 -11.423,3.678 -7.968,5.21 -9.229,13.172 -1.105,7.86 5.325,18.376 l 3.624,5.882 3.528,5.053 q 14.218,19.697 30.466,9.072 6.093,-3.984 8.208,-8.936 2.012,-5.108 0.371,-12.733 -0.498,-2.127 -0.228,-3.419 0.426,-1.394 2.145,-2.518 l 13.904,-9.092 q 1.563,-1.022 3.371,-0.644 1.965,0.277 2.831,1.941 3.263,5.672 3.39,14.734 0.02,8.905 -5.449,18.953 -5.474,10.047 -18.128,18.322 z"
             style="font-size:186.667px;fill:#ffffff"
             id="path17965" />
          <path
             d="m 31866.975,37524.65 q -19.346,10.532 -35.193,6.408 -15.848,-4.124 -26.129,-21.056 l -4.091,-7.125 -3.763,-7.303 q -8.552,-17.66 -3.251,-33.299 5.212,-15.802 24.229,-26.155 18.854,-10.265 34.955,-6.065 16.012,4.035 26.203,20.803 1.235,1.878 4.092,7.124 2.856,5.246 3.763,7.303 8.641,17.824 3.504,33.373 -5.137,15.55 -24.319,25.992 z m -9.015,-16.558 q 8.689,-4.731 10.334,-12.64 1.809,-7.999 -3.575,-18.67 -0.729,-1.728 -3.317,-6.483 -2.588,-4.754 -3.645,-6.304 -6.04,-10.314 -13.74,-13.136 -7.789,-2.986 -16.314,1.655 -8.689,4.731 -10.409,12.893 -1.809,7.999 3.575,18.67 l 3.317,6.483 3.645,6.305 q 6.041,10.314 13.74,13.135 7.7,2.822 16.389,-1.908 z"
             style="font-size:186.667px;fill:#ffffff"
             id="path17967" />
          <path
             d="m 31959.627,37478.701 q -17.252,7.603 -31.294,0.735 -14.116,-7.039 -23.1,-25.111 l -2.654,-5.561 -2.314,-5.713 q -7.295,-18.408 -2.963,-33.575 4.427,-15.414 21.68,-23.017 16.398,-7.225 31.103,-0.242 l -16.71,-37.922 q -0.828,-1.879 -0.08,-3.43 0.669,-1.723 2.377,-2.476 l 14.861,-6.548 q 1.879,-0.828 3.431,-0.08 1.647,0.498 2.475,2.377 l 49.829,113.082 q 0.753,1.708 0.08,3.431 -0.498,1.647 -2.377,2.475 l -13.836,6.097 q -1.709,0.752 -3.431,0.08 -1.723,-0.669 -2.476,-2.377 l -2.785,-6.321 q -4.05,16.268 -21.816,24.096 z m -1.638,-21.308 q 9.737,-4.291 11.639,-12.472 1.998,-8.428 -1.554,-17.878 -0.732,-2.125 -2.689,-6.567 -2.033,-4.612 -3.107,-6.586 -4.105,-8.391 -11.693,-12.186 -7.588,-3.796 -16.983,0.344 -18.278,8.054 -9.538,31.128 l 2.087,5.2 2.429,5.05 q 11.132,22.021 29.409,13.967 z"
             style="font-size:186.667px;fill:#ffffff"
             id="path17969" />
          <path
             d="m 32071.577,37434.405 q -19.761,6.827 -35.307,-0.442 -15.369,-7.329 -23.268,-27.905 l -1.7,-4.349 q -7.62,-22.055 -0.54,-38.72 7.255,-16.726 27.722,-23.797 20.995,-7.254 36.676,1.548 15.857,8.741 23.172,29.913 l 1.28,3.705 q 0.609,1.764 -0.199,3.426 -0.808,1.662 -2.749,2.332 l -58.576,20.238 0.488,1.411 q 3.766,9.759 10.962,14.58 7.311,4.584 16.132,1.536 10.057,-3.475 13.605,-13.785 0.917,-2.489 1.677,-3.147 0.7,-0.834 2.817,-1.566 l 15.526,-5.364 q 1.588,-0.548 2.951,-0.03 1.54,0.456 2.089,2.043 1.463,4.235 -1.642,11.825 -2.99,7.353 -10.878,14.818 -7.888,7.465 -20.238,11.732 z m -0.03,-62.398 -0.122,-0.352 q -3.597,-10.41 -11.023,-14.756 -7.311,-4.584 -16.309,-1.476 -8.998,3.109 -11.921,11.229 -2.983,7.943 0.614,18.352 l 0.122,0.353 z"
             style="font-size:186.667px;fill:#ffffff"
             id="path17971" />
          <path
             d="m 32183.471,37398.807 q -1.301,0.293 -2.416,-0.413 -1.116,-0.705 -1.409,-2.006 l -1.523,-6.764 q -0.821,-3.642 1.875,-6.846 l 15.75,-24.732 q 7.595,-9.364 11.512,-15.03 4.018,-5.825 5.611,-10.284 1.592,-4.459 0.743,-8.231 -1.377,-6.114 -5.42,-8.893 -4.043,-2.78 -10.677,-1.286 -6.504,1.465 -9.397,6.217 -2.792,4.593 -2.326,10.911 -0.04,1.649 -1.033,2.693 -0.894,0.885 -2.195,1.178 l -11.707,2.637 q -1.171,0.263 -2.127,-0.341 -0.956,-0.605 -1.22,-1.776 -1.468,-7.733 0.94,-15.245 2.509,-7.673 9.015,-13.375 6.477,-5.832 16.492,-8.088 10.406,-2.344 18.511,-0.342 8.075,1.871 13.123,7.294 5.049,5.423 6.836,13.358 1.963,8.715 -1.369,16.982 -3.23,8.108 -11.69,18.487 l -13.949,22.413 36.811,-8.291 q 1.431,-0.322 2.546,0.383 1.116,0.706 1.438,2.136 l 2.11,9.366 q 0.322,1.431 -0.384,2.546 -0.734,0.986 -2.165,1.308 z"
             style="font-size:133.333px"
             id="path17973" />
          <path
             d="m 32298.682,37376.978 q -17.643,2.817 -27.888,-5.538 -10.114,-8.377 -13.427,-24.051 -0.699,-3.534 -2.066,-12.092 -1.387,-8.69 -1.844,-12.398 -1.823,-15.641 5.443,-26.793 7.266,-11.152 24.646,-13.927 17.38,-2.775 27.757,5.56 10.377,8.335 13.516,23.766 1.441,7.331 2.24,12.334 0.799,5.004 1.67,12.156 1.733,15.926 -5.401,27.056 -7.002,11.11 -24.646,13.927 z m -2.459,-15.405 q 8.163,-1.303 11.404,-7.221 3.219,-6.05 1.906,-15.967 -0.478,-3.84 -1.74,-11.74 -1.261,-7.899 -1.96,-11.433 -1.798,-9.57 -6.742,-14.316 -4.943,-4.747 -13.128,-3.575 -8.142,1.435 -11.361,7.485 -3.22,6.05 -1.949,15.703 0.436,3.576 1.698,11.476 1.261,7.9 2.002,11.698 1.84,9.832 6.784,14.579 4.922,4.615 13.086,3.311 z"
             style="font-size:133.333px"
             id="path17975" />
          <path
             d="m 32351.117,37367.927 q -1.327,0.126 -2.345,-0.714 -1.017,-0.84 -1.144,-2.168 l -0.659,-6.902 q -0.354,-3.716 2.723,-6.555 l 18.743,-22.549 q 8.714,-8.332 13.315,-13.459 4.72,-5.272 6.862,-9.494 2.142,-4.223 1.775,-8.072 -0.595,-6.239 -4.256,-9.506 -3.66,-3.267 -10.429,-2.621 -6.637,0.634 -10.106,4.983 -3.349,4.204 -3.683,10.531 -0.246,1.63 -1.365,2.541 -0.998,0.765 -2.325,0.891 l -11.946,1.14 q -1.195,0.114 -2.067,-0.606 -0.872,-0.72 -0.986,-1.915 -0.482,-7.856 2.854,-15.006 3.456,-7.294 10.629,-12.131 7.16,-4.969 17.38,-5.944 10.619,-1.014 18.406,1.993 7.775,2.875 12.099,8.891 4.325,6.017 5.097,14.113 0.849,8.893 -3.498,16.675 -4.227,7.636 -13.928,16.865 l -16.663,20.476 37.562,-3.584 q 1.461,-0.14 2.478,0.701 1.018,0.84 1.157,2.3 l 0.912,9.557 q 0.14,1.46 -0.701,2.478 -0.853,0.885 -2.313,1.024 z"
             style="font-size:133.333px"
             id="path17977" />
          <path
             d="m 32433.472,37360.634 q -1.333,0.04 -2.297,-0.856 -0.964,-0.902 -1.01,-2.234 l -0.234,-6.929 q -0.127,-3.732 3.119,-6.376 l 20.087,-21.36 q 9.209,-7.783 14.114,-12.619 5.035,-4.973 7.431,-9.057 2.396,-4.083 2.265,-7.948 -0.212,-6.263 -3.665,-9.748 -3.454,-3.485 -10.25,-3.254 -6.663,0.226 -10.392,4.354 -3.6,3.991 -4.32,10.286 -0.346,1.613 -1.518,2.453 -1.043,0.702 -2.376,0.747 l -11.993,0.407 q -1.199,0.04 -2.026,-0.732 -0.827,-0.772 -0.867,-1.972 0,-7.871 3.767,-14.802 3.896,-7.07 11.352,-11.458 7.451,-4.522 17.711,-4.87 10.661,-0.361 18.25,3.117 7.584,3.345 11.532,9.615 3.948,6.27 4.224,14.398 0.302,8.929 -4.513,16.429 -4.686,7.363 -14.934,15.982 l -17.885,19.417 37.711,-1.278 q 1.466,-0.05 2.43,0.851 0.965,0.901 1.015,2.367 l 0.325,9.595 q 0.05,1.465 -0.852,2.43 -0.905,0.831 -2.371,0.881 z"
             style="font-size:133.333px"
             id="path17979" />
        </g>
        <path
           id="ellipse16884"
           style="font-size:40px;line-height:1.25;letter-spacing:0px;word-spacing:0px;fill:#ffffff;stroke-width:27.3658;stroke-linecap:round;stroke-dasharray:82.0977, 82.0977;paint-order:fill markers stroke"
           d="m 43768.098,48208.586 a 18.773684,18.773685 0 0 1 -18.774,18.774 18.773684,18.773685 0 0 1 -18.773,-18.774 18.773684,18.773685 0 0 1 18.773,-18.774 18.773684,18.773685 0 0 1 18.774,18.774 z" />
        <path
           id="circle16886"
           style="font-size:40px;line-height:1.25;letter-spacing:0px;word-spacing:0px;fill:#ffffff;stroke-width:40.1366;stroke-linecap:round;stroke-dasharray:120.41, 120.41;paint-order:fill markers stroke"
           d="m 44334.562,47211.711 a 27.534737,27.534737 0 0 1 -27.535,27.535 27.534737,27.534737 0 0 1 -27.534,-27.535 27.534737,27.534737 0 0 1 27.534,-27.535 27.534737,27.534737 0 0 1 27.535,27.535 z" />
        <path
           id="circle16888"
           style="font-size:40px;line-height:1.25;letter-spacing:0px;word-spacing:0px;fill:#ffffff;stroke-width:40.1366;stroke-linecap:round;stroke-dasharray:120.41, 120.41;paint-order:fill markers stroke"
           d="m 44740.191,47108.988 a 27.534737,27.534737 0 0 1 -27.535,27.535 27.534737,27.534737 0 0 1 -27.534,-27.535 27.534737,27.534737 0 0 1 27.534,-27.534 27.534737,27.534737 0 0 1 27.535,27.534 z" />
        <path
           id="circle16890"
           style="font-size:40px;line-height:1.25;letter-spacing:0px;word-spacing:0px;fill:#ffffff;stroke-width:40.1366;stroke-linecap:round;stroke-dasharray:120.41, 120.41;paint-order:fill markers stroke"
           d="m 45081.875,46760.559 a 27.534737,27.534737 0 0 1 -27.535,27.534 27.534737,27.534737 0 0 1 -27.535,-27.534 27.534737,27.534737 0 0 1 27.535,-27.535 27.534737,27.534737 0 0 1 27.535,27.535 z" />
        <path
           id="ellipse16892"
           style="font-size:40px;line-height:1.25;letter-spacing:0px;word-spacing:0px;fill:#ffffff;stroke-width:27.3658;stroke-linecap:round;stroke-dasharray:82.0977, 82.0977;paint-order:fill markers stroke"
           d="m 44473.606,46980.598 a 18.773684,18.773685 0 0 1 -18.774,18.773 18.773684,18.773685 0 0 1 -18.774,-18.773 18.773684,18.773685 0 0 1 18.774,-18.774 18.773684,18.773685 0 0 1 18.774,18.774 z" />
        <path
           id="ellipse16896"
           style="font-size:40px;line-height:1.25;letter-spacing:0px;word-spacing:0px;fill:#ffffff;stroke-width:27.3658;stroke-linecap:round;stroke-dasharray:82.0977, 82.0977;paint-order:fill markers stroke"
           d="m 43823.504,47548.035 a 18.773684,18.773685 0 0 1 -18.774,18.774 18.773684,18.773685 0 0 1 -18.773,-18.774 18.773684,18.773685 0 0 1 18.773,-18.774 18.773684,18.773685 0 0 1 18.774,18.774 z" />
        <path
           id="ellipse16898"
           style="font-size:40px;line-height:1.25;letter-spacing:0px;word-spacing:0px;fill:#ffffff;stroke-width:27.3658;stroke-linecap:round;stroke-dasharray:82.0977, 82.0977;paint-order:fill markers stroke"
           d="m 44138.02,48841.52 a 18.773684,18.773685 0 0 1 -18.774,18.773 18.773684,18.773685 0 0 1 -18.774,-18.773 18.773684,18.773685 0 0 1 18.774,-18.774 18.773684,18.773685 0 0 1 18.774,18.774 z" />
        <path
           id="circle16900"
           style="font-size:40px;line-height:1.25;letter-spacing:0px;word-spacing:0px;fill:#ffffff;stroke-width:40.1366;stroke-linecap:round;stroke-dasharray:120.41, 120.41;paint-order:fill markers stroke"
           d="m 46158.718,48700.516 a 27.534737,27.534737 0 0 1 -27.534,27.534 27.534737,27.534737 0 0 1 -27.535,-27.534 27.534737,27.534737 0 0 1 27.535,-27.535 27.534737,27.534737 0 0 1 27.534,27.535 z" />
        <path
           id="ellipse16902"
           style="font-size:40px;line-height:1.25;letter-spacing:0px;word-spacing:0px;fill:#ffffff;stroke-width:27.3658;stroke-linecap:round;stroke-dasharray:82.0977, 82.0977;paint-order:fill markers stroke"
           d="m 46429.824,47973.172 a 18.773684,18.773685 0 0 1 -18.773,18.774 18.773684,18.773685 0 0 1 -18.774,-18.774 18.773684,18.773685 0 0 1 18.774,-18.774 18.773684,18.773685 0 0 1 18.773,18.774 z" />
        <path
           id="path16904"
           style="font-size:40px;line-height:1.25;letter-spacing:0px;word-spacing:0px;fill:#ffffff;fill-opacity:1;stroke-width:60.3576;stroke-linecap:round;stroke-dasharray:181.073, 181.073;paint-order:fill markers stroke"
           d="m 45450.333,46699.614 a 267.2629,267.26292 0 0 0 -152.746,241.203 267.2629,267.26292 0 0 0 267.259,267.27 267.2629,267.26292 0 0 0 257.148,-195.225 247.79998,247.79998 0 0 1 -156.453,56.169 247.79998,247.79998 0 0 1 -247.803,-247.8 247.79998,247.79998 0 0 1 32.595,-121.617 z" />
        <path
           id="circle16906"
           style="font-size:40px;line-height:1.25;letter-spacing:0px;word-spacing:0px;fill:#ffffff;stroke-width:40.1366;stroke-linecap:round;stroke-dasharray:120.41, 120.41;paint-order:fill markers stroke"
           d="m 46152.109,47015.09 a 27.534737,27.534737 0 0 1 -27.535,27.535 27.534737,27.534737 0 0 1 -27.535,-27.535 27.534737,27.534737 0 0 1 27.535,-27.535 27.534737,27.534737 0 0 1 27.535,27.535 z" />
        <path
           id="ellipse16910"
           style="font-size:40px;line-height:1.25;letter-spacing:0px;word-spacing:0px;fill:#ffffff;stroke-width:27.3658;stroke-linecap:round;stroke-dasharray:82.0977, 82.0977;paint-order:fill markers stroke"
           d="m 45152.899,48925.719 a 18.773684,18.773685 0 0 1 -18.774,18.773 18.773684,18.773685 0 0 1 -18.774,-18.773 18.773684,18.773685 0 0 1 18.774,-18.774 18.773684,18.773685 0 0 1 18.774,18.774 z" />
        <path
           id="circle16912"
           style="font-size:40px;line-height:1.25;letter-spacing:0px;word-spacing:0px;fill:#ffffff;stroke-width:40.1366;stroke-linecap:round;stroke-dasharray:120.41, 120.41;paint-order:fill markers stroke"
           d="m 44695.289,48823.594 a 27.534737,27.534737 0 0 1 -27.535,27.534 27.534737,27.534737 0 0 1 -27.535,-27.534 27.534737,27.534737 0 0 1 27.535,-27.535 27.534737,27.534737 0 0 1 27.535,27.535 z" />
        <path
           id="ellipse16914"
           style="font-size:40px;line-height:1.25;letter-spacing:0px;word-spacing:0px;fill:#ffffff;stroke-width:27.3658;stroke-linecap:round;stroke-dasharray:82.0977, 82.0977;paint-order:fill markers stroke"
           d="m 45170.543,47254.984 a 18.773684,18.773685 0 0 1 -18.773,18.774 18.773684,18.773685 0 0 1 -18.774,-18.774 18.773684,18.773685 0 0 1 18.774,-18.773 18.773684,18.773685 0 0 1 18.773,18.773 z" />
        <g
           aria-label="www.nuitducode.net"
           id="text16918"
           style="font-size:93.3333px;line-height:1.25;letter-spacing:0px;word-spacing:0px;fill:#ffffff;stroke-width:1.00001">
          <path
             d="m 44615.843,49163.453 -9.893,-45.36 h 7.653 l 5.413,26.32 q 0.654,3.267 1.12,6.253 0.467,2.987 0.934,6.254 h 0.373 q 0.467,-3.267 1.12,-6.254 0.747,-3.08 1.493,-6.253 l 5.6,-23.52 h 7.654 l 5.413,23.52 q 0.747,3.267 1.493,6.253 0.84,2.987 1.307,6.254 h 0.373 q 0.56,-3.267 0.934,-6.254 0.466,-2.986 1.12,-6.253 l 5.413,-26.32 h 7.093 l -9.706,45.36 h -9.894 l -5.226,-21.653 q -1.12,-4.76 -2.24,-13.44 h -0.374 q -1.12,8.68 -2.24,13.44 l -5.04,21.653 z"
             style="font-family:'Source Code Pro';-inkscape-font-specification:'Source Code Pro'"
             id="path17791" />
          <path
             d="m 44671.843,49163.453 -9.893,-45.36 h 7.653 l 5.413,26.32 q 0.654,3.267 1.12,6.253 0.467,2.987 0.934,6.254 h 0.373 q 0.467,-3.267 1.12,-6.254 0.747,-3.08 1.493,-6.253 l 5.6,-23.52 h 7.654 l 5.413,23.52 q 0.747,3.267 1.493,6.253 0.84,2.987 1.307,6.254 h 0.373 q 0.56,-3.267 0.934,-6.254 0.466,-2.986 1.12,-6.253 l 5.413,-26.32 h 7.093 l -9.706,45.36 h -9.894 l -5.226,-21.653 q -1.12,-4.76 -2.24,-13.44 h -0.374 q -1.12,8.68 -2.24,13.44 l -5.04,21.653 z"
             style="font-family:'Source Code Pro';-inkscape-font-specification:'Source Code Pro'"
             id="path17793" />
          <path
             d="m 44727.843,49163.453 -9.893,-45.36 h 7.653 l 5.413,26.32 q 0.654,3.267 1.12,6.253 0.467,2.987 0.934,6.254 h 0.373 q 0.467,-3.267 1.12,-6.254 0.747,-3.08 1.493,-6.253 l 5.6,-23.52 h 7.654 l 5.413,23.52 q 0.747,3.267 1.493,6.253 0.84,2.987 1.307,6.254 h 0.373 q 0.56,-3.267 0.934,-6.254 0.466,-2.986 1.12,-6.253 l 5.413,-26.32 h 7.093 l -9.706,45.36 h -9.894 l -5.226,-21.653 q -1.12,-4.76 -2.24,-13.44 h -0.374 q -1.12,8.68 -2.24,13.44 l -5.04,21.653 z"
             style="font-family:'Source Code Pro';-inkscape-font-specification:'Source Code Pro'"
             id="path17795" />
          <path
             d="m 44801.203,49164.573 q -3.173,0 -5.413,-2.147 -2.147,-2.146 -2.147,-5.693 0,-3.547 2.147,-5.693 2.24,-2.24 5.413,-2.24 3.173,0 5.32,2.24 2.24,2.146 2.24,5.693 0,3.547 -2.24,5.693 -2.147,2.147 -5.32,2.147 z"
             style="font-family:'Source Code Pro';-inkscape-font-specification:'Source Code Pro'"
             id="path17797" />
          <path
             d="m 44837.883,49163.453 v -45.36 h 6.347 l 0.653,7.747 h 0.374 q 3.546,-3.827 7.653,-6.347 4.107,-2.52 9.427,-2.52 8.12,0 11.853,4.667 3.827,4.573 3.827,13.626 v 28.187 h -7.654 v -27.16 q 0,-6.44 -2.426,-9.52 -2.427,-3.173 -8.027,-3.173 -2.053,0 -3.827,0.56 -1.68,0.466 -3.36,1.493 -1.68,1.027 -3.453,2.613 -1.773,1.494 -3.733,3.547 v 31.64 z"
             style="font-family:'Source Code Pro';-inkscape-font-specification:'Source Code Pro'"
             id="path17799" />
          <path
             d="m 44908.163,49164.573 q -8.213,0 -12.04,-4.573 -3.733,-4.667 -3.733,-13.72 v -28.187 h 7.747 v 27.16 q 0,6.44 2.333,9.613 2.427,3.08 8.12,3.08 3.92,0 7.093,-1.96 3.174,-2.053 7,-6.44 v -31.453 h 7.654 v 45.36 h -6.254 l -0.653,-7.933 h -0.373 q -3.454,4.013 -7.56,6.533 -4.014,2.52 -9.334,2.52 z"
             style="font-family:'Source Code Pro';-inkscape-font-specification:'Source Code Pro'"
             id="path17801" />
          <path
             d="m 44970.697,49163.453 v -39.107 h -21.094 v -6.253 h 28.747 v 45.36 z m 2.986,-54.88 q -2.613,0 -4.386,-1.587 -1.774,-1.68 -1.774,-4.386 0,-2.707 1.774,-4.294 1.773,-1.68 4.386,-1.68 2.614,0 4.387,1.68 1.773,1.587 1.773,4.294 0,2.706 -1.773,4.386 -1.773,1.587 -4.387,1.587 z"
             style="font-family:'Source Code Pro';-inkscape-font-specification:'Source Code Pro'"
             id="path17803" />
          <path
             d="m 45033.977,49164.573 q -4.947,0 -8.307,-1.307 -3.36,-1.4 -5.413,-3.826 -2.054,-2.52 -2.987,-5.974 -0.84,-3.453 -0.84,-7.653 v -21.467 h -12.787 v -5.786 l 13.067,-0.467 1.027,-14.56 h 6.346 v 14.56 h 22.307 v 6.253 h -22.307 v 21.56 q 0,3.08 0.56,5.414 0.56,2.24 1.867,3.826 1.307,1.587 3.547,2.427 2.24,0.747 5.506,0.747 3.267,0 5.88,-0.56 2.614,-0.56 5.04,-1.494 l 1.68,5.6 q -3.08,1.12 -6.533,1.867 -3.36,0.84 -7.653,0.84 z"
             style="font-family:'Source Code Pro';-inkscape-font-specification:'Source Code Pro'"
             id="path17805" />
          <path
             d="m 45078.497,49164.573 q -4.48,0 -8.12,-1.587 -3.547,-1.586 -6.16,-4.573 -2.614,-3.08 -4.014,-7.467 -1.4,-4.386 -1.4,-10.08 0,-5.506 1.68,-9.893 1.774,-4.48 4.574,-7.56 2.893,-3.08 6.626,-4.76 3.734,-1.68 7.747,-1.68 4.107,0 7.28,1.587 3.267,1.493 6.253,4.293 h 0.28 l -0.373,-8.4 V 49097 h 7.653 v 66.453 h -6.346 l -0.654,-5.973 h -0.28 q -2.8,2.893 -6.72,5.04 -3.826,2.053 -8.026,2.053 z m 1.586,-6.44 q 6.72,0 12.787,-6.813 v -22.587 q -3.08,-2.893 -6.067,-4.107 -2.893,-1.213 -5.88,-1.213 -2.986,0 -5.6,1.307 -2.52,1.213 -4.48,3.546 -1.866,2.24 -2.986,5.414 -1.12,3.173 -1.12,7.093 0,8.213 3.453,12.787 3.547,4.573 9.893,4.573 z"
             style="font-family:'Source Code Pro';-inkscape-font-specification:'Source Code Pro'"
             id="path17807" />
          <path
             d="m 45132.163,49164.573 q -8.213,0 -12.04,-4.573 -3.733,-4.667 -3.733,-13.72 v -28.187 h 7.747 v 27.16 q 0,6.44 2.333,9.613 2.427,3.08 8.12,3.08 3.92,0 7.093,-1.96 3.174,-2.053 7,-6.44 v -31.453 h 7.654 v 45.36 h -6.254 l -0.653,-7.933 h -0.373 q -3.454,4.013 -7.56,6.533 -4.014,2.52 -9.334,2.52 z"
             style="font-family:'Source Code Pro';-inkscape-font-specification:'Source Code Pro'"
             id="path17809" />
          <path
             d="m 45197.497,49164.573 q -5.32,0 -9.894,-1.587 -4.48,-1.586 -7.84,-4.573 -3.36,-3.08 -5.226,-7.467 -1.867,-4.48 -1.867,-10.08 0,-5.693 1.96,-10.08 2.053,-4.48 5.507,-7.56 3.453,-3.08 8.026,-4.666 4.667,-1.587 9.8,-1.587 5.6,0 9.614,1.96 4.106,1.96 6.906,4.667 l -3.826,4.946 q -2.8,-2.426 -5.88,-3.826 -2.987,-1.4 -6.534,-1.4 -3.92,0 -7.186,1.306 -3.267,1.214 -5.6,3.547 -2.24,2.333 -3.547,5.6 -1.307,3.173 -1.307,7.093 0,3.92 1.214,7.094 1.306,3.173 3.546,5.506 2.334,2.24 5.507,3.547 3.267,1.213 7.187,1.213 4.2,0 7.653,-1.586 3.547,-1.68 6.347,-4.107 l 3.453,4.947 q -3.827,3.36 -8.4,5.226 -4.573,1.867 -9.613,1.867 z"
             style="font-family:'Source Code Pro';-inkscape-font-specification:'Source Code Pro'"
             id="path17811" />
          <path
             d="m 45249.203,49164.573 q -4.48,0 -8.586,-1.587 -4.014,-1.586 -7.094,-4.573 -3.08,-3.08 -4.946,-7.467 -1.774,-4.48 -1.774,-10.08 0,-5.693 1.774,-10.08 1.866,-4.48 4.946,-7.56 3.08,-3.08 7.094,-4.666 4.106,-1.587 8.586,-1.587 4.48,0 8.494,1.587 4.106,1.586 7.186,4.666 3.08,3.08 4.854,7.56 1.866,4.387 1.866,10.08 0,5.6 -1.866,10.08 -1.774,4.387 -4.854,7.467 -3.08,2.987 -7.186,4.573 -4.014,1.587 -8.494,1.587 z m 0,-6.347 q 3.267,0 5.88,-1.213 2.707,-1.307 4.574,-3.547 1.96,-2.333 2.986,-5.506 1.027,-3.174 1.027,-7.094 0,-3.92 -1.027,-7.093 -1.026,-3.267 -2.986,-5.6 -1.867,-2.333 -4.574,-3.547 -2.613,-1.306 -5.88,-1.306 -3.266,0 -5.973,1.306 -2.613,1.214 -4.573,3.547 -1.867,2.333 -2.894,5.6 -1.026,3.173 -1.026,7.093 0,3.92 1.026,7.094 1.027,3.173 2.894,5.506 1.96,2.24 4.573,3.547 2.707,1.213 5.973,1.213 z"
             style="font-family:'Source Code Pro';-inkscape-font-specification:'Source Code Pro'"
             id="path17813" />
          <path
             d="m 45302.497,49164.573 q -4.48,0 -8.12,-1.587 -3.547,-1.586 -6.16,-4.573 -2.614,-3.08 -4.014,-7.467 -1.4,-4.386 -1.4,-10.08 0,-5.506 1.68,-9.893 1.774,-4.48 4.574,-7.56 2.893,-3.08 6.626,-4.76 3.734,-1.68 7.747,-1.68 4.107,0 7.28,1.587 3.267,1.493 6.253,4.293 h 0.28 l -0.373,-8.4 V 49097 h 7.653 v 66.453 h -6.346 l -0.654,-5.973 h -0.28 q -2.8,2.893 -6.72,5.04 -3.826,2.053 -8.026,2.053 z m 1.586,-6.44 q 6.72,0 12.787,-6.813 v -22.587 q -3.08,-2.893 -6.067,-4.107 -2.893,-1.213 -5.88,-1.213 -2.986,0 -5.6,1.307 -2.52,1.213 -4.48,3.546 -1.866,2.24 -2.986,5.414 -1.12,3.173 -1.12,7.093 0,8.213 3.453,12.787 3.547,4.573 9.893,4.573 z"
             style="font-family:'Source Code Pro';-inkscape-font-specification:'Source Code Pro'"
             id="path17815" />
          <path
             d="m 45364.003,49164.573 q -5.133,0 -9.613,-1.587 -4.387,-1.586 -7.747,-4.666 -3.266,-3.08 -5.226,-7.467 -1.867,-4.48 -1.867,-10.173 0,-5.507 1.867,-9.894 1.96,-4.386 5.133,-7.466 3.267,-3.08 7.373,-4.667 4.2,-1.68 8.774,-1.68 4.853,0 8.68,1.587 3.92,1.493 6.533,4.293 2.707,2.8 4.107,6.72 1.4,3.92 1.4,8.68 0,1.307 -0.09,2.52 -0.09,1.213 -0.28,2.147 h -35.746 q 0.746,7.746 5.6,11.666 4.946,3.827 12.04,3.827 4.106,0 7.373,-1.12 3.36,-1.213 6.44,-3.173 l 2.8,5.04 q -3.36,2.24 -7.747,3.826 -4.293,1.587 -9.8,1.587 z m -1.12,-41.533 q -2.8,0 -5.413,0.933 -2.52,0.933 -4.573,2.707 -2.054,1.68 -3.454,4.293 -1.4,2.613 -1.96,5.973 h 28.934 q -0.467,-7 -4.107,-10.453 -3.547,-3.453 -9.427,-3.453 z"
             style="font-family:'Source Code Pro';-inkscape-font-specification:'Source Code Pro'"
             id="path17817" />
          <path
             d="m 45417.203,49164.573 q -3.173,0 -5.413,-2.147 -2.147,-2.146 -2.147,-5.693 0,-3.547 2.147,-5.693 2.24,-2.24 5.413,-2.24 3.174,0 5.32,2.24 2.24,2.146 2.24,5.693 0,3.547 -2.24,5.693 -2.146,2.147 -5.32,2.147 z"
             style="font-family:'Source Code Pro';-inkscape-font-specification:'Source Code Pro'"
             id="path17819" />
          <path
             d="m 45453.883,49163.453 v -45.36 h 6.347 l 0.653,7.747 h 0.374 q 3.546,-3.827 7.653,-6.347 4.107,-2.52 9.427,-2.52 8.12,0 11.853,4.667 3.827,4.573 3.827,13.626 v 28.187 h -7.654 v -27.16 q 0,-6.44 -2.426,-9.52 -2.427,-3.173 -8.027,-3.173 -2.053,0 -3.827,0.56 -1.68,0.466 -3.36,1.493 -1.68,1.027 -3.453,2.613 -1.773,1.494 -3.733,3.547 v 31.64 z"
             style="font-family:'Source Code Pro';-inkscape-font-specification:'Source Code Pro'"
             id="path17821" />
          <path
             d="m 45532.003,49164.573 q -5.133,0 -9.613,-1.587 -4.387,-1.586 -7.747,-4.666 -3.266,-3.08 -5.226,-7.467 -1.867,-4.48 -1.867,-10.173 0,-5.507 1.867,-9.894 1.96,-4.386 5.133,-7.466 3.267,-3.08 7.373,-4.667 4.2,-1.68 8.774,-1.68 4.853,0 8.68,1.587 3.92,1.493 6.533,4.293 2.707,2.8 4.107,6.72 1.4,3.92 1.4,8.68 0,1.307 -0.09,2.52 -0.09,1.213 -0.28,2.147 h -35.746 q 0.746,7.746 5.6,11.666 4.946,3.827 12.04,3.827 4.106,0 7.373,-1.12 3.36,-1.213 6.44,-3.173 l 2.8,5.04 q -3.36,2.24 -7.747,3.826 -4.293,1.587 -9.8,1.587 z m -1.12,-41.533 q -2.8,0 -5.413,0.933 -2.52,0.933 -4.573,2.707 -2.054,1.68 -3.454,4.293 -1.4,2.613 -1.96,5.973 h 28.934 q -0.467,-7 -4.107,-10.453 -3.547,-3.453 -9.427,-3.453 z"
             style="font-family:'Source Code Pro';-inkscape-font-specification:'Source Code Pro'"
             id="path17823" />
          <path
             d="m 45593.977,49164.573 q -4.947,0 -8.307,-1.307 -3.36,-1.4 -5.413,-3.826 -2.054,-2.52 -2.987,-5.974 -0.84,-3.453 -0.84,-7.653 v -21.467 h -12.787 v -5.786 l 13.067,-0.467 1.027,-14.56 h 6.346 v 14.56 h 22.307 v 6.253 h -22.307 v 21.56 q 0,3.08 0.56,5.414 0.56,2.24 1.867,3.826 1.307,1.587 3.547,2.427 2.24,0.747 5.506,0.747 3.267,0 5.88,-0.56 2.614,-0.56 5.04,-1.494 l 1.68,5.6 q -3.08,1.12 -6.533,1.867 -3.36,0.84 -7.653,0.84 z"
             style="font-family:'Source Code Pro';-inkscape-font-specification:'Source Code Pro'"
             id="path17825" />
        </g>
      </g>
      <path
         id="circle16894"
         style="font-size:40px;line-height:1.25;letter-spacing:0px;word-spacing:0px;fill:#ffffff;stroke-width:40.1366;stroke-linecap:round;stroke-dasharray:120.41, 120.41;paint-order:fill markers stroke"
         d="m 44384.877,50980.106 a 27.534737,27.534737 0 0 1 -27.534,27.534 27.534737,27.534737 0 0 1 -27.535,-27.534 27.534737,27.534737 0 0 1 27.535,-27.535 27.534737,27.534737 0 0 1 27.534,27.535 z" />
      <g
         id="g39422">
        <path
           id="circle16908"
           style="font-size:40px;line-height:1.25;letter-spacing:0px;word-spacing:0px;fill:#ffffff;stroke-width:40.1366;stroke-linecap:round;stroke-dasharray:120.41, 120.41;paint-order:fill markers stroke"
           d="m 45985.417,50050.43 a 27.534737,27.534737 0 0 1 -27.535,27.535 27.534737,27.534737 0 0 1 -27.535,-27.535 27.534737,27.534737 0 0 1 27.535,-27.535 27.534737,27.534737 0 0 1 27.535,27.535 z" />
        <path
           id="path16922"
           style="font-size:40px;line-height:1.25;letter-spacing:0px;word-spacing:0px;fill:#ffe001;fill-opacity:1;stroke-width:27.3658;stroke-linecap:round;stroke-dasharray:82.0977, 82.0977;paint-order:fill markers stroke"
           d="m 44177.99,49997.33 v 79.757 h -74.773 v 79.756 79.757 79.757 79.757 79.757 79.756 79.757 79.757 79.757 h 74.773 74.774 74.775 v -79.757 -79.757 -79.757 -79.756 h 74.773 v -79.757 -79.757 -79.757 -79.757 h -74.773 v -79.756 -79.757 h -74.775 z m 373.869,0 v 79.757 79.756 79.757 79.757 h -74.773 v -79.757 h -74.773 v 79.757 79.757 79.757 79.756 h 7.022 a 18.773684,18.773685 0 0 0 14.369,6.724 18.773684,18.773685 0 0 0 14.37,-6.724 h 39.012 v 79.757 h 74.773 v 79.757 79.757 h 74.774 74.773 v -79.757 -79.757 -79.757 -79.756 -79.757 -79.757 -79.757 -79.757 -79.756 -79.757 h -74.773 z m 149.549,0 v 79.757 79.756 79.757 79.757 79.757 79.757 79.756 79.757 79.757 79.757 h 74.773 v -79.757 -79.757 -79.757 -79.756 -79.757 -79.757 -79.757 -79.757 -79.756 -79.757 z" />
        <path
           id="path16924"
           style="font-size:40px;line-height:1.25;letter-spacing:0px;word-spacing:0px;fill:#ffffff;stroke-width:5.65001;stroke-linecap:round;paint-order:fill markers stroke"
           d="m 44103.218,49997.328 h 74.773 v 79.757 h -74.773 z" />
        <path
           id="path16926"
           style="font-size:40px;line-height:1.25;letter-spacing:0px;word-spacing:0px;fill:#dd8412;fill-opacity:1;stroke-width:4.50325;stroke-linecap:round;paint-order:fill markers stroke"
           d="m 44103.217,50794.897 v 79.757 h 74.773 74.774 74.775 v -79.757 h -74.775 -74.774 z" />
        <path
           id="path16928"
           style="font-size:40px;line-height:1.25;letter-spacing:0px;word-spacing:0px;fill:#dd8412;fill-opacity:1;stroke-width:4.50325;stroke-linecap:round;paint-order:fill markers stroke"
           inkscape:transform-center-x="116"
           d="m 44327.539,50475.87 v 79.757 h 74.773 v -79.757 z m 74.773,79.757 v 79.757 h 74.774 v -79.757 z m 74.774,79.757 v 79.757 h 74.775 v -79.757 z" />
        <path
           id="path16930"
           style="font-size:40px;line-height:1.25;letter-spacing:0px;word-spacing:0px;fill:#dd8412;fill-opacity:1;stroke-width:4.50325;stroke-linecap:round;paint-order:fill markers stroke"
           inkscape:transform-center-x="116"
           d="m 44551.861,50794.897 v 79.757 h 74.772 74.775 74.773 v -79.757 h -74.773 -74.775 z" />
        <path
           id="path16932"
           style="font-size:40px;line-height:1.25;letter-spacing:0px;word-spacing:0px;fill:#ffe001;fill-opacity:1;stroke-width:4.50325;stroke-linecap:round;paint-order:fill markers stroke"
           d="m 45039.804,49997.329 v 79.757 h -74.773 v 79.757 79.757 79.756 79.757 79.757 79.757 79.757 79.756 79.757 h 74.773 74.773 v -79.757 -79.756 -79.757 -79.757 -79.757 -79.757 -79.756 -79.757 -79.757 -79.757 z m 74.775,0 v 79.757 79.757 79.757 79.756 79.757 79.757 79.757 79.757 79.756 79.757 h 74.773 74.773 v -79.757 -79.756 -79.757 h -74.773 v -79.757 -79.757 -79.757 -79.756 h 74.773 v -79.757 -79.757 -79.757 h -74.773 z m 149.548,0 v 79.757 79.757 79.757 h 74.773 v 79.756 h 74.773 v -79.756 -79.757 -79.757 -79.757 h -74.773 z m 149.547,0 v 79.757 79.757 79.757 79.756 79.757 79.757 79.757 79.757 79.756 79.757 h 74.773 v -79.757 h 74.774 v -79.756 -79.757 -79.757 -79.757 -79.757 -79.756 -79.757 -79.757 h -74.774 v -79.757 z m 149.548,239.271 v 79.756 79.757 79.757 79.757 h 74.773 v -79.757 -79.757 -79.757 -79.756 z m -224.322,239.27 v 79.757 h -74.773 v 79.757 79.756 79.757 h 74.773 74.773 v -79.757 -79.756 -79.757 -79.757 z" />
        <path
           id="path16934"
           style="font-size:40px;line-height:1.25;letter-spacing:0px;word-spacing:0px;fill:#ffffff;stroke-width:5.65001;stroke-linecap:round;paint-order:fill markers stroke"
           d="m 44965.03,49997.328 h 74.774 v 79.757 h -74.774 z" />
        <path
           id="path16936"
           style="font-size:40px;line-height:1.25;letter-spacing:0px;word-spacing:0px;fill:#dd8412;fill-opacity:1;stroke-width:4.50325;stroke-linecap:round;paint-order:fill markers stroke"
           inkscape:transform-center-x="116"
           d="m 45189.351,50236.6 v 79.756 h 74.773 v -79.756 z m 74.775,0 v 79.756 h 74.773 v -79.756 z m 74.773,79.756 v 79.757 h 74.774 v -79.757 z" />
        <path
           id="path16938"
           style="font-size:40px;line-height:1.25;letter-spacing:0px;word-spacing:0px;fill:#dd8412;fill-opacity:1;stroke-width:4.50325;stroke-linecap:round;paint-order:fill markers stroke"
           d="m 44965.031,50794.897 v 79.757 h 74.773 74.773 74.776 74.773 v -79.757 h -74.773 -74.776 -74.773 z m 299.095,0 v 79.757 h 74.773 74.774 74.773 v -79.757 h -74.773 -74.774 z" />
        <path
           id="path16940"
           style="font-size:40px;line-height:1.25;letter-spacing:0px;word-spacing:0px;fill:#dd8412;stroke-width:5.65001;stroke-linecap:round;paint-order:fill markers stroke"
           inkscape:transform-center-x="116"
           d="m 45488.444,50715.141 h 74.774 v 79.757 h -74.774 z" />
        <path
           id="path16942"
           style="font-size:40px;line-height:1.25;letter-spacing:0px;word-spacing:0px;fill:#dd8412;stroke-width:5.65001;stroke-linecap:round;paint-order:fill markers stroke"
           inkscape:transform-center-x="116"
           d="m 45563.222,50555.625 h 74.773 v 79.757 h -74.773 z" />
        <path
           id="path16944"
           style="font-size:40px;line-height:1.25;letter-spacing:0px;word-spacing:0px;fill:#ffe001;fill-opacity:1;stroke-width:4.50325;stroke-linecap:round;paint-order:fill markers stroke"
           d="m 45976.391,49997.329 v 79.757 79.757 79.757 79.756 79.757 79.757 79.757 79.757 79.756 79.757 h 74.773 74.774 v -79.757 -79.756 -79.757 h -74.774 v -79.757 -79.757 -79.757 -79.756 h 74.774 v -79.757 -79.757 -79.757 h -74.774 z m 149.549,0 v 79.757 79.757 79.757 h 74.773 74.773 v -79.757 -79.757 -79.757 h -74.773 z m 149.548,0 v 79.757 79.757 79.757 79.756 h 74.773 74.773 v -79.756 -79.757 -79.757 -79.757 h -74.773 z m -448.643,79.757 v 79.757 79.757 79.756 79.757 79.757 79.757 79.757 79.756 h 74.773 v 79.757 h 74.773 v -79.757 -79.756 -79.757 -79.757 -79.757 -79.757 -79.756 -79.757 -79.757 h -74.773 z m 598.191,0 v 79.757 79.757 79.756 h 74.773 v -79.756 -79.757 -79.757 z m -149.548,398.784 v 79.757 79.757 79.756 79.757 h 74.773 74.773 v -79.757 -79.756 -79.757 -79.757 h -74.773 z m 149.548,0 v 79.757 79.757 79.756 h 74.773 v -79.756 -79.757 -79.757 z m -299.096,79.757 v 79.757 79.756 79.757 h 74.773 74.773 v -79.757 -79.756 -79.757 h -74.773 z" />
        <path
           id="path16946"
           style="font-size:40px;line-height:1.25;letter-spacing:0px;word-spacing:0px;fill:#ffffff;stroke-width:5.65001;stroke-linecap:round;paint-order:fill markers stroke"
           d="m 45901.616,49997.328 h 74.774 v 79.757 h -74.774 z" />
        <path
           id="path16948"
           style="font-size:40px;line-height:1.25;letter-spacing:0px;word-spacing:0px;fill:#dd8412;fill-opacity:1;stroke-width:4.50325;stroke-linecap:round;paint-order:fill markers stroke"
           inkscape:transform-center-x="116"
           d="m 46051.164,50236.6 v 79.756 h 74.774 v -79.756 z m 74.776,0 v 79.756 h 74.773 74.773 v -79.756 h -74.773 z m 149.548,79.756 v 79.757 h 74.773 74.773 v -79.757 h -74.773 z m 149.548,0 v 79.757 h 74.773 v -79.757 z" />
        <path
           id="path16950"
           style="font-size:40px;line-height:1.25;letter-spacing:0px;word-spacing:0px;fill:#dd8412;fill-opacity:1;stroke-width:4.50325;stroke-linecap:round;paint-order:fill markers stroke"
           d="m 45826.844,50715.14 v 79.757 h 74.774 v -79.757 z m 74.774,79.757 v 79.757 h 74.773 74.773 74.774 v -79.757 h -74.774 -74.773 z m 523.417,-79.757 v 79.757 h 74.773 v -79.757 z m -299.093,79.757 v 79.757 h 74.773 74.773 74.773 74.773 v -79.757 h -74.773 -74.773 -74.773 z" />
      </g>
      <g
         aria-label="SCRATCH &amp; PYTHON"
         id="text16956"
         style="font-size:158.161px;line-height:1.25;letter-spacing:0px;word-spacing:0px;fill:#9966ff;fill-opacity:1;stroke-width:1.64751"
         transform="translate(194.45617,2492.5514)">
        <path
           d="m 44395.417,48680.093 q -10.438,0 -20.719,-3.637 -10.122,-3.796 -18.505,-11.23 l 13.444,-15.974 q 5.852,4.745 12.811,7.75 6.959,3.005 14.551,3.005 7.591,0 11.071,-2.531 3.48,-2.53 3.48,-6.484 0,-2.689 -1.108,-4.429 -1.107,-1.898 -3.163,-3.321 -2.056,-1.424 -5.061,-2.689 -3.005,-1.265 -6.643,-2.847 l -13.285,-5.694 q -4.271,-1.581 -8.383,-4.112 -3.954,-2.53 -6.959,-5.852 -3.005,-3.479 -4.903,-7.908 -1.74,-4.587 -1.74,-10.28 0,-6.327 2.689,-11.862 2.847,-5.694 7.75,-9.806 5.061,-4.271 12.02,-6.643 6.959,-2.373 15.342,-2.373 9.49,0 18.347,3.48 8.857,3.479 15.974,10.122 l -11.862,14.709 q -5.378,-3.954 -10.755,-6.01 -5.378,-2.214 -12.969,-2.214 -5.852,0 -9.49,2.372 -3.48,2.373 -3.48,6.959 0,4.587 4.587,7.118 4.745,2.372 12.337,5.061 l 12.494,5.377 q 10.281,3.796 16.133,10.439 6.01,6.643 6.01,17.556 0,6.484 -2.689,12.336 -2.689,5.694 -7.75,10.123 -5.061,4.27 -12.494,6.959 -7.434,2.53 -17.082,2.53 z"
           style="font-weight:bold;font-family:'Source Code Pro';-inkscape-font-specification:'Source Code Pro Bold';fill:#9966ff;fill-opacity:1"
           id="path17924" />
        <path
           d="m 44499.487,48680.093 q -9.648,0 -18.347,-3.321 -8.54,-3.48 -15.183,-10.122 -6.485,-6.643 -10.439,-16.449 -3.795,-9.964 -3.795,-22.934 0,-12.811 3.795,-22.775 3.796,-10.122 10.439,-17.081 6.643,-6.959 15.658,-10.597 9.015,-3.638 19.296,-3.638 9.806,0 17.714,4.113 7.908,3.954 13.127,9.015 l -12.811,14.392 q -3.638,-3.321 -8.066,-5.377 -4.271,-2.056 -9.964,-2.056 -5.536,0 -10.123,2.372 -4.586,2.215 -8.066,6.485 -3.321,4.27 -5.219,10.438 -1.898,6.169 -1.898,13.919 0,15.974 7.275,24.831 7.276,8.699 18.98,8.699 5.535,0 10.122,-2.531 4.745,-2.53 8.541,-6.643 l 12.811,14.077 q -12.811,15.183 -33.847,15.183 z"
           style="font-weight:bold;font-family:'Source Code Pro';-inkscape-font-specification:'Source Code Pro Bold';fill:#9966ff;fill-opacity:1"
           id="path17926" />
        <path
           d="m 44549.15,48678.195 v -103.121 h 36.535 q 8.224,0 15.342,1.582 7.275,1.582 12.652,5.377 5.536,3.638 8.699,9.806 3.164,6.169 3.164,15.342 0,11.388 -5.062,18.821 -5.061,7.276 -13.285,10.913 l 23.249,41.28 h -26.096 l -19.77,-37.168 h -12.179 v 37.168 z m 23.249,-55.672 h 11.388 q 18.821,0 18.821,-15.342 0,-7.592 -4.745,-10.597 -4.744,-3.005 -14.076,-3.005 h -11.388 z"
           style="font-weight:bold;font-family:'Source Code Pro';-inkscape-font-specification:'Source Code Pro Bold';fill:#9966ff;fill-opacity:1"
           id="path17928" />
        <path
           d="m 44671.566,48626.002 -2.372,9.49 h 21.668 l -2.372,-9.49 q -2.056,-7.75 -4.271,-16.29 -2.214,-8.699 -3.954,-16.924 h -0.632 q -1.898,8.225 -3.954,16.924 -2.056,8.54 -4.113,16.29 z m -37.167,52.193 32.106,-103.121 h 27.837 l 32.106,103.121 h -24.673 l -6.168,-24.515 h -31.158 l -6.326,24.515 z"
           style="font-weight:bold;font-family:'Source Code Pro';-inkscape-font-specification:'Source Code Pro Bold';fill:#9966ff;fill-opacity:1"
           id="path17930" />
        <path
           d="m 44763.616,48678.195 v -83.509 h -30.841 v -19.612 h 85.09 v 19.612 h -30.841 v 83.509 z"
           style="font-weight:bold;font-family:'Source Code Pro';-inkscape-font-specification:'Source Code Pro Bold';fill:#9966ff;fill-opacity:1"
           id="path17932" />
        <path
           d="m 44879.074,48680.093 q -9.648,0 -18.347,-3.321 -8.541,-3.48 -15.183,-10.122 -6.485,-6.643 -10.439,-16.449 -3.796,-9.964 -3.796,-22.934 0,-12.811 3.796,-22.775 3.796,-10.122 10.439,-17.081 6.642,-6.959 15.658,-10.597 9.015,-3.638 19.295,-3.638 9.806,0 17.714,4.113 7.908,3.954 13.128,9.015 l -12.811,14.392 q -3.638,-3.321 -8.067,-5.377 -4.27,-2.056 -9.964,-2.056 -5.535,0 -10.122,2.372 -4.587,2.215 -8.066,6.485 -3.322,4.27 -5.22,10.438 -1.898,6.169 -1.898,13.919 0,15.974 7.276,24.831 7.275,8.699 18.979,8.699 5.536,0 10.122,-2.531 4.745,-2.53 8.541,-6.643 l 12.811,14.077 q -12.811,15.183 -33.846,15.183 z"
           style="font-weight:bold;font-family:'Source Code Pro';-inkscape-font-specification:'Source Code Pro Bold';fill:#9966ff;fill-opacity:1"
           id="path17934" />
        <path
           d="m 44927.787,48678.195 v -103.121 h 23.25 v 39.699 h 28.153 v -39.699 h 23.249 v 103.121 h -23.249 v -43.019 h -28.153 v 43.019 z"
           style="font-weight:bold;font-family:'Source Code Pro';-inkscape-font-specification:'Source Code Pro Bold';fill:#9966ff;fill-opacity:1"
           id="path17936" />
        <path
           d="m 45144.152,48680.093 q -8.066,0 -14.235,-2.372 -6.168,-2.373 -10.438,-6.327 -4.113,-4.112 -6.327,-9.331 -2.056,-5.378 -2.056,-11.388 0,-5.061 1.265,-9.173 1.424,-4.27 3.638,-7.592 2.373,-3.479 5.378,-6.326 3.005,-2.847 6.326,-5.22 -3.163,-6.01 -4.903,-11.545 -1.74,-5.694 -1.74,-10.597 0,-5.536 1.74,-10.439 1.74,-4.903 5.061,-8.54 3.322,-3.796 8.066,-5.852 4.745,-2.215 10.597,-2.215 11.704,0 18.189,6.327 6.642,6.326 6.642,17.081 0,4.903 -1.739,9.015 -1.74,3.954 -4.587,7.434 -2.689,3.48 -6.168,6.485 -3.48,3.005 -7.117,5.852 3.795,4.903 8.54,9.647 4.903,4.587 9.964,8.699 2.847,-5.061 5.062,-10.913 2.214,-5.852 3.637,-12.811 h 21.194 q -2.373,9.49 -5.852,18.189 -3.48,8.54 -8.541,16.606 8.066,5.062 14.393,6.485 l -5.536,18.821 q -10.755,-2.53 -21.826,-9.964 -5.852,4.587 -12.969,7.276 -6.959,2.688 -15.658,2.688 z m -3.954,-80.029 q 0,5.377 3.005,11.862 4.428,-3.163 7.275,-6.801 3.005,-3.638 3.005,-8.541 0,-3.637 -1.423,-5.852 -1.424,-2.214 -5.061,-2.214 -3.005,0 -4.903,3.163 -1.898,3.005 -1.898,8.383 z m 6.959,62.315 q 5.061,0 10.122,-3.637 -5.535,-4.745 -10.597,-9.965 -4.903,-5.377 -9.015,-11.071 -2.214,2.689 -3.479,5.536 -1.107,2.847 -1.107,6.01 0,5.852 3.795,9.49 3.954,3.637 10.281,3.637 z"
           style="font-weight:bold;font-family:'Source Code Pro';-inkscape-font-specification:'Source Code Pro Bold';fill:#9966ff;fill-opacity:1"
           id="path17938" />
        <path
           d="m 45309.114,48678.195 v -103.121 h 36.535 q 8.383,0 15.658,1.74 7.434,1.582 12.811,5.536 5.536,3.796 8.699,10.28 3.163,6.327 3.163,15.658 0,9.015 -3.321,15.658 -3.164,6.643 -8.699,10.913 -5.536,4.271 -12.811,6.327 -7.276,2.056 -15.5,2.056 h -13.285 v 34.953 z m 23.25,-53.458 h 11.862 q 18.979,0 18.979,-16.449 0,-8.066 -4.903,-11.387 -4.745,-3.322 -14.076,-3.322 h -11.862 z"
           style="font-weight:bold;font-family:'Source Code Pro';-inkscape-font-specification:'Source Code Pro Bold';fill:#9966ff;fill-opacity:1"
           id="path17940" />
        <path
           d="m 45427.893,48678.195 v -34.795 l -33.214,-68.326 h 24.989 l 10.439,24.832 q 2.214,6.01 4.587,11.704 2.372,5.693 4.745,11.862 h 0.632 q 2.531,-6.169 4.903,-11.862 2.373,-5.694 4.745,-11.704 l 10.439,-24.832 h 24.356 l -33.213,68.326 v 34.795 z"
           style="font-weight:bold;font-family:'Source Code Pro';-inkscape-font-specification:'Source Code Pro Bold';fill:#9966ff;fill-opacity:1"
           id="path17942" />
        <path
           d="m 45522.789,48678.195 v -83.509 h -30.841 v -19.612 h 85.091 v 19.612 h -30.842 v 83.509 z"
           style="font-weight:bold;font-family:'Source Code Pro';-inkscape-font-specification:'Source Code Pro Bold';fill:#9966ff;fill-opacity:1"
           id="path17944" />
        <path
           d="m 45592.064,48678.195 v -103.121 h 23.25 v 39.699 h 28.152 v -39.699 h 23.25 v 103.121 h -23.25 v -43.019 h -28.152 v 43.019 z"
           style="font-weight:bold;font-family:'Source Code Pro';-inkscape-font-specification:'Source Code Pro Bold';fill:#9966ff;fill-opacity:1"
           id="path17946" />
        <path
           d="m 45724.287,48680.093 q -9.174,0 -16.924,-3.479 -7.591,-3.48 -13.127,-10.281 -5.377,-6.801 -8.382,-16.765 -3.006,-10.122 -3.006,-23.408 0,-12.969 3.006,-22.775 3.005,-9.964 8.382,-16.607 5.536,-6.801 13.127,-10.122 7.75,-3.48 16.924,-3.48 9.173,0 16.765,3.48 7.75,3.321 13.127,10.122 5.536,6.643 8.541,16.607 3.005,9.806 3.005,22.775 0,13.286 -3.005,23.408 -3.005,9.964 -8.541,16.765 -5.377,6.801 -13.127,10.281 -7.592,3.479 -16.765,3.479 z m 0,-20.086 q 8.066,0 12.811,-8.541 4.745,-8.541 4.745,-25.306 0,-16.132 -4.745,-24.515 -4.745,-8.382 -12.811,-8.382 -8.067,0 -12.811,8.382 -4.745,8.383 -4.745,24.515 0,16.765 4.745,25.306 4.744,8.541 12.811,8.541 z"
           style="font-weight:bold;font-family:'Source Code Pro';-inkscape-font-specification:'Source Code Pro Bold';fill:#9966ff;fill-opacity:1"
           id="path17948" />
        <path
           d="m 45782.174,48678.195 v -103.121 h 23.882 l 21.668,51.245 8.857,22.775 h 0.633 q -0.791,-8.225 -2.056,-18.189 -1.266,-10.122 -1.266,-19.295 v -36.536 h 22.301 v 103.121 h -23.882 l -21.668,-51.402 -8.857,-22.459 h -0.633 q 0.791,8.541 2.056,18.347 1.265,9.806 1.265,18.979 v 36.535 z"
           style="font-weight:bold;font-family:'Source Code Pro';-inkscape-font-specification:'Source Code Pro Bold';fill:#9966ff;fill-opacity:1"
           id="path17950" />
      </g>
    </g>
  </g>
</svg>
